<svg width="312" height="45" viewBox="0 0 312 45" fill="none" xmlns="http://www.w3.org/2000/svg">
<path fill-rule="evenodd" clip-rule="evenodd" d="M1.27872 26.2186C-0.0447287 23.973 -0.0447287 21.1859 1.27872 18.9404L10.0452 4.06573C11.3337 1.8795 13.6823 0.537598 16.2199 0.537598H34.0105C36.5481 0.537598 38.8966 1.8795 40.1851 4.06573L48.9516 18.9404C50.2751 21.1859 50.2751 23.973 48.9516 26.2186L40.1851 41.0933C38.8966 43.2795 36.5481 44.6213 34.0105 44.6213H16.2199C13.6822 44.6213 11.3337 43.2795 10.0452 41.0933L1.27872 26.2186Z" fill="#FF133E"/>
<path fill-rule="evenodd" clip-rule="evenodd" d="M17.8962 13.3557V10.8226L28.8443 9.87621C32.643 9.56471 36.3755 12.4222 36.3755 16.6426V29.7963C36.3755 31.7949 33.8778 33.6303 30.7969 33.8956C27.7159 34.1609 25.2182 32.756 25.2182 30.7573V27.1386L28.0076 26.8984C31.0885 26.633 33.5862 24.0378 33.5862 20.3587V18.5494C33.5862 15.4132 31.0885 13.4246 28.0076 13.69L20.6855 14.3218V31.1188C20.6855 33.1173 18.1879 34.9526 15.1069 35.2179C12.0259 35.4833 9.52832 34.0782 9.52832 32.0797C9.52832 30.0811 12.0259 28.2458 15.1069 27.9804C16.6474 27.8478 17.8962 26.9302 17.8962 25.9309V14.562V13.3557ZM26.2851 23.4393C26.1668 23.5225 26.0004 23.5567 25.8302 23.5387C25.7566 23.5309 25.6823 23.5135 25.6109 23.486C25.3744 23.3948 25.2182 23.2129 25.2182 23.0283V17.6802C25.2182 17.5193 25.3372 17.3836 25.5295 17.3248C25.6229 17.2963 25.7266 17.2882 25.8303 17.2991C25.9399 17.3107 26.0495 17.3437 26.1466 17.3967L30.0945 19.6973C30.2508 19.7825 30.3568 19.9096 30.3836 20.0439C30.4103 20.1783 30.3551 20.3058 30.233 20.3917L26.2851 23.4393Z" fill="url(#paint0_linear_222_258)"/>
<path fill-rule="evenodd" clip-rule="evenodd" d="M17.8962 13.3557V10.8226L28.8443 9.87621C32.643 9.56471 36.3755 12.4222 36.3755 16.6426V29.7963C36.3755 31.7949 33.8778 33.6303 30.7969 33.8956C27.7159 34.1609 25.2182 32.756 25.2182 30.7573V27.1386L28.0076 26.8984C31.0885 26.633 33.5862 24.0378 33.5862 20.3587V18.5494C33.5862 15.4132 31.0885 13.4246 28.0076 13.69L20.6855 14.3218V31.1188C20.6855 33.1173 18.1879 34.9526 15.1069 35.2179C12.0259 35.4833 9.52832 34.0782 9.52832 32.0797C9.52832 30.0811 12.0259 28.2458 15.1069 27.9804C16.6474 27.8478 17.8962 26.9302 17.8962 25.9309V14.562V13.3557ZM26.2851 23.4393C26.1668 23.5225 26.0004 23.5567 25.8302 23.5387C25.7566 23.5309 25.6823 23.5135 25.6109 23.486C25.3744 23.3948 25.2182 23.2129 25.2182 23.0283V17.6802C25.2182 17.5193 25.3372 17.3836 25.5295 17.3248C25.6229 17.2963 25.7266 17.2882 25.8303 17.2991C25.9399 17.3107 26.0495 17.3437 26.1466 17.3967L30.0945 19.6973C30.2508 19.7825 30.3568 19.9096 30.3836 20.0439C30.4103 20.1783 30.3551 20.3058 30.233 20.3917L26.2851 23.4393Z" fill="white"/>
<path d="M83.2783 14.317C84.867 14.317 86.2467 14.5846 87.4173 15.1197C88.5883 15.6382 89.4914 16.3908 90.1266 17.3774C90.7617 18.3474 91.0798 19.4929 91.0798 20.8141C91.0798 22.1353 90.7617 23.2808 90.1266 24.2508C89.4914 25.2208 88.5883 25.9733 87.4173 26.5085C86.2467 27.0269 84.867 27.2861 83.2783 27.2861H80.2179V31.8767H75.251V14.317H83.2783ZM82.9772 23.3728C83.9974 23.3728 84.7666 23.1554 85.2851 22.7206C85.8036 22.2691 86.0627 21.6336 86.0627 20.8141C86.0627 19.9946 85.8036 19.3592 85.2851 18.9076C84.7666 18.4561 83.9974 18.2303 82.9772 18.2303H80.2179V23.3728H82.9772ZM93.5014 14.317H98.4683V27.9383H106.847V31.8767H93.5014V14.317ZM120.774 28.4651H113.348L111.969 31.8767H106.901L114.653 14.317H119.544L127.321 31.8767H122.153L120.774 28.4651ZM119.319 24.8027L117.061 19.1836L114.803 24.8027H119.319ZM137.033 25.5803V31.8767H132.066V25.5051L125.369 14.317H130.612L134.776 21.2907L138.94 14.317H143.756L137.033 25.5803ZM144.946 14.317H149.913V27.9383H158.291V31.8767H144.946V14.317ZM160.257 14.317H165.224V31.8767H160.257V14.317ZM174.928 32.2279C173.506 32.2279 172.127 32.0523 170.789 31.7011C169.452 31.3499 168.364 30.8816 167.528 30.2963L169.159 26.6339C169.944 27.1523 170.856 27.5704 171.893 27.8882C172.929 28.2059 173.95 28.3648 174.953 28.3648C176.86 28.3648 177.813 27.8882 177.813 26.9349C177.813 26.4332 177.537 26.0653 176.985 25.8312C176.45 25.5803 175.58 25.3211 174.376 25.0535C173.055 24.7692 171.951 24.4682 171.065 24.1504C170.179 23.816 169.418 23.2892 168.782 22.5701C168.147 21.8509 167.829 20.881 167.829 19.6602C167.829 18.5898 168.122 17.6283 168.707 16.7754C169.292 15.9057 170.162 15.2201 171.316 14.7184C172.487 14.2167 173.917 13.9658 175.606 13.9658C176.759 13.9658 177.896 14.0996 179.017 14.3672C180.138 14.618 181.124 14.9943 181.977 15.496L180.447 19.1836C178.774 18.2805 177.153 17.829 175.58 17.829C174.594 17.829 173.875 17.9795 173.423 18.2805C172.972 18.5648 172.746 18.941 172.746 19.4093C172.746 19.8776 173.014 20.2288 173.549 20.4629C174.083 20.697 174.945 20.9395 176.132 21.1904C177.47 21.4747 178.574 21.7841 179.444 22.1185C180.33 22.4363 181.091 22.9547 181.726 23.6738C182.379 24.3762 182.705 25.3378 182.705 26.5586C182.705 27.6122 182.412 28.5655 181.827 29.4184C181.242 30.2713 180.364 30.9569 179.193 31.4753C178.022 31.9771 176.601 32.2279 174.928 32.2279ZM188.492 18.2554H183.099V14.317H198.827V18.2554H193.459V31.8767H188.492V18.2554ZM214.775 28.0387V31.8767H200.677V14.317H214.449V18.1551H205.594V21.1151H213.396V24.8277H205.594V28.0387H214.775ZM225.208 27.2109H222.499V31.8767H217.532V14.317H225.559C227.148 14.317 228.527 14.5846 229.698 15.1197C230.868 15.6382 231.772 16.3908 232.408 17.3774C233.043 18.3474 233.361 19.4929 233.361 20.8141C233.361 22.0851 233.06 23.1972 232.458 24.1504C231.872 25.0869 231.028 25.8228 229.924 26.358L233.712 31.8767H228.394L225.208 27.2109ZM228.344 20.8141C228.344 19.9946 228.084 19.3592 227.566 18.9076C227.047 18.4561 226.278 18.2303 225.258 18.2303H222.499V23.3728H225.258C226.278 23.3728 227.047 23.1554 227.566 22.7206C228.084 22.2691 228.344 21.6336 228.344 20.8141Z" fill="#F4F4F5"/>
<path d="M237.882 32.1037C237.079 32.1037 236.402 31.8361 235.85 31.3009C235.298 30.7658 235.022 30.0885 235.022 29.269C235.022 28.4329 235.29 27.7556 235.825 27.2371C236.377 26.7187 237.062 26.4595 237.882 26.4595C238.718 26.4595 239.404 26.7187 239.939 27.2371C240.474 27.7556 240.742 28.4329 240.742 29.269C240.742 30.0885 240.466 30.7658 239.914 31.3009C239.379 31.8361 238.702 32.1037 237.882 32.1037Z" fill="#2EC4B6"/>
<path d="M251.933 32.0783C250.177 32.0783 248.588 31.6936 247.167 30.9243C245.762 30.1384 244.658 29.068 243.855 27.7134C243.053 26.3421 242.651 24.8035 242.651 23.0977C242.651 21.3919 243.053 19.8617 243.855 18.5071C244.658 17.1358 245.77 16.0655 247.192 15.2962C248.613 14.5102 250.202 14.1172 251.958 14.1172C253.329 14.1172 254.583 14.3513 255.721 14.8196C256.858 15.2711 257.828 15.9484 258.631 16.8515L257 18.4319C255.679 17.0438 254.031 16.3498 252.058 16.3498C250.754 16.3498 249.575 16.6425 248.521 17.2278C247.468 17.8131 246.64 18.6242 246.038 19.661C245.452 20.6812 245.16 21.8267 245.16 23.0977C245.16 24.3687 245.452 25.5227 246.038 26.5595C246.64 27.5797 247.468 28.3824 248.521 28.9677C249.575 29.553 250.754 29.8457 252.058 29.8457C254.015 29.8457 255.662 29.1433 257 27.7385L258.631 29.3189C257.828 30.2219 256.85 30.9076 255.696 31.3759C254.558 31.8442 253.304 32.0783 251.933 32.0783ZM262.209 14.3179H264.717V29.6951H274.225V31.8776H262.209V14.3179ZM284.084 32.0783C281.743 32.0783 279.92 31.4093 278.616 30.0714C277.311 28.7336 276.659 26.8103 276.659 24.3018V14.3179H279.167V24.2015C279.167 27.9643 280.815 29.8457 284.109 29.8457C285.715 29.8457 286.944 29.3858 287.797 28.466C288.65 27.5295 289.076 26.108 289.076 24.2015V14.3179H291.509V24.3018C291.509 26.8271 290.857 28.7587 289.553 30.0965C288.248 31.4177 286.425 32.0783 284.084 32.0783ZM308.467 22.7716C309.488 23.0559 310.29 23.5743 310.875 24.3269C311.461 25.0627 311.753 25.9993 311.753 27.1364C311.753 28.6583 311.176 29.8289 310.022 30.6484C308.885 31.4679 307.222 31.8776 305.03 31.8776H296.652V14.3179H304.529C306.536 14.3179 308.083 14.7192 309.169 15.522C310.273 16.3247 310.825 17.4368 310.825 18.8583C310.825 19.7781 310.608 20.5724 310.173 21.2414C309.755 21.9104 309.187 22.4204 308.467 22.7716ZM299.16 16.3498V21.9689H304.303C305.591 21.9689 306.578 21.7348 307.263 21.2665C307.965 20.7815 308.317 20.0792 308.317 19.1593C308.317 18.2395 307.965 17.5455 307.263 17.0773C306.578 16.5923 305.591 16.3498 304.303 16.3498H299.16ZM304.93 29.8457C306.352 29.8457 307.422 29.6116 308.141 29.1433C308.86 28.675 309.22 27.9392 309.22 26.9358C309.22 24.9791 307.79 24.0008 304.93 24.0008H299.16V29.8457H304.93Z" fill="#D4D4D4"/>
<defs>
<linearGradient id="paint0_linear_222_258" x1="9.62929" y1="9.85301" x2="9.62929" y2="35.0591" gradientUnits="userSpaceOnUse">
<stop stop-color="white"/>
<stop offset="1" stop-color="#FFBFE2" stop-opacity="0.8"/>
</linearGradient>
</defs>
</svg>
