<svg width="91" height="79" viewBox="0 0 91 79" fill="none" xmlns="http://www.w3.org/2000/svg">
<path d="M68.3739 30.667C67.8184 30.1116 66.9839 30.1116 66.4285 30.667L58.647 38.4485C57.3966 37.6149 56.1463 37.1981 54.6177 37.1981C52.6724 37.1981 50.8656 38.0317 49.4765 39.4217C48.0865 40.8116 47.2529 42.6175 47.2529 44.5629C47.2529 46.5083 48.0865 48.315 49.4765 49.7041C50.8665 51.0941 52.6723 51.9277 54.6177 51.9277C56.5631 51.9277 58.3699 51.0941 59.759 49.7041C61.1489 48.3141 61.9825 46.5083 61.9825 44.5629C61.9825 43.0343 61.5657 41.5058 60.5925 40.3939L68.2355 32.7509C68.9295 32.0569 68.9295 31.2233 68.3741 30.6669L68.3739 30.667ZM57.9519 47.7597C56.2847 49.4269 53.2276 49.4269 51.4209 47.7597C50.5873 46.9261 50.0309 45.6757 50.0309 44.5639C50.0309 43.3135 50.4477 42.2018 51.4209 41.3681C53.0881 39.7009 56.1452 39.7009 57.9519 41.3681C58.7855 42.2017 59.3419 43.4521 59.3419 44.5639C59.2023 45.8134 58.7855 46.9251 57.9519 47.7597Z" fill="black"/>
<path d="M15.292 43.3123C15.292 44.146 15.8474 44.7023 16.682 44.7023H40.7216C41.5552 44.7023 42.1116 44.1469 42.1116 43.3123C42.1116 42.4787 41.5562 41.9224 40.7216 41.9224H16.682C15.8484 41.9224 15.292 42.4787 15.292 43.3123Z" fill="black"/>
<path d="M10.8451 33.0295H34.8847C35.7183 33.0295 36.2747 32.4741 36.2747 31.6395C36.2747 30.8059 35.7193 30.2495 34.8847 30.2495L10.8451 30.2505C10.0115 30.2505 9.45508 30.8059 9.45508 31.6405C9.45508 32.4741 10.0115 33.0295 10.8451 33.0295V33.0295Z" fill="black"/>
<path d="M36.2747 54.9847C36.2747 54.1511 35.7193 53.5947 34.8847 53.5947L10.8451 53.5957C10.0115 53.5957 9.45508 54.1511 9.45508 54.9857C9.45508 55.8193 10.0105 56.3757 10.8451 56.3757H34.8847C35.7183 56.3747 36.2747 55.8183 36.2747 54.9847Z" fill="black"/>
<path d="M80.1859 19.5503L81.5758 18.1603C82.2708 18.5771 82.9658 18.7158 83.7994 18.7158C86.4399 18.7158 88.5238 16.6318 88.5238 13.9914C88.5238 11.3519 86.5784 9.26804 83.9381 9.26804C81.2979 9.26804 79.2138 11.352 79.2138 13.9924C79.2138 14.6874 79.3524 15.521 79.7692 16.0764L78.2406 17.605C72.4043 12.4637 64.9 9.26695 56.5632 8.98978V3.15351H61.5658C62.3994 3.15351 62.9557 2.59809 62.9557 1.76352C62.9557 0.929917 62.4003 0.373535 61.5658 0.373535H48.9203C48.0867 0.373535 47.5303 0.928949 47.5303 1.76352C47.5303 2.59713 48.0857 3.15351 48.9203 3.15351H53.7843V8.98978C44.6128 9.40658 36.1363 13.1588 29.7447 19.967C29.1893 20.5224 29.1893 21.357 29.7447 21.9124C30.3001 22.4678 31.1347 22.4678 31.6901 21.9124C37.943 15.3813 46.281 11.7687 55.1744 11.7687C63.6508 11.7687 71.4325 15.1039 77.2686 20.5233C83.5215 26.3596 87.4123 34.6974 87.4123 43.8679C87.4123 61.6546 72.9611 76.1064 55.1739 76.1064C46.5587 76.1064 38.499 72.7711 32.3846 66.6576C31.8292 66.1022 30.9946 66.1022 30.4392 66.6576C29.8838 67.2131 29.8838 68.0476 30.4392 68.603C37.109 75.2728 45.8637 78.8862 55.1739 78.8862C74.4902 78.8853 90.1915 63.1826 90.1915 43.8686C90.1915 34.4199 86.4404 25.8047 80.1865 19.5508L80.1859 19.5503ZM83.938 12.047C85.0498 12.047 85.8834 12.8806 85.8834 13.9924C85.8834 15.1042 85.0498 15.9378 83.938 15.9378C83.5212 15.9378 83.1044 15.7992 82.6876 15.521C82.6876 15.3824 82.549 15.3824 82.549 15.2428C82.549 15.2428 82.4104 15.1042 82.2708 15.1042C81.9926 14.826 81.9926 14.4092 81.9926 13.9924C81.9926 12.8806 82.8262 12.047 83.938 12.047L83.938 12.047Z" fill="black"/>
<path d="M38.3591 66.1016C37.9423 66.7965 38.0809 67.6302 38.7759 68.0469C43.6399 71.3822 49.3365 73.1882 55.3122 73.1882C71.4317 73.1882 84.4936 60.1258 84.4936 44.0068C84.4936 27.8878 71.4312 14.8254 55.3122 14.8254C49.1978 14.8254 43.223 16.7708 38.2205 20.3833C37.6651 20.8001 37.5255 21.7733 37.9423 22.3287C38.3591 22.8841 39.1927 23.0237 39.8877 22.6069C44.3349 19.2716 49.7543 17.6043 55.3121 17.6043C69.9031 17.6043 81.7143 29.4163 81.7143 44.0065C81.7143 58.5975 69.9023 70.4087 55.3121 70.4087C49.8927 70.4087 44.7515 68.8801 40.4431 65.8231C39.6094 65.4082 38.7758 65.5478 38.3591 66.1032V66.1016Z" fill="black"/>
<g style="mix-blend-mode:multiply">
<path d="M17.8448 17.731H8.15485C7.73509 17.7394 7.32429 17.8538 6.96063 18.0636C6.59697 18.2734 6.29228 18.5718 6.07486 18.931L1.26486 27.261C1.06789 27.6303 0.964844 28.0424 0.964844 28.461C0.964844 28.8795 1.06789 29.2916 1.26486 29.6609L6.07486 37.991C6.27911 38.3617 6.58087 38.6695 6.94751 38.881C7.31414 39.0925 7.73166 39.1997 8.15485 39.1909H17.7649C18.1866 39.1922 18.6012 39.0819 18.9665 38.8712C19.3318 38.6604 19.6349 38.3567 19.8448 37.991L24.6548 29.6609C24.8518 29.2916 24.9548 28.8795 24.9548 28.461C24.9548 28.0424 24.8518 27.6303 24.6548 27.261L19.8448 18.931C19.644 18.5748 19.3541 18.277 19.0034 18.0666C18.6528 17.8563 18.2536 17.7406 17.8448 17.731Z" fill="#FF1241"/>
</g>
</svg>
