<svg width="109" height="79" viewBox="0 0 109 79" fill="none" xmlns="http://www.w3.org/2000/svg">
<g style="mix-blend-mode:multiply">
<path d="M100.998 17.8699H91.3077C90.8879 17.8783 90.4771 17.9928 90.1135 18.2026C89.7498 18.4124 89.4451 18.7107 89.2277 19.0699L84.4177 27.3999C84.2207 27.7692 84.1177 28.1813 84.1177 28.5999C84.1177 29.0184 84.2207 29.4305 84.4177 29.7999L89.2277 38.1299C89.4319 38.5006 89.7337 38.8084 90.1003 39.0199C90.467 39.2314 90.8845 39.3386 91.3077 39.3299H100.918C101.339 39.3312 101.754 39.2208 102.119 39.0101C102.485 38.7993 102.788 38.4956 102.998 38.1299L107.808 29.7999C108.005 29.4305 108.108 29.0184 108.108 28.5999C108.108 28.1813 108.005 27.7692 107.808 27.3999L102.998 19.0699C102.797 18.7137 102.507 18.4159 102.156 18.2055C101.806 17.9952 101.406 17.8795 100.998 17.8699Z" fill="#FF1241"/>
</g>
<path d="M0.982422 0.774658V77.8861H96.1126V0.774658H0.982422ZM3.22078 75.7596V14.9882H93.9862V75.7596H3.22078ZM3.22078 12.8618V3.01282H93.9862V12.8618H3.22078Z" fill="black"/>
<path d="M12.2863 8.27295C12.2863 9.50876 11.2846 10.5111 10.0481 10.5111C8.81228 10.5111 7.80994 9.50872 7.80994 8.27295C7.80994 7.03635 8.81232 6.03479 10.0481 6.03479C11.2847 6.03479 12.2863 7.03639 12.2863 8.27295Z" fill="black"/>
<path d="M20.4564 8.27295C20.4564 9.50876 19.454 10.5111 18.2175 10.5111C16.9817 10.5111 15.9793 9.50872 15.9793 8.27295C15.9793 7.03635 16.9817 6.03479 18.2175 6.03479C19.4541 6.03479 20.4564 7.03639 20.4564 8.27295Z" fill="black"/>
<path d="M28.7379 8.27295C28.7379 9.50876 27.7363 10.5111 26.4998 10.5111C25.2639 10.5111 24.2616 9.50872 24.2616 8.27295C24.2616 7.03635 25.264 6.03479 26.4998 6.03479C27.7363 6.03479 28.7379 7.03639 28.7379 8.27295Z" fill="black"/>
<path d="M81.1158 26.6274H16.2034V64.008H81.1158V26.6274ZM78.8776 28.8656V55.8378L61.5302 45.7656L47.7637 53.9354L33.998 35.6926L18.3299 48.8985V28.8652L78.8776 28.8656ZM18.442 61.6575V51.6968L33.6628 38.8267L47.2053 56.8455L61.5308 48.3393L78.8782 58.4115V61.6567L18.442 61.6575Z" fill="black"/>
<path d="M53.3599 44.0867C56.1578 44.0867 58.396 41.736 58.396 38.8265C58.396 35.9169 56.1578 33.5664 53.3599 33.5664C50.5619 33.5664 48.3238 35.9171 48.3238 38.8265C48.3238 41.7368 50.5619 44.0867 53.3599 44.0867ZM53.3599 35.9169C54.9267 35.9169 56.1578 37.2597 56.1578 38.9389C56.1578 40.6173 54.9267 41.9608 53.3599 41.9608C51.7931 41.9608 50.5619 40.6181 50.5619 38.9389C50.5619 37.2596 51.7931 35.9169 53.3599 35.9169Z" fill="black"/>
<path d="M0.982422 0.774658V77.8861H96.1126V0.774658H0.982422ZM3.22078 75.7596V14.9882H93.9862V75.7596H3.22078ZM3.22078 12.8618V3.01282H93.9862V12.8618H3.22078Z" stroke="black"/>
<path d="M12.2863 8.27295C12.2863 9.50876 11.2846 10.5111 10.0481 10.5111C8.81228 10.5111 7.80994 9.50872 7.80994 8.27295C7.80994 7.03635 8.81232 6.03479 10.0481 6.03479C11.2847 6.03479 12.2863 7.03639 12.2863 8.27295Z" stroke="black"/>
<path d="M20.4564 8.27295C20.4564 9.50876 19.454 10.5111 18.2175 10.5111C16.9817 10.5111 15.9793 9.50872 15.9793 8.27295C15.9793 7.03635 16.9817 6.03479 18.2175 6.03479C19.4541 6.03479 20.4564 7.03639 20.4564 8.27295Z" stroke="black"/>
<path d="M28.7379 8.27295C28.7379 9.50876 27.7363 10.5111 26.4998 10.5111C25.2639 10.5111 24.2616 9.50872 24.2616 8.27295C24.2616 7.03635 25.264 6.03479 26.4998 6.03479C27.7363 6.03479 28.7379 7.03639 28.7379 8.27295Z" stroke="black"/>
<path d="M81.1158 26.6274H16.2034V64.008H81.1158V26.6274ZM78.8776 28.8656V55.8378L61.5302 45.7656L47.7637 53.9354L33.998 35.6926L18.3299 48.8985V28.8652L78.8776 28.8656ZM18.442 61.6575V51.6968L33.6628 38.8267L47.2053 56.8455L61.5308 48.3393L78.8782 58.4115V61.6567L18.442 61.6575Z" stroke="black"/>
<path d="M53.3599 44.0867C56.1578 44.0867 58.396 41.736 58.396 38.8265C58.396 35.9169 56.1578 33.5664 53.3599 33.5664C50.5619 33.5664 48.3238 35.9171 48.3238 38.8265C48.3238 41.7368 50.5619 44.0867 53.3599 44.0867ZM53.3599 35.9169C54.9267 35.9169 56.1578 37.2597 56.1578 38.9389C56.1578 40.6173 54.9267 41.9608 53.3599 41.9608C51.7931 41.9608 50.5619 40.6181 50.5619 38.9389C50.5619 37.2596 51.7931 35.9169 53.3599 35.9169Z" stroke="black"/>
<rect x="25.9819" y="19.4717" width="68" height="3.5" transform="rotate(45.5383 25.9819 19.4717)" fill="#FF1241"/>
</svg>
