<svg width="92" height="80" viewBox="0 0 92 80" fill="none" xmlns="http://www.w3.org/2000/svg">
<path d="M46.8552 15.833C46.5805 15.0467 46.3888 14.2331 46.2835 13.4067C43.8578 14.0698 42.1939 15.2127 41.3547 16.822C40.0212 19.3781 41.1736 22.2624 41.7269 23.6477L41.811 23.8583C42.8397 26.4395 43.1518 27.2364 41.6221 30.5881C42.4987 30.5748 43.3741 30.6578 44.2323 30.8367C45.7146 27.2548 45.2593 25.7686 44.1303 22.9344L44.045 22.7215C43.5976 21.6015 42.7645 19.5162 43.568 17.976C44.0656 17.022 45.1746 16.3037 46.8552 15.8329L46.8552 15.833Z" fill="black"/>
<path d="M53.7898 42.7062C54.1035 41.8681 54.5114 41.069 55.0051 40.3229C54.4869 40.236 53.9625 40.192 53.4365 40.1914C53.587 40.9437 53.6644 41.7082 53.6678 42.475C53.6678 42.5491 53.6622 42.6221 53.6605 42.6957C53.704 42.6973 53.7463 42.704 53.7898 42.7063L53.7898 42.7062Z" fill="black"/>
<path d="M28.4744 27.6148C27.1248 28.8508 25.5945 30.2516 25.2018 32.5749H25.2012C24.9761 34.1864 24.9733 35.8214 25.1929 37.4335C25.2826 38.1863 25.3255 38.9436 25.3205 39.702C26.0037 40.0982 26.6445 40.5629 27.2346 41.0878C27.36 41.1998 27.4703 41.3252 27.5901 41.4417C27.8643 40.0408 27.8938 38.6031 27.6776 37.1922C27.4826 35.7991 27.4776 34.3853 27.6631 32.9912C27.9128 31.514 29.0044 30.5143 30.1601 29.4561C31.6764 28.0685 33.3944 26.4954 33.0216 23.7695C32.5641 20.4265 30.2905 19.3756 27.7519 19.0295C27.3969 19.8704 26.9466 20.6683 26.41 21.4067C29.0825 21.57 30.2762 22.1166 30.5481 24.1077C30.7348 25.4713 29.924 26.2882 28.4747 27.615L28.4744 27.6148Z" fill="black"/>
<path d="M25.0834 5.85826C32.7543 2.36154 41.3829 1.56468 49.5641 3.59749C50.2852 2.8547 51.0988 2.20829 51.9854 1.67338C42.3139 -1.22205 31.9026 -0.337172 22.8584 4.15027C23.5282 4.54146 24.1573 4.99839 24.7374 5.51384C24.8589 5.62306 24.9665 5.74454 25.0829 5.85822L25.0834 5.85826Z" fill="black"/>
<path d="M69.8538 12.8254C69.7713 13.8608 69.5534 14.8811 69.2057 15.8601C72.1441 19.349 74.4204 23.345 75.9238 27.6518L68.7394 30.3032C68.1058 30.5133 67.5697 30.9462 67.2309 31.5219C66.8921 32.0969 66.774 32.7757 66.8977 33.4316C67.0214 34.0875 67.3786 34.6765 67.9035 35.0888C68.0674 35.2197 68.2145 35.3484 68.3538 35.4761H68.3543C69.665 35.8767 70.8959 36.5014 71.9931 37.3233C71.9931 37.2848 71.9976 37.2464 71.9965 37.2074C71.9469 35.7909 71.1183 34.4596 69.4611 33.1373H69.4605C69.4076 33.0955 69.3692 33.0381 69.3508 32.9735C69.3229 32.8782 69.4338 32.7083 69.6032 32.6458L76.6751 30.0351C78.6807 37.3494 78.4176 45.1008 75.9206 52.2634C73.4236 59.425 68.8102 65.6594 62.6918 70.1407C56.5732 74.6226 49.2378 77.1407 41.6561 77.3614C41.7742 75.6595 42.361 74.023 43.3524 72.6343C44.1052 71.7499 45.0257 71.0239 46.0611 70.4978C48.0025 69.3186 50.4187 67.8508 50.1779 64.5403C50.0559 63.062 50.2297 61.5741 50.6895 60.1637C51.1598 58.5009 51.6039 56.9306 50.4058 53.8969V53.8975C50.0994 53.1391 49.6636 52.4391 49.1186 51.8301C48.8066 52.0781 48.4823 52.311 48.1468 52.5261L47.5773 53.9008V53.9014C47.7807 54.185 47.9506 54.4909 48.0833 54.8136C48.7915 56.2764 48.8656 57.9665 48.2872 59.4849C47.7484 61.1751 47.545 62.9537 47.6882 64.7213C47.8125 66.4259 46.7147 67.1792 44.7649 68.3634V68.3639C43.4292 69.0599 42.2524 70.0251 41.3089 71.1992C40.0205 73.004 39.2743 75.1388 39.1574 77.3534C34.2492 77.1712 29.4257 76.0227 24.9622 73.9738C20.4993 71.9254 16.4838 69.016 13.146 65.4134C13.7455 65.171 14.329 64.8913 14.8929 64.5759L13.9261 62.2417C13.1292 62.7237 12.2762 63.1054 11.3861 63.379C6.02823 56.7433 3.1084 48.4717 3.1151 39.9425C3.1151 39.3306 3.13461 38.7232 3.16414 38.1187C3.68684 38.205 4.16829 38.4547 4.54052 38.8319C5.83945 39.8829 7.21641 40.7299 10.9193 40.4935C11.3405 40.4623 11.7635 40.4668 12.1836 40.5064C13.0752 39.8193 14.0598 39.2632 15.1086 38.8536C13.7785 38.1342 12.2611 37.8372 10.7582 38.0016C7.72358 38.1994 6.94113 37.563 6.11089 36.891V36.8915C5.35193 36.1928 4.39177 35.7514 3.36709 35.6311C3.91765 30.8399 5.39605 26.2014 7.71802 21.9748C7.11955 21.2516 6.60856 20.4603 6.19619 19.6172C2.01132 26.692 0.111173 34.8868 0.755824 43.0808C1.39999 51.2756 4.55782 59.0709 9.79762 65.4061C15.0368 71.7396 22.1032 76.3024 30.0316 78.4711C37.96 80.6399 46.3654 80.3089 54.0986 77.5238C61.8326 74.7388 68.518 69.635 73.2441 62.909C77.9695 56.1832 80.5049 48.1629 80.5033 39.9432C80.5095 29.8829 76.7035 20.1929 69.8528 12.8263L69.8538 12.8254Z" fill="black"/>
<path d="M31.6256 58.0001C34.1366 58.1048 35.5519 56.9753 36.798 55.7276L35.7587 53.2178C35.6868 53.2919 35.6133 53.3671 35.5436 53.439C34.2581 54.7697 33.4801 55.571 31.7215 55.5058C31.1286 55.4673 30.5407 55.372 29.9662 55.2227C29.5761 56.0134 29.1002 56.7591 28.5469 57.4461C28.6071 57.4611 28.6656 57.4756 28.7263 57.4907L28.7269 57.4901C29.6731 57.7592 30.6443 57.9298 31.6256 58L31.6256 58.0001Z" fill="black"/>
<path d="M48.7411 10.7671C48.5131 12.6573 48.8636 14.572 49.7463 16.2587C50.629 17.9454 52.002 19.3252 53.6848 20.2156L56.884 27.939C57.0768 28.4049 57.5321 28.7091 58.0369 28.7091C58.5418 28.7091 58.997 28.4049 59.1898 27.939L62.389 20.215L62.3895 20.2145C65.3111 18.6977 67.2252 15.7616 67.4336 12.4755C67.642 9.1901 66.1146 6.03504 63.4075 4.16157C60.7004 2.28753 57.2099 1.96827 54.2075 3.3207C51.2056 4.67257 49.1316 7.4983 48.741 10.7671L48.7411 10.7671ZM57.25 5.03702C57.5131 5.00748 57.7783 4.99244 58.043 4.99244C59.7264 4.98742 61.3513 5.60986 62.6001 6.7388C64.3336 8.29187 65.1701 10.6127 64.8262 12.9147C64.4822 15.2167 63.004 17.1914 60.8926 18.1706C60.6073 18.3021 60.3822 18.5362 60.2618 18.8265L58.0367 24.1988L55.8116 18.8265C55.6913 18.5362 55.4661 18.3021 55.1808 18.1706C53.348 17.3236 51.9773 15.7177 51.4289 13.7752C50.88 11.8321 51.2088 9.74636 52.3283 8.06619C53.4472 6.38616 55.2454 5.27946 57.2498 5.03709L57.25 5.03702Z" fill="black"/>
<path d="M58.0361 15.6034C59.0291 15.6034 59.982 15.2089 60.684 14.5068C61.386 13.8046 61.7807 12.8517 61.7807 11.8588C61.7807 10.866 61.3861 9.9129 60.684 9.2109C59.9819 8.50891 59.029 8.11426 58.0361 8.11426C57.0432 8.11426 56.0901 8.50878 55.3882 9.2109C54.6862 9.91303 54.2915 10.866 54.2915 11.8588C54.2926 12.8518 54.6877 13.8036 55.3893 14.5058C56.0914 15.2073 57.0432 15.6024 58.0362 15.6035L58.0361 15.6034ZM58.0361 10.6105C58.5409 10.6105 58.9962 10.9148 59.189 11.3812C59.3824 11.8476 59.2759 12.3842 58.9188 12.7414C58.5616 13.0986 58.0249 13.2051 57.5585 13.0117C57.0921 12.8189 56.7879 12.3636 56.7879 11.8588C56.7884 11.1695 57.3468 10.6111 58.0361 10.6105Z" fill="black"/>
<path d="M55.6058 45.7176C55.3779 47.6077 55.7284 49.5224 56.6111 51.2091C57.4937 52.8959 58.8667 54.2756 60.5496 55.1661L63.7487 62.8895C63.9415 63.3553 64.3968 63.6596 64.9016 63.6596C65.4065 63.6596 65.8618 63.3553 66.0546 62.8895L69.2537 55.1655L69.2543 55.1649C72.1758 53.6481 74.0899 50.712 74.2984 47.426C74.5068 44.1405 72.9794 40.9855 70.2722 39.112C67.5651 37.238 64.0747 36.9187 61.0722 38.2711C58.0704 39.623 55.9964 42.4487 55.6058 45.7175L55.6058 45.7176ZM64.9078 39.9429C66.5912 39.9379 68.2161 40.5604 69.4649 41.6887C71.1984 43.2424 72.0349 45.5632 71.691 47.8652C71.347 50.1672 69.8689 52.1419 67.7574 53.1211C67.4721 53.2526 67.247 53.4867 67.1266 53.777L64.9015 59.1493L62.6764 53.777C62.5561 53.4867 62.3309 53.2526 62.0456 53.1211C60.2128 52.2741 58.8421 50.6682 58.2937 48.7257C57.7448 46.7826 58.0736 44.6969 59.1931 43.0167C60.312 41.3367 62.1102 40.23 64.1146 39.9876C64.3777 39.9581 64.6429 39.943 64.9076 39.943L64.9078 39.9429Z" fill="black"/>
<path d="M64.9008 50.5536C65.8938 50.5536 66.8468 50.1591 67.5488 49.457C68.2508 48.7548 68.6454 47.8019 68.6454 46.809C68.6454 45.8162 68.2509 44.8631 67.5488 44.1611C66.8466 43.4591 65.8937 43.0645 64.9008 43.0645C63.908 43.0645 62.9549 43.459 62.2529 44.1611C61.5509 44.8632 61.1562 45.8162 61.1562 46.809C61.1574 47.802 61.5524 48.7538 62.254 49.456C62.9561 50.1575 63.9079 50.5526 64.9009 50.5537L64.9008 50.5536ZM64.9008 45.5607C65.4057 45.5607 65.861 45.865 66.0538 46.3314C66.2471 46.7978 66.1407 47.3344 65.7835 47.6916C65.4263 48.0488 64.8897 48.1553 64.4233 47.9619C63.9569 47.7691 63.6526 47.3138 63.6526 46.809C63.6532 46.1197 64.2115 45.5613 64.9008 45.5607Z" fill="black"/>
<path d="M12.493 22.7119L15.6922 30.4353C15.885 30.9011 16.3402 31.2054 16.8451 31.2054C17.3499 31.2054 17.8052 30.9011 17.998 30.4353L21.1971 22.7113V22.7108C23.688 21.404 25.4595 19.0463 26.0222 16.2902C26.5851 13.5342 25.879 10.671 24.1003 8.49221C22.321 6.31347 19.6569 5.04956 16.8439 5.04956C14.031 5.05012 11.3668 6.3145 9.58816 8.49335C7.80941 10.6727 7.10399 13.5359 7.66733 16.2919C8.23014 19.048 10.0021 21.4046 12.493 22.7119V22.7119ZM10.029 13.5525C10.2145 12.0184 10.9094 10.5919 12.0027 9.50033C13.096 8.40871 14.5242 7.71602 16.0583 7.53328C16.3214 7.50375 16.5866 7.48871 16.8513 7.48871C18.5347 7.48369 20.1596 8.10612 21.4084 9.23507C23.1419 10.7881 23.9784 13.109 23.6345 15.411C23.2905 17.713 21.8123 19.6877 19.7009 20.6669C19.4156 20.7984 19.1905 21.0324 19.0701 21.3228L16.845 26.6951L14.6199 21.3228C14.4996 21.0324 14.2744 20.7984 13.9891 20.6669C12.6612 20.0517 11.5629 19.0319 10.8513 17.7536C10.1398 16.4753 9.85164 15.0047 10.0288 13.5526L10.029 13.5525Z" fill="black"/>
<path d="M16.8452 18.1C17.8382 18.1 18.7911 17.7055 19.4931 17.0034C20.1951 16.3012 20.5897 15.3483 20.5897 14.3554C20.5897 13.3626 20.1952 12.4095 19.4931 11.7075C18.791 11.0055 17.838 10.6108 16.8452 10.6108C15.8523 10.6108 14.8992 11.0054 14.1972 11.7075C13.4952 12.4096 13.1006 13.3626 13.1006 14.3554C13.1017 15.3484 13.4968 16.3002 14.1983 17.0024C14.9005 17.7039 15.8523 18.099 16.8453 18.1001L16.8452 18.1ZM16.8452 13.1071C17.35 13.1071 17.8053 13.4114 17.9981 13.8778C18.1915 14.3442 18.085 14.8808 17.7278 15.238C17.3706 15.5952 16.834 15.7016 16.3676 15.5083C15.9012 15.3155 15.5969 14.8602 15.5969 14.3553C15.5975 13.666 16.1559 13.1077 16.8452 13.1071Z" fill="black"/>
<path d="M40.657 58.5207C40.8498 58.9866 41.3051 59.2908 41.8099 59.2908C42.3148 59.2908 42.7701 58.9866 42.9628 58.5207L46.162 50.7968V50.7962C48.6529 49.4895 50.4243 47.1317 50.9871 44.3757C51.5499 41.6196 50.8439 38.7564 49.0651 36.5777C47.2858 34.3989 44.6218 33.135 41.8088 33.135C38.9958 33.1356 36.3316 34.3999 34.553 36.5788C32.7743 38.7581 32.0688 41.6213 32.6322 44.3774C33.195 47.1334 34.967 49.4901 37.4578 50.7973L40.657 58.5207ZM34.9938 41.6377C35.1794 40.1036 35.8742 38.6771 36.9676 37.5855C38.0609 36.4939 39.4891 35.8012 41.0232 35.6184C41.2862 35.5889 41.5514 35.5739 41.8161 35.5739C43.4996 35.5689 45.1244 36.1913 46.3732 37.3202C48.1067 38.8733 48.9432 41.1941 48.5993 43.4961C48.2554 45.7981 46.7772 47.7729 44.6658 48.752C44.3805 48.8836 44.1554 49.1176 44.035 49.4079L41.8099 54.7802L39.5848 49.4079C39.4644 49.1176 39.2393 48.8836 38.954 48.752C37.6261 48.1368 36.5277 47.1171 35.8162 45.8388C35.1046 44.5605 34.8165 43.0898 34.9937 41.6378L34.9938 41.6377Z" fill="black"/>
<path d="M41.8095 46.184C42.8025 46.184 43.7555 45.7895 44.4575 45.0873C45.1595 44.3852 45.5541 43.4323 45.5541 42.4394C45.5541 41.4465 45.1596 40.4935 44.4575 39.7915C43.7553 39.0895 42.8024 38.6948 41.8095 38.6948C40.8167 38.6948 39.8636 39.0893 39.1616 39.7915C38.4596 40.4936 38.0649 41.4465 38.0649 42.4394C38.0661 43.4324 38.4611 44.3842 39.1627 45.0863C39.8648 45.7879 40.8166 46.183 41.8096 46.1841L41.8095 46.184ZM41.8095 41.1911C42.3144 41.1911 42.7697 41.4954 42.9624 41.9618C43.1558 42.4282 43.0494 42.9648 42.6922 43.322C42.335 43.6792 41.7984 43.7856 41.332 43.5923C40.8656 43.3994 40.5613 42.9442 40.5613 42.4393C40.5619 41.75 41.1202 41.1917 41.8095 41.1911Z" fill="black"/>
<path d="M18.2788 40.6263C15.6047 40.9428 13.1945 42.3899 11.6583 44.6016C10.1221 46.8133 9.60708 49.5772 10.244 52.1935C10.8809 54.8097 12.6089 57.0282 14.9895 58.2864L18.1887 66.0097C18.3815 66.4756 18.8367 66.7798 19.3416 66.7798C19.8464 66.7798 20.3017 66.4756 20.4945 66.0097L23.6937 58.2858V58.2852C26.2988 56.9155 28.1115 54.4041 28.5918 51.5003C29.0716 48.5966 28.1638 45.6354 26.1383 43.5001C24.1133 41.3641 21.2045 40.3009 18.279 40.6263L18.2788 40.6263ZM23.9048 44.8095C25.6383 46.3625 26.4748 48.6834 26.1309 50.9854C25.787 53.2874 24.3088 55.2621 22.1974 56.2413C21.9121 56.3728 21.687 56.6068 21.5666 56.8972L19.3415 62.2695L17.1164 56.8972C16.996 56.6068 16.7709 56.3728 16.4856 56.2413C14.6528 55.3943 13.282 53.7883 12.7336 51.8458C12.1848 49.9028 12.5135 47.817 13.633 46.1369C14.752 44.4568 16.5501 43.3501 18.5546 43.1077C18.8176 43.0782 19.0828 43.0632 19.3475 43.0632C21.031 43.0582 22.6558 43.6806 23.9046 44.8095L23.9048 44.8095Z" fill="black"/>
<path d="M15.5973 49.9287C15.5973 50.9217 15.9918 51.8746 16.6939 52.5766C17.3961 53.2786 18.349 53.6732 19.3419 53.6732C20.3347 53.6732 21.2878 53.2787 21.9898 52.5766C22.6918 51.8745 23.0864 50.9215 23.0864 49.9287C23.0864 48.9358 22.6919 47.9827 21.9898 47.2807C21.2877 46.5787 20.3347 46.1841 19.3419 46.1841C18.3489 46.1852 17.3971 46.5803 16.6949 47.2818C15.9934 47.984 15.5983 48.9358 15.5972 49.9288L15.5973 49.9287ZM19.3419 48.6804C19.8468 48.6804 20.3021 48.9847 20.4949 49.4511C20.6882 49.9175 20.5818 50.4541 20.2246 50.8113C19.8674 51.1685 19.3308 51.275 18.8644 51.0816C18.398 50.8888 18.0937 50.4335 18.0937 49.9287C18.0943 49.2394 18.6526 48.681 19.3419 48.6804Z" fill="black"/>
<g style="mix-blend-mode:multiply">
<path d="M84.3326 11.8589H74.6426C74.2229 11.8673 73.8121 11.9818 73.4484 12.1916C73.0848 12.4014 72.7801 12.6997 72.5627 13.0589L67.7527 21.3889C67.5557 21.7582 67.4526 22.1703 67.4526 22.5889C67.4526 23.0074 67.5557 23.4196 67.7527 23.7889L72.5627 32.1189C72.7669 32.4896 73.0687 32.7974 73.4353 33.0089C73.8019 33.2204 74.2195 33.3276 74.6426 33.3189H84.2527C84.6744 33.3202 85.089 33.2098 85.4543 32.9991C85.8196 32.7883 86.1227 32.4846 86.3326 32.1189L91.1426 23.7889C91.3396 23.4196 91.4426 23.0074 91.4426 22.5889C91.4426 22.1703 91.3396 21.7582 91.1426 21.3889L86.3326 13.0589C86.1318 12.7027 85.8418 12.4049 85.4912 12.1945C85.1406 11.9842 84.7414 11.8685 84.3326 11.8589Z" fill="#FF1241"/>
</g>
</svg>
