<svg width="101" height="74" viewBox="0 0 101 74" fill="none" xmlns="http://www.w3.org/2000/svg">
<path d="M84.9908 18.0708H85.5408V17.5208V9.48512C85.5408 6.93137 83.6874 5.07798 81.1337 5.07798H9.77651C8.63334 5.07798 7.53622 5.64403 6.73581 6.44443C5.93541 7.24483 5.36936 8.34196 5.36936 9.48512V17.5208V18.0708H5.91936H84.9908ZM5.91936 22.4351H5.36936V22.9851V64.128C5.36936 66.6817 7.22275 68.5351 9.77651 68.5351H81.1337C82.279 68.5351 83.3803 67.9669 84.1847 67.1178C84.9924 66.2653 85.5408 65.0892 85.5408 63.8066V22.9851V22.4351H84.9908H5.91936ZM9.77651 0.713696H81.1337C85.9728 0.713696 89.9051 4.64602 89.9051 9.48512V64.128C89.9051 68.9671 85.9728 72.8994 81.1337 72.8994H9.77651C4.93741 72.8994 1.00508 68.9671 1.00508 64.128V9.48512C1.00508 4.64602 4.93741 0.713696 9.77651 0.713696ZM10.9693 10.9993H15.0121V13.4351H10.9693V10.9993ZM19.9689 10.9993H24.0118V13.4351H19.9689V10.9993ZM28.6484 10.9993H32.6912V13.4351H28.6484V10.9993ZM13.8628 55.2137H75.1199V59.578H13.8628V55.2137Z" fill="black" stroke="white" stroke-width="1.1"/>
<rect x="16.3193" y="30.2852" width="41.5" height="18.25" stroke="black" stroke-width="3"/>
<path d="M42.6484 39.4102L34.2798 44.2418L34.2798 34.5785L42.6484 39.4102Z" fill="black"/>
<g style="mix-blend-mode:multiply">
<path d="M93.3737 26.4756H83.6837C83.2639 26.484 82.8531 26.5985 82.4894 26.8083C82.1258 27.0181 81.8211 27.3164 81.6037 27.6756L76.7937 36.0056C76.5967 36.3749 76.4937 36.787 76.4937 37.2056C76.4937 37.6241 76.5967 38.0363 76.7937 38.4056L81.6037 46.7356C81.8079 47.1063 82.1097 47.4141 82.4763 47.6256C82.843 47.8371 83.2605 47.9443 83.6837 47.9356H93.2937C93.7154 47.9369 94.13 47.8265 94.4953 47.6158C94.8606 47.405 95.1637 47.1013 95.3737 46.7356L100.184 38.4056C100.381 38.0363 100.484 37.6241 100.484 37.2056C100.484 36.787 100.381 36.3749 100.184 36.0056L95.3737 27.6756C95.1728 27.3194 94.8829 27.0216 94.5323 26.8112C94.1817 26.6009 93.7824 26.4852 93.3737 26.4756Z" fill="#FF1241"/>
</g>
</svg>
