<svg width="101" height="71" viewBox="0 0 101 71" fill="none" xmlns="http://www.w3.org/2000/svg">
<path d="M7.37884 56.1598H7.62884V55.9098V7.67386C7.63583 5.75274 8.40121 3.91211 9.75843 2.55243C11.1156 1.19281 12.9547 0.424122 14.8757 0.413574H83.4947C85.4158 0.420586 87.2564 1.18595 88.6161 2.54316C89.9759 3.90047 90.7446 5.73988 90.755 7.66113V55.9098V56.1598H91.005H95.2916C95.7875 56.1786 96.2583 56.3832 96.6103 56.733C96.9622 57.0827 97.1698 57.5518 97.1919 58.0473V62.332C97.1815 64.539 96.3001 66.6527 94.7395 68.2134C93.1788 69.774 91.0652 70.6554 88.8581 70.6658H9.5121C7.30637 70.6553 5.19416 69.7736 3.63569 68.2127C2.07732 66.6518 1.19893 64.5384 1.19189 62.3328V58.0487C1.21976 57.5548 1.42926 57.0886 1.78024 56.7399C2.13141 56.3909 2.59923 56.1843 3.09353 56.1598H7.37884ZM86.7136 56.1598H86.9636V55.9098V7.67544C86.9713 7.21796 86.8868 6.76361 86.7154 6.33938C86.5437 5.91446 86.2882 5.52846 85.9641 5.20439C85.6401 4.88031 85.254 4.62481 84.8291 4.4531C84.4049 4.28166 83.9506 4.19725 83.4931 4.20488H15.125V4.19559L14.8793 4.19133C14.4211 4.1834 13.966 4.2678 13.5411 4.43952C13.1162 4.61123 12.7301 4.86673 12.4061 5.19081C12.082 5.51488 11.8265 5.90088 11.6548 6.3258C11.4833 6.75005 11.3989 7.20442 11.4066 7.66192V55.9098V56.1598H11.6566H86.7136ZM5.21961 60.0326H4.96802L4.96961 60.2841L4.98319 62.427C4.97391 63.0244 5.08437 63.6176 5.30811 64.1716C5.53221 64.7265 5.8654 65.2308 6.28788 65.6546C6.71036 66.0785 7.21357 66.4132 7.76775 66.6391C8.32138 66.8647 8.9146 66.9771 9.51238 66.9695H88.8578C89.4562 66.977 90.05 66.8647 90.6043 66.6393C91.1591 66.4137 91.6632 66.0792 92.0867 65.6557C92.5103 65.2321 92.8447 64.7281 93.0704 64.1732C93.2958 63.6189 93.4081 63.0251 93.4006 62.4268V60.2826V60.0326H93.1506H5.21961Z" fill="black" stroke="white" stroke-width="0.5"/>
<path d="M63.0437 13.6691C62.516 13.6691 62.1202 14.1308 62.1202 14.6585C62.1202 15.1862 62.5819 15.5819 63.1096 15.5819H65.6161L58.8222 22.3099C58.4264 22.6397 58.4264 23.2333 58.7562 23.6291C59.086 24.0248 59.6797 24.0248 60.0754 23.695L66.8034 16.9671V19.3416C66.8034 19.8693 67.1992 20.2651 67.7268 20.2651C68.2545 20.2651 68.6503 19.8693 68.6503 19.3416V14.6585C68.6503 14.1308 68.2545 13.735 67.7268 13.735H62.9777C63.1096 13.6691 63.0437 13.6691 63.0437 13.6691ZM29.4039 17.9565C28.9421 18.0225 28.5464 18.4182 28.5464 18.8799V47.3748C28.5464 47.9025 28.9421 48.2983 29.4698 48.2983H32.6359H68.9141C69.4418 48.2983 69.8376 47.9025 69.8376 47.3748C69.8376 46.8471 69.4418 46.4513 68.9141 46.4513H32.6359H30.3933V18.8799C30.3933 18.3522 29.9975 17.9565 29.4698 17.8905C29.4698 17.9565 29.4039 17.9565 29.4039 17.9565ZM37.451 22.3099C36.9893 22.3758 36.5935 22.7716 36.6595 23.2333V41.1745C36.6595 41.7022 37.0553 42.098 37.583 42.098C38.1106 42.098 38.5064 41.7022 38.5064 41.1745V23.2333C38.5064 22.7056 38.1106 22.3099 37.583 22.2439C37.517 22.3099 37.451 22.3099 37.451 22.3099ZM53.5454 22.3099C53.0836 22.3758 52.6879 22.7716 52.6879 23.2333V41.1745C52.6879 41.7022 53.0836 42.098 53.6113 42.098C54.139 42.098 54.5348 41.7022 54.5348 41.1745V23.2333C54.5348 22.7056 54.139 22.3099 53.6113 22.2439C53.6773 22.3099 53.6113 22.3099 53.5454 22.3099ZM45.6301 27.7846C45.1024 27.7846 44.7067 28.2463 44.7067 28.708V41.1745C44.7067 41.7022 45.1024 42.098 45.6301 42.098C46.1578 42.098 46.5536 41.7022 46.5536 41.1745V28.708C46.5536 28.1803 46.1578 27.7846 45.6301 27.7846ZM61.7244 27.7846C61.1968 27.7846 60.801 28.2463 60.801 28.708V41.1745C60.801 41.7022 61.1968 42.098 61.7244 42.098C62.2521 42.098 62.6479 41.7022 62.6479 41.1745V28.708C62.7139 28.1803 62.2521 27.7846 61.7244 27.7846Z" fill="black" stroke="black" stroke-miterlimit="10"/>
<g style="mix-blend-mode:multiply">
<path d="M93.0011 9.52319H83.3111C82.8913 9.53164 82.4805 9.64608 82.1169 9.85588C81.7532 10.0657 81.4485 10.364 81.2311 10.7232L76.4211 19.0532C76.2241 19.4225 76.1211 19.8346 76.1211 20.2532C76.1211 20.6717 76.2241 21.0839 76.4211 21.4532L81.2311 29.7832C81.4354 30.1539 81.7371 30.4617 82.1038 30.6732C82.4704 30.8848 82.8879 30.9919 83.3111 30.9832H92.9211C93.3429 30.9845 93.7574 30.8742 94.1227 30.6634C94.4881 30.4526 94.7911 30.1489 95.0011 29.7832L99.8111 21.4532C100.008 21.0839 100.111 20.6717 100.111 20.2532C100.111 19.8346 100.008 19.4225 99.8111 19.0532L95.0011 10.7232C94.8002 10.3671 94.5103 10.0692 94.1597 9.85886C93.8091 9.64849 93.4099 9.53283 93.0011 9.52319Z" fill="#FF1241"/>
</g>
</svg>
