<svg width="97" height="89" viewBox="0 0 97 89" fill="none" xmlns="http://www.w3.org/2000/svg">
<path d="M92.9172 74.1174H92.3288V24.1472C92.3288 21.2775 90.0014 18.9429 87.1416 18.9429H69.4564C67.0177 12.8708 60.1503 -0.263866 54.1567 2.23945C53.5511 2.49446 53.0358 2.90103 52.5812 3.48747C47.6477 9.87515 42.7386 14.9305 37.595 18.9428H17.2395C14.3797 18.9428 12.0524 21.2774 12.0524 24.1471V74.1173H11.4659C9.35275 74.1173 7.63281 75.8364 7.63281 77.9491C7.63281 84.3039 12.6408 88.9158 19.5384 88.9158H84.844C96.0064 88.9158 100.669 74.1174 92.9172 74.1174ZM55.6356 5.51232C57.4352 5.51232 62.1228 10.5373 65.8893 19.6234C69.2426 27.7809 70.2475 36.2003 68.6481 36.8767C68.6317 36.8833 53.4774 34.6962 40.1906 37.6114L35.0021 25.1673C47.7663 16.9695 55.0185 5.61817 55.6342 5.5119L55.6356 5.51232ZM31.7967 27.1043C31.8382 27.0819 31.8784 27.0588 31.9199 27.0364L36.6887 38.4749C33.4165 39.3764 28.9772 41.1858 27.3701 41.931V41.929C27.2462 41.9712 27.1296 42.0127 27.036 42.0536C26.4878 42.2809 25.8769 42.0068 25.6555 41.4829L22.0215 32.752C21.2591 30.9221 24.2552 31.388 31.7967 27.1043ZM30.6647 44.4065C31.178 44.1911 31.6735 43.9967 32.1736 43.7983C33.7794 43.1651 34.4878 42.9167 35.21 42.6788L39.4569 50.9939C40.1514 52.6709 42.2298 53.5018 43.8763 52.8198C44.0852 52.7361 44.3969 52.7789 44.468 52.8C44.6822 52.8949 44.8351 53.0531 44.926 53.2665C45.0512 53.5769 44.9728 53.7568 44.9207 53.8767C44.8456 54.0652 44.6907 54.2207 44.5062 54.2978L37.42 57.2194L30.6113 44.4289C30.6298 44.421 30.6462 44.4138 30.6647 44.4065ZM15.6159 24.1472C15.6159 23.2431 16.3434 22.5078 17.2382 22.5078H32.5071C22.9849 28.4481 20.1342 27.2079 18.7294 30.5449C18.249 31.6901 18.2471 32.9579 18.7294 34.119L22.3673 42.8572C23.0915 44.5856 24.7638 45.7018 26.6267 45.7018C26.823 45.7018 27.0214 45.6675 27.219 45.6411L34.298 58.9364C34.8601 60.0895 36.052 60.8355 37.3351 60.8355C37.7983 60.8355 38.249 60.7413 38.6457 60.5693L45.8709 57.5903C46.943 57.1428 47.8029 56.2711 48.2048 55.259C48.6681 54.2126 48.6766 53.0273 48.2187 51.903C47.7699 50.8368 46.9463 49.996 45.8063 49.4971C44.7586 49.1084 43.6029 49.1038 42.6751 49.4721L38.6872 41.6513C48.1264 39.1098 58.3578 39.2178 68.0151 40.4494C74.9372 41.0576 72.9941 29.2237 70.774 22.5078H87.1406C88.0354 22.5078 88.7629 23.2432 88.7629 24.1472V74.0719L15.615 74.0726L15.6159 24.1472ZM84.8435 85.352H19.5362C14.6259 85.352 11.1955 82.3084 11.1955 77.9502C11.1955 77.7927 11.3055 77.6833 11.4636 77.6833C98.2988 77.8112 93.1842 77.4263 93.1842 77.9502C93.1842 81.5314 89.369 85.352 84.8435 85.352Z" fill="black"/>
<path d="M74.9047 3.06231C75.592 2.35725 75.5782 1.22986 74.8731 0.541953C74.17 -0.144655 73.042 -0.132796 72.3528 0.571604C69.8771 3.63766 65.6112 5.81744 67.7177 7.87121C69.8191 9.92515 71.8645 5.63884 74.9047 3.06231Z" fill="black"/>
<path d="M74.7411 17.5718L84.067 13.3796C84.9651 12.9756 85.3651 11.9207 84.9618 11.0225C84.5559 10.1244 83.5016 9.72308 82.6048 10.1277L73.2789 14.3199C71.1268 15.2885 72.5904 18.5365 74.7411 17.5718Z" fill="black"/>
<path d="M84.25 24.8591L77.26 24.7793H77.2389C76.2643 24.7793 75.467 25.5641 75.4565 26.5413C75.446 27.5257 76.2347 28.3322 77.2178 28.3435L84.2079 28.4233H84.2289C85.2035 28.4233 86.0008 27.6385 86.0113 26.6606C86.0218 25.6775 85.2337 24.8704 84.25 24.8591Z" fill="black"/>
<path d="M70.8048 52.9529H55.8418C55.6694 52.9529 55.5041 52.8843 55.3822 52.7622C55.2604 52.64 55.1919 52.4743 55.1919 52.3015C55.1919 52.1288 55.2604 51.9631 55.3822 51.8409C55.5041 51.7188 55.6694 51.6501 55.8418 51.6501H70.8048C70.9771 51.6501 71.1424 51.7188 71.2643 51.8409C71.3862 51.9631 71.4546 52.1288 71.4546 52.3015C71.4546 52.4743 71.3862 52.64 71.2643 52.7622C71.1424 52.8843 70.9771 52.9529 70.8048 52.9529V52.9529Z" fill="black" stroke="black" stroke-width="1.2"/>
<path d="M70.8048 48.3892H55.8418C55.6694 48.3892 55.5041 48.3206 55.3822 48.1984C55.2604 48.0763 55.1919 47.9106 55.1919 47.7378C55.1919 47.5651 55.2604 47.3994 55.3822 47.2772C55.5041 47.1551 55.6694 47.0864 55.8418 47.0864H70.8048C70.9771 47.0864 71.1424 47.1551 71.2643 47.2772C71.3862 47.3994 71.4546 47.5651 71.4546 47.7378C71.4546 47.9106 71.3862 48.0763 71.2643 48.1984C71.1424 48.3206 70.9771 48.3892 70.8048 48.3892Z" fill="black" stroke="black" stroke-width="1.2"/>
<path d="M64.6067 57.5169H55.8418C55.6694 57.5169 55.5041 57.4483 55.3822 57.3261C55.2604 57.204 55.1919 57.0383 55.1919 56.8655C55.1919 56.6927 55.2604 56.5271 55.3822 56.4049C55.5041 56.2827 55.6694 56.2141 55.8418 56.2141H64.6067C64.6921 56.2141 64.7766 56.231 64.8554 56.2637C64.9343 56.2964 65.0059 56.3444 65.0663 56.4049C65.1266 56.4654 65.1745 56.5372 65.2071 56.6162C65.2398 56.6953 65.2566 56.78 65.2566 56.8655C65.2566 56.951 65.2398 57.0358 65.2071 57.1148C65.1745 57.1938 65.1266 57.2656 65.0663 57.3261C65.0059 57.3866 64.9343 57.4346 64.8554 57.4673C64.7766 57.5001 64.6921 57.5169 64.6067 57.5169V57.5169Z" fill="black" stroke="black" stroke-width="1.2"/>
<path d="M83.5865 44.6314C83.5147 44.5694 83.4302 44.5241 83.3389 44.4988C83.2476 44.4735 83.1518 44.4687 83.0585 44.4848L75.252 45.7876C75.1003 45.8135 74.9625 45.8922 74.863 46.0099C74.7634 46.1275 74.7085 46.2766 74.7078 46.4309V60.3057C74.1642 59.915 73.5289 59.6723 72.8638 59.6013C71.6401 59.4995 70.4145 59.7748 69.3511 60.3904C68.2877 61.0059 67.4372 61.9323 66.9135 63.0456C66.6565 63.5438 66.5284 64.0986 66.5409 64.6593C66.5533 65.22 66.706 65.7686 66.9849 66.2548C67.2638 66.741 67.66 67.1493 68.1372 67.4421C68.6144 67.735 69.1572 67.9031 69.716 67.9311C69.9101 67.9555 70.1054 67.9677 70.3009 67.9677C71.3311 67.9565 72.3406 67.6758 73.2294 67.1535C74.3065 66.554 75.1614 65.6214 75.6663 64.495C75.8858 63.9985 76.0019 63.4624 76.0075 62.9194V50.897L83.2738 49.6757C83.4251 49.6497 83.5624 49.5708 83.6613 49.4531C83.7601 49.3353 83.8142 49.1863 83.8139 49.0324V45.1199C83.8147 45.0255 83.7948 44.932 83.7555 44.8462C83.7162 44.7603 83.6585 44.6842 83.5865 44.6233V44.6314ZM74.4722 63.9576C74.0594 64.8114 73.4007 65.5216 72.5811 65.9963C71.7614 66.4709 70.8186 66.6882 69.8745 66.6202C69.5189 66.6151 69.1708 66.5177 68.8641 66.3375C68.5574 66.1572 68.3025 65.9003 68.1245 65.5918C67.9465 65.2833 67.8513 64.9338 67.8484 64.5774C67.8454 64.2211 67.9348 63.87 68.1076 63.5586C68.5069 62.6958 69.1698 61.9828 70.0004 61.523C70.6895 61.1127 71.4735 60.8895 72.2749 60.8756C72.4201 60.8755 72.5652 60.8837 72.7095 60.9001C73.0646 60.9058 73.4123 61.0037 73.7184 61.1842C74.0246 61.3648 74.2789 61.6217 74.4564 61.9301C74.634 62.2385 74.7288 62.5877 74.7315 62.9438C74.7343 63.2998 74.6449 63.6505 74.4722 63.9616V63.9576ZM82.5142 48.4869L76.0156 49.5739V46.9846L82.5142 45.8976V48.4869Z" fill="black" stroke="black" stroke-width="1.2"/>
<g style="mix-blend-mode:multiply">
<path d="M16.9147 46.6503H7.22467C6.80492 46.6587 6.39411 46.7732 6.03046 46.983C5.6668 47.1928 5.36211 47.4911 5.14468 47.8503L0.334686 56.1803C0.137717 56.5496 0.034668 56.9617 0.034668 57.3803C0.034668 57.7988 0.137717 58.2109 0.334686 58.5803L5.14468 66.9103C5.34893 67.281 5.6507 67.5888 6.01733 67.8003C6.38397 68.0118 6.80149 68.119 7.22467 68.1103H16.8347C17.2564 68.1116 17.671 68.0012 18.0363 67.7905C18.4016 67.5797 18.7047 67.276 18.9147 66.9103L23.7247 58.5803C23.9216 58.2109 24.0247 57.7988 24.0247 57.3803C24.0247 56.9617 23.9216 56.5496 23.7247 56.1803L18.9147 47.8503C18.7138 47.4941 18.4239 47.1963 18.0733 46.9859C17.7227 46.7756 17.3234 46.6599 16.9147 46.6503V46.6503Z" fill="#FF1241"/>
</g>
</svg>
