<svg width="32" height="58" viewBox="0 0 32 58" fill="none" xmlns="http://www.w3.org/2000/svg">
<path d="M1.17129 2.86355C1.22941 2.26297 1.63303 1.75173 2.20347 1.55423C2.77337 1.35726 3.40624 1.51118 3.82333 1.94762L30.0542 28.1785C30.6488 28.7796 30.6488 29.7472 30.0542 30.3483L3.82333 56.5791C3.53757 56.88 3.14311 57.0527 2.72873 57.0586C2.31435 57.0651 1.9145 56.9047 1.62013 56.613C1.32523 56.3213 1.16002 55.9237 1.16163 55.5093C1.16378 55.0949 1.33223 54.6983 1.62928 54.4093L26.7745 29.2641L1.62928 4.11883C1.29455 3.79163 1.12612 3.33043 1.17132 2.86493L1.17129 2.86355Z" fill="white" stroke="white" stroke-width="1.5"/>
</svg>
