<svg width="32" height="58" viewBox="0 0 32 58" fill="none" xmlns="http://www.w3.org/2000/svg">
<path d="M30.3287 55.665C30.2706 56.2656 29.867 56.7768 29.2965 56.9743C28.7266 57.1713 28.0938 57.0174 27.6767 56.5809L1.44584 30.3501C0.851178 29.749 0.851178 28.7814 1.44584 28.1803L27.6767 1.94944C27.9624 1.64861 28.3569 1.47587 28.7713 1.46995C29.1856 1.46349 29.5855 1.62386 29.8799 1.91554C30.1748 2.20722 30.34 2.60491 30.3384 3.01929C30.3362 3.43366 30.1678 3.83028 29.8707 4.11927L4.72549 29.2645L29.8707 54.4097C30.2054 54.7369 30.3739 55.1981 30.3287 55.6636L30.3287 55.665Z" fill="white" stroke="white" stroke-width="1.5"/>
</svg>
