<svg width="64" height="37" viewBox="0 0 64 37" fill="none" xmlns="http://www.w3.org/2000/svg">
<path fill-rule="evenodd" clip-rule="evenodd" d="M42.5484 16.0057C41.9872 16.3472 41.3376 16.5195 40.6791 16.5016C39.4863 16.5162 38.2984 16.349 37.1571 16.0057C36.9463 15.9387 36.7298 15.8904 36.5103 15.8615C36.2971 15.8615 36.226 16.0057 36.226 16.2905V16.994C36.2297 17.1686 36.2786 17.3394 36.3681 17.4899C36.4857 17.6184 36.6334 17.7162 36.7982 17.7748C38.0284 18.2736 39.3501 18.5131 40.6791 18.4782C42.1895 18.4782 43.3374 18.1265 44.2721 17.4231C44.7181 17.0962 45.076 16.6656 45.314 16.1693C45.552 15.673 45.6629 15.1264 45.6368 14.5777C45.6661 13.8376 45.4378 13.11 44.99 12.5167C44.401 11.8911 43.6594 11.426 42.8363 11.1661L40.8248 10.3817C40.0322 10.0969 39.4565 9.81549 39.2433 9.5306C39.0975 9.39674 38.9831 9.23291 38.9082 9.05061C38.8333 8.86832 38.7997 8.672 38.8097 8.47545C38.8097 7.42031 39.6022 6.83999 41.2548 6.83999C42.1819 6.83745 43.1035 6.98233 43.9842 7.26908C44.2721 7.33942 44.4889 7.40976 44.5599 7.40976C44.7767 7.40976 44.9153 7.26908 44.9153 6.98419V6.28076C44.9112 6.1062 44.8622 5.93556 44.7732 5.78484C44.7021 5.64064 44.5564 5.5703 44.3396 5.49995C43.3021 5.13826 42.2124 4.94467 41.1126 4.92666C39.9066 4.88584 38.7201 5.23529 37.7328 5.92201C37.3187 6.22551 36.9849 6.62353 36.7596 7.0822C36.5344 7.54087 36.4245 8.0466 36.4392 8.55635C36.4392 10.1918 37.3739 11.3982 39.2433 12.1122L41.3969 12.893C41.917 13.0606 42.3996 13.3257 42.8185 13.6738C42.9485 13.8041 43.0478 13.9612 43.1092 14.1338C43.1707 14.3065 43.1927 14.4905 43.1739 14.6727C43.1881 14.9333 43.1364 15.1933 43.0235 15.4291C42.9105 15.6649 42.7399 15.8691 42.5271 16.0232L42.5484 16.0057ZM50.2391 0.428236C49.9046 0.131734 49.4649 -0.0213216 49.0166 0.00266172C48.8052 -0.00980519 48.5936 0.0216181 48.3953 0.0949105C48.197 0.168203 48.0164 0.281743 47.8651 0.428236C47.725 0.566178 47.6147 0.730814 47.5408 0.912178C47.4669 1.09354 47.4309 1.28786 47.4351 1.48338C47.4241 1.6797 47.457 1.87601 47.5313 2.05836C47.6056 2.24071 47.7196 2.40464 47.8651 2.53852C48.1839 2.81292 48.5922 2.96404 49.0148 2.96404C49.4373 2.96404 49.8456 2.81292 50.1645 2.53852C50.305 2.40075 50.4159 2.23623 50.4904 2.05488C50.5649 1.87353 50.6016 1.67912 50.5981 1.48338C50.62 1.2925 50.5996 1.09917 50.5382 0.916919C50.4769 0.734665 50.376 0.567882 50.2427 0.428236H50.2391ZM49.8055 5.27837H48.2987C47.9433 5.27837 47.794 5.42258 47.794 5.77781V17.5884C47.794 17.9401 47.9397 18.0843 48.2987 18.0843H49.8055C50.1609 18.0843 50.3102 17.9436 50.3102 17.5884V5.76374C50.3182 5.69625 50.3106 5.62784 50.2881 5.56366C50.2655 5.49947 50.2286 5.44117 50.18 5.39312C50.1315 5.34507 50.0726 5.30852 50.0077 5.28621C49.9428 5.2639 49.8737 5.25641 49.8055 5.2643V5.27837ZM56.558 8.12374C57.2048 7.42031 58.2106 7.0686 59.6499 7.0686C60.355 7.05288 61.0581 7.14906 61.7325 7.35349C61.8694 7.40599 62.0158 7.42994 62.1625 7.42383C62.3793 7.42383 62.5179 7.28314 62.5179 6.9244V6.22097C62.5247 6.04495 62.4749 5.87134 62.3758 5.72505C62.2728 5.61258 62.1529 5.51649 62.0204 5.44016C61.1281 5.19828 60.2116 5.05439 59.2874 5.01107C57.2759 5.01107 55.769 5.58085 54.6176 6.79075C53.5514 7.9303 52.965 9.63611 52.965 11.7675C52.965 13.8989 53.4696 15.5379 54.5465 16.6915C55.6233 17.8451 57.1337 18.3973 59.1453 18.3973C60.1283 18.4312 61.1077 18.2611 62.0204 17.8979C62.1076 17.8825 62.1908 17.8495 62.2648 17.8012C62.3387 17.7528 62.4019 17.6899 62.4504 17.6165C62.52 17.4597 62.5446 17.2869 62.5215 17.1171V16.4136C62.5215 16.0619 62.3793 15.9142 62.1661 15.9142C62.0433 15.9101 61.9214 15.9354 61.8107 15.9881C61.0627 16.2026 60.2898 16.3208 59.5113 16.3398C58.1466 16.3398 57.1408 15.9881 56.494 15.2846C55.8472 14.5812 55.5593 13.4381 55.5593 11.9434V11.5916C55.6304 10.0265 55.9147 8.88696 56.5651 8.1765L56.558 8.12374ZM17.607 18.0808H19.1174C19.4728 18.0808 19.6185 17.9401 19.6185 17.5849V8.67945C19.6185 7.46955 19.3342 6.54454 18.6874 5.90442C18.3256 5.56124 17.8961 5.29569 17.4259 5.12442C16.9556 4.95314 16.4546 4.87983 15.9544 4.90907C14.1294 4.94825 12.3663 5.57141 10.9291 6.68523C10.3534 5.47533 9.27656 4.90556 7.69506 4.90556C6.11356 4.90556 4.53206 5.47533 2.95057 6.54103L2.80841 5.76022C2.81783 5.68597 2.80152 5.61075 2.76214 5.54686C2.72276 5.48297 2.66264 5.4342 2.59162 5.40851C2.48477 5.34553 2.35933 5.3207 2.23623 5.33816H1.09542C0.740022 5.33816 0.59431 5.47885 0.59431 5.83408V17.6411C0.59431 17.9928 0.736469 18.137 1.09542 18.137H2.60583C2.96123 18.137 3.11049 17.9964 3.11049 17.6411V8.03933C4.22819 7.3315 5.51926 6.93761 6.84567 6.89978C7.55645 6.89978 8.05992 7.11315 8.35608 7.5399C8.71002 8.09149 8.88489 8.73708 8.85719 9.38991V17.5884C8.85719 17.9401 9.0029 18.0843 9.36185 18.0843H10.8687C11.2241 18.0843 11.3734 17.9436 11.3734 17.5884V8.05692C12.4855 7.33736 13.78 6.94242 15.1085 6.91736C15.8193 6.91736 16.3311 7.13191 16.619 7.55748C16.9741 8.10868 17.1503 8.75429 17.1236 9.4075V17.5884C17.1236 17.9401 17.2658 18.0843 17.6247 18.0843L17.607 18.0808ZM31.2611 5.77077V15.2284C30.1849 15.9762 28.9114 16.3967 27.597 16.4383C26.8081 16.4383 26.2335 16.2249 25.8734 15.7981C25.518 15.3726 25.3687 14.743 25.3687 13.8074V5.76374C25.3687 5.41202 25.2266 5.2643 24.8676 5.2643H23.3572C23.0018 5.2643 22.8526 5.40851 22.8526 5.76374V14.5812C22.8526 15.7911 23.1404 16.7865 23.7872 17.4266C24.4341 18.0667 25.3687 18.4219 26.5913 18.4219C28.3626 18.3853 30.0754 17.7874 31.4779 16.7161L31.6201 17.5708C31.6143 17.6445 31.6321 17.7182 31.671 17.7813C31.7099 17.8445 31.768 17.8939 31.8369 17.9225C31.908 17.9928 32.0537 17.9928 32.2669 17.9928H33.3331C33.6885 17.9928 33.8342 17.8486 33.8342 17.4934V5.76374C33.8342 5.41202 33.692 5.2643 33.3331 5.2643H31.8227C31.3926 5.2643 31.2469 5.47885 31.2469 5.76374L31.2611 5.77077Z" fill="white"/>
<path fill-rule="evenodd" clip-rule="evenodd" d="M59.7957 34.2104C63.5309 31.0836 64.5402 24.6086 63.7476 23.6132C63.3923 23.1876 61.665 22.7621 59.5078 22.7621C57.2084 22.7621 54.479 23.258 52.3999 24.6824C51.7531 25.108 51.8988 25.6778 52.5457 25.6074C54.774 25.3226 59.8028 24.7528 60.7375 25.8888C61.6011 27.0284 59.7317 31.7237 58.8681 33.7848C58.6513 34.4249 59.156 34.6395 59.8028 34.2104H59.7957ZM56.7784 27.5278C49.1262 30.719 40.9153 32.3919 32.6117 32.4518C21.1147 32.4518 9.97673 29.3215 0.981743 24.1302C0.851016 24.0511 0.704113 24.0019 0.551721 23.986C0.0470638 23.986 -0.240803 24.5558 0.263854 25.0412C8.932 32.7904 20.2128 37.0553 31.8938 36.9995C40.6613 36.9995 50.7936 34.2983 57.7664 29.1773C58.9889 28.3227 57.9796 27.0424 56.7606 27.5419L56.7784 27.5278Z" fill="white"/>
</svg>
