<svg width="109" height="34" viewBox="0 0 109 34" fill="none" xmlns="http://www.w3.org/2000/svg">
<path d="M16.3641 5.22298e-06C13.1296 -0.00263024 9.96695 0.992161 7.27632 2.85854C4.58568 4.72492 2.48791 7.37904 1.24835 10.4851C0.00880003 13.5913 -0.316837 17.0098 0.312631 20.3084C0.9421 23.6069 2.49839 26.6373 4.78465 29.0161C7.0709 31.3949 9.98439 33.0153 13.1566 33.6724C16.3288 34.3294 19.6171 33.9935 22.6056 32.7072C25.5942 31.4209 28.1487 29.242 29.9459 26.4461C31.7432 23.6502 32.7025 20.3629 32.7025 17C32.7025 12.4936 30.9816 8.17163 27.9179 4.9839C24.8542 1.79616 20.6985 0.00353686 16.3641 5.22298e-06ZM23.8477 24.5274C23.7782 24.6458 23.6868 24.7488 23.5788 24.8304C23.4708 24.9119 23.3484 24.9705 23.2186 25.0027C23.0888 25.0349 22.9542 25.04 22.8224 25.0179C22.6907 24.9958 22.5644 24.9468 22.4509 24.8738C18.6066 22.4357 13.7884 21.8895 8.09875 23.2351C7.96829 23.2666 7.83312 23.2708 7.70108 23.2475C7.56905 23.2243 7.44276 23.174 7.32953 23.0997C7.2163 23.0253 7.11839 22.9284 7.04146 22.8144C6.96454 22.7004 6.91012 22.5717 6.88137 22.4357C6.84304 22.2966 6.83236 22.1508 6.85 22.0072C6.86763 21.8636 6.91321 21.7253 6.98396 21.6006C7.0547 21.476 7.14913 21.3676 7.26147 21.2821C7.37382 21.1966 7.50174 21.1358 7.63743 21.1035C13.8653 19.6246 19.1704 20.2641 23.5145 22.9953C23.6378 23.0687 23.7451 23.1679 23.8295 23.2867C23.914 23.4054 23.9738 23.5412 24.0051 23.6852C24.0364 23.8293 24.0386 23.9785 24.0115 24.1235C23.9844 24.2685 23.9286 24.406 23.8477 24.5274ZM25.8596 19.8911C25.682 20.1904 25.3978 20.4047 25.0689 20.487C24.7401 20.5694 24.3932 20.5132 24.104 20.3307C19.1403 17.457 13.2828 16.7479 7.81683 18.3589C7.49955 18.4371 7.16556 18.3865 6.88289 18.2175C6.60022 18.0486 6.39012 17.774 6.29538 17.4496C6.20064 17.1253 6.22839 16.7755 6.37297 16.4717C6.51756 16.1679 6.76811 15.9328 7.07359 15.8143C10.1228 14.9038 13.316 14.634 16.4666 15.0205C19.6173 15.4071 22.6623 16.4424 25.4239 18.0658C25.7083 18.2503 25.9119 18.5433 25.991 18.8821C26.07 19.2208 26.0183 19.5782 25.8468 19.8777L25.8596 19.8911ZM26.0262 15.0815C20.7594 11.8307 12.0712 11.5243 7.03515 13.1097C6.84422 13.1731 6.64301 13.1961 6.4434 13.1772C6.2438 13.1583 6.04986 13.0981 5.87305 13C5.69623 12.9018 5.54014 12.7678 5.41399 12.6059C5.28784 12.444 5.1942 12.2574 5.13861 12.0572C5.07822 11.8534 5.058 11.6391 5.07914 11.427C5.10029 11.2149 5.16237 11.0094 5.26166 10.8229C5.36096 10.6363 5.49543 10.4725 5.65704 10.3412C5.81865 10.2099 6.00407 10.1138 6.20221 10.0588C11.9815 8.23354 21.5796 8.59326 27.6408 12.337C27.9086 12.5837 28.0845 12.9204 28.1377 13.2883C28.1908 13.6562 28.1178 14.0318 27.9315 14.3494C27.7451 14.667 27.4573 14.9063 27.1184 15.0255C26.7794 15.1448 26.411 15.1363 26.0774 15.0016L26.0262 15.0815ZM44.479 15.7077C41.6598 15.0016 41.16 14.5086 41.16 13.4828C41.16 12.4569 42.0827 11.8307 43.3641 11.8307C44.7728 11.8878 46.124 12.4264 47.2085 13.3629C47.2308 13.3728 47.2547 13.3779 47.279 13.3779C47.3032 13.3779 47.3272 13.3728 47.3494 13.3629C47.3724 13.3624 47.395 13.3561 47.4151 13.3444C47.4352 13.3328 47.4522 13.3163 47.4648 13.2962L48.8487 11.2712C48.8802 11.2345 48.8977 11.1871 48.8977 11.1379C48.8977 11.0888 48.8802 11.0413 48.8487 11.0047C47.2982 9.70743 45.3536 9.02723 43.3641 9.08621C40.3143 9.08621 38.2384 10.9914 38.2384 13.7092C38.2384 16.627 40.0836 17.7061 43.2488 18.4522C45.9527 19.0917 46.4012 19.6379 46.4012 20.6105C46.4012 21.5831 45.4913 22.3558 44.0049 22.3558C42.3262 22.3372 40.7193 21.6451 39.5198 20.424C39.4785 20.4076 39.4329 20.4076 39.3917 20.424C39.3667 20.4234 39.342 20.4292 39.3197 20.4408C39.2973 20.4524 39.2781 20.4695 39.2635 20.4906L37.713 22.4091C37.6814 22.4457 37.664 22.4932 37.664 22.5423C37.664 22.5915 37.6814 22.6389 37.713 22.6756C39.4192 24.2799 41.6403 25.1637 43.9408 25.1536C47.2213 25.1536 49.3485 23.2884 49.3485 20.3973C49.3485 17.9593 47.9517 16.6136 44.5046 15.7477L44.479 15.7077ZM56.7424 12.8166C56.059 12.8047 55.3823 12.9586 54.7661 13.2662C54.1499 13.5738 53.6112 14.0266 53.1928 14.5886V13.2563C53.1928 13.2068 53.1739 13.1594 53.1403 13.1244C53.1066 13.0894 53.061 13.0698 53.0134 13.0698H50.4505C50.403 13.0698 50.3573 13.0894 50.3237 13.1244C50.29 13.1594 50.2711 13.2068 50.2711 13.2563V28.1646C50.2711 28.214 50.29 28.2615 50.3237 28.2965C50.3573 28.3314 50.403 28.3511 50.4505 28.3511H53.0134C53.061 28.3511 53.1066 28.3314 53.1403 28.2965C53.1739 28.2615 53.1928 28.214 53.1928 28.1646V23.4483C53.6278 23.9842 54.1719 24.4128 54.7859 24.7031C55.3998 24.9934 56.0681 25.1382 56.7424 25.127C59.395 25.127 62.0604 23.0086 62.0604 18.9585C62.0604 14.9083 59.395 12.8033 56.7424 12.8033V12.8166ZM59.1259 18.9718C59.1684 19.4054 59.1244 19.8435 58.9967 20.2587C58.869 20.6738 58.6603 21.0571 58.3837 21.3847C58.1072 21.7123 57.7686 21.977 57.3892 22.1624C57.0098 22.3479 56.5977 22.45 56.1786 22.4624C55.756 22.4474 55.3406 22.3439 54.9574 22.1579C54.5742 21.9719 54.2311 21.7074 53.9486 21.3802C53.6662 21.0529 53.4502 20.6697 53.3138 20.2536C53.1773 19.8375 53.1231 19.3969 53.1544 18.9585C53.123 18.5207 53.1773 18.0808 53.3139 17.6654C53.4506 17.25 53.6667 16.8677 53.9493 16.5415C54.2319 16.2153 54.5751 15.952 54.9583 15.7675C55.3414 15.583 55.7565 15.4811 56.1786 15.4679C56.5986 15.4806 57.0117 15.5826 57.3923 15.7678C57.773 15.9529 58.1131 16.2172 58.3917 16.5443C58.6702 16.8713 58.8814 17.2543 59.0121 17.6695C59.1428 18.0848 59.1902 18.5234 59.1516 18.9585L59.1259 18.9718ZM68.9931 12.8033C67.8242 12.8269 66.6882 13.209 65.7275 13.9016C64.7668 14.5942 64.0244 15.5664 63.5933 16.6962C63.1623 17.826 63.0619 19.063 63.3047 20.2519C63.5475 21.4408 64.1228 22.5287 64.9582 23.3789C65.7937 24.229 66.8521 24.8037 68.0005 25.0306C69.149 25.2576 70.3364 25.1267 71.4136 24.6545C72.4908 24.1823 73.4098 23.3897 74.0552 22.3763C74.7007 21.3629 75.0438 20.1739 75.0415 18.9585C75.0382 18.1399 74.8786 17.3301 74.5719 16.5761C74.2651 15.8222 73.8174 15.1391 73.2548 14.5664C72.6921 13.9938 72.0256 13.5431 71.294 13.2404C70.5624 12.9378 69.7803 12.7892 68.9931 12.8033ZM68.9931 22.4757C68.559 22.4728 68.13 22.3782 67.7322 22.1977C67.3343 22.0172 66.9759 21.7545 66.6787 21.4255C66.3815 21.0966 66.1517 20.7083 66.0032 20.2842C65.8548 19.8601 65.7908 19.4091 65.8151 18.9585C65.787 18.5122 65.8474 18.0648 65.9925 17.6438C66.1377 17.2228 66.3645 16.8374 66.6589 16.5113C66.9533 16.1853 67.3089 15.9256 67.7038 15.7484C68.0988 15.5712 68.5245 15.4802 68.9546 15.4812C69.3892 15.4842 69.8188 15.5787 70.2172 15.7591C70.6157 15.9395 70.975 16.202 71.2732 16.5307C71.5714 16.8594 71.8024 17.2476 71.9523 17.6717C72.1022 18.0958 72.1679 18.5472 72.1454 18.9984C72.1717 19.4453 72.1096 19.8931 71.963 20.3141C71.8163 20.7351 71.5883 21.1204 71.2929 21.4462C70.9975 21.7721 70.6411 22.0315 70.2455 22.2086C69.85 22.3856 69.4237 22.4765 68.9931 22.4757ZM82.3073 13.0431H79.4625V10.0854C79.4647 10.0557 79.4604 10.0258 79.45 9.99801C79.4397 9.9702 79.4234 9.94516 79.4025 9.92472C79.3817 9.90427 79.3566 9.88895 79.3293 9.87988C79.302 9.8708 79.273 9.8682 79.2446 9.87226H76.6817C76.6308 9.87226 76.5819 9.89331 76.5458 9.93079C76.5098 9.96827 76.4895 10.0191 76.4895 10.0721V13.0298H75.4003C75.3515 13.0297 75.3044 13.0489 75.2687 13.0835C75.233 13.1182 75.2113 13.1656 75.2081 13.2163V15.4679C75.2081 15.4941 75.213 15.5201 75.2227 15.5443C75.2324 15.5686 75.2465 15.5906 75.2644 15.6092C75.2822 15.6277 75.3034 15.6425 75.3267 15.6525C75.35 15.6625 75.375 15.6677 75.4003 15.6677H76.6049V21.5031C76.5376 21.9818 76.5779 22.4702 76.7226 22.93C76.8674 23.3897 77.1127 23.8083 77.4392 24.153C77.7657 24.4976 78.1646 24.7589 78.6046 24.9164C79.0446 25.0738 79.5137 25.1231 79.9751 25.0603C80.7801 25.1014 81.581 24.9173 82.2945 24.5274C82.3248 24.5143 82.3508 24.4921 82.369 24.4636C82.3872 24.4352 82.397 24.4018 82.397 24.3676V22.1426C82.3937 22.1109 82.384 22.0803 82.3686 22.0527C82.3531 22.0252 82.3322 22.0013 82.3073 21.9828C82.28 21.9664 82.2491 21.9578 82.2176 21.9578C82.1861 21.9578 82.1552 21.9664 82.1279 21.9828C81.6684 22.2295 81.1585 22.3575 80.6414 22.3558C79.8341 22.3558 79.4625 21.9694 79.4625 21.1035V15.681H82.2432C82.2942 15.681 82.3431 15.66 82.3791 15.6225C82.4152 15.585 82.4354 15.5342 82.4354 15.4812V13.2296C82.4354 13.1802 82.4165 13.1327 82.3829 13.0977C82.3492 13.0628 82.3036 13.0431 82.256 13.0431H82.3073ZM91.995 13.0431V12.6834C91.995 11.6176 92.3923 11.1379 93.2765 11.1379C93.7629 11.1419 94.2447 11.2367 94.6989 11.4177C94.7249 11.4307 94.7533 11.4375 94.7822 11.4375C94.811 11.4375 94.8395 11.4307 94.8655 11.4177C94.8883 11.3878 94.9018 11.3514 94.9041 11.3132C94.9064 11.2751 94.8974 11.2372 94.8783 11.2045V9.0196C94.8779 8.97859 94.8654 8.9387 94.8425 8.90534C94.8195 8.87197 94.7873 8.84674 94.7501 8.83307C94.0688 8.62093 93.3596 8.52201 92.6486 8.53997C90.3163 8.53997 89.0861 9.87226 89.0861 12.5368V13.0964H87.8047C87.7559 13.0963 87.7088 13.1155 87.6731 13.1501C87.6374 13.1848 87.6157 13.2323 87.6125 13.2829V15.5478C87.6125 15.6008 87.6327 15.6516 87.6688 15.6891C87.7048 15.7266 87.7537 15.7477 87.8047 15.7477H89.0861V24.7539C89.086 24.8047 89.1045 24.8536 89.1378 24.8907C89.1712 24.9278 89.2168 24.9504 89.2655 24.9538H91.8284C91.8794 24.9538 91.9283 24.9327 91.9643 24.8952C92.0004 24.8578 92.0206 24.8069 92.0206 24.7539V15.681H94.3785L97.9922 24.6873C97.5821 25.6332 97.1721 25.8198 96.621 25.8198C96.1293 25.8071 95.6488 25.665 95.2243 25.4067C95.202 25.3968 95.178 25.3917 95.1538 25.3917C95.1296 25.3917 95.1056 25.3968 95.0833 25.4067C95.0342 25.4275 94.9935 25.4651 94.968 25.5133L94.1222 27.4718C94.1114 27.4926 94.1047 27.5156 94.1028 27.5392C94.1008 27.5628 94.1035 27.5865 94.1107 27.609C94.1179 27.6315 94.1294 27.6522 94.1447 27.6698C94.1599 27.6875 94.1784 27.7017 94.1991 27.7116C95.018 28.1975 95.9473 28.446 96.8901 28.431C98.761 28.431 99.7862 27.5251 100.734 25.1003L105.117 13.3229C105.13 13.2959 105.136 13.2663 105.136 13.2363C105.136 13.2063 105.13 13.1767 105.117 13.1497C105.101 13.1224 105.078 13.0997 105.051 13.0834C105.024 13.0672 104.994 13.0579 104.963 13.0564H102.311C102.271 13.0547 102.231 13.0669 102.199 13.091C102.166 13.1151 102.143 13.1499 102.131 13.1897L99.4402 21.1834L96.4929 13.1897C96.4783 13.152 96.4537 13.1194 96.4219 13.0958C96.3901 13.0722 96.3525 13.0586 96.3135 13.0564L91.995 13.0431ZM86.3823 13.0431H83.8194C83.7706 13.043 83.7235 13.0622 83.6878 13.0969C83.6521 13.1315 83.6304 13.179 83.6272 13.2296V24.6873C83.6272 24.7403 83.6474 24.7911 83.6835 24.8286C83.7195 24.8661 83.7684 24.8871 83.8194 24.8871H86.3823C86.431 24.8838 86.4767 24.8612 86.51 24.8241C86.5433 24.787 86.5618 24.7381 86.5617 24.6873V13.2296C86.5617 13.2051 86.557 13.1809 86.548 13.1582C86.539 13.1356 86.5258 13.1151 86.5091 13.0977C86.4925 13.0804 86.4727 13.0667 86.4509 13.0573C86.4292 13.0479 86.4058 13.0431 86.3823 13.0431ZM85.1008 7.82054C84.741 7.82318 84.3899 7.93672 84.0921 8.14678C83.7943 8.35685 83.5631 8.65402 83.4277 9.00071C83.2923 9.3474 83.2589 9.72803 83.3316 10.0945C83.4043 10.4609 83.5798 10.7968 83.8361 11.0595C84.0924 11.3222 84.4178 11.5 84.7713 11.5704C85.1247 11.6408 85.4903 11.6007 85.8218 11.455C86.1534 11.3094 86.4359 11.0649 86.6338 10.7523C86.8316 10.4398 86.9358 10.0732 86.9333 9.69906C86.9334 9.44782 86.885 9.19911 86.791 8.96766C86.697 8.7362 86.5594 8.52669 86.3861 8.35154C86.2129 8.17639 86.0076 8.03915 85.7824 7.94794C85.5572 7.85673 85.3168 7.81341 85.0752 7.82054H85.1008ZM107.231 16.7202C106.759 16.7202 106.306 16.5251 105.972 16.1778C105.638 15.8305 105.45 15.3595 105.45 14.8683C105.45 14.3772 105.638 13.9062 105.972 13.5589C106.306 13.2116 106.759 13.0165 107.231 13.0165C107.465 13.0147 107.697 13.0614 107.913 13.154C108.129 13.2466 108.326 13.3832 108.49 13.5557C108.655 13.7282 108.785 13.9332 108.872 14.1586C108.96 14.384 109.003 14.6253 109 14.8683C109 15.3595 108.812 15.8305 108.478 16.1778C108.144 16.5251 107.691 16.7202 107.219 16.7202H107.231ZM107.231 13.203C106.914 13.2003 106.603 13.2958 106.338 13.4771C106.073 13.6585 105.866 13.9177 105.742 14.2217C105.619 14.5258 105.586 14.8611 105.646 15.185C105.706 15.5089 105.858 15.8069 106.081 16.0411C106.305 16.2754 106.59 16.4353 106.901 16.5007C107.212 16.566 107.535 16.5338 107.829 16.4082C108.122 16.2825 108.373 16.0691 108.55 15.7949C108.726 15.5208 108.82 15.1983 108.82 14.8683C108.824 14.6486 108.785 14.4305 108.706 14.2268C108.626 14.0231 108.508 13.8381 108.359 13.6827C108.21 13.5274 108.032 13.4048 107.836 13.3224C107.64 13.24 107.43 13.1994 107.219 13.203H107.231ZM107.616 15.0549L108.128 15.7876H107.693L107.244 15.1082H106.86V15.7876H106.501V13.8691H107.334C107.77 13.8691 108.052 14.0956 108.052 14.4953C108.055 14.6302 108.013 14.7622 107.934 14.869C107.855 14.9758 107.742 15.0509 107.616 15.0815V15.0549ZM107.321 14.1756H106.86V14.7884H107.321C107.552 14.7884 107.693 14.6685 107.693 14.482C107.693 14.2955 107.539 14.1756 107.308 14.1756H107.321Z" fill="white"/>
</svg>
