<svg width="110" height="25" viewBox="0 0 110 25" fill="none" xmlns="http://www.w3.org/2000/svg">
<path d="M23.7794 0.589111C23.925 0.796639 24.1387 0.68513 24.3153 0.694423C26.3565 0.784248 28.4008 0.858585 30.4327 1.10948C33.1739 1.45019 34.5677 2.7635 34.9766 5.49853C35.4621 9.0596 35.5845 12.6608 35.3421 16.2466C35.285 17.6676 35.1329 19.0832 34.8868 20.4839C34.4593 22.7667 33.0283 24.114 30.7238 24.3866C26.9202 24.8388 23.098 24.8729 19.2634 24.9163C15.3524 24.9638 11.4424 24.8605 7.53343 24.6065C6.64645 24.5545 5.76323 24.4511 4.88823 24.2968C3.99399 24.1587 3.1644 23.7473 2.51332 23.119C1.86224 22.4906 1.42159 21.6762 1.25185 20.7874C0.969661 19.2847 0.790626 17.7644 0.716 16.2373C0.716 16.0762 0.805825 15.878 0.604492 15.7572V9.77297C0.805825 9.65217 0.70361 9.46323 0.716 9.29287C0.824409 7.94859 0.917331 6.60121 1.14344 5.26622C1.56779 2.78828 2.98331 1.43161 5.47984 1.11258C7.47458 0.858588 9.47861 0.802835 11.4826 0.697523C11.6592 0.697523 11.876 0.799736 12.0154 0.589111H23.7794ZM14.6079 7.5738V17.944L23.6276 12.7558L14.6079 7.5738Z" fill="white"/>
<path d="M109.912 19.6848C109.705 19.8397 109.813 20.0782 109.776 20.2733C109.466 21.9026 108.491 22.869 106.88 23.2221C105.871 23.4552 104.821 23.4382 103.82 23.1725C102.271 22.7513 101.537 21.5836 101.175 20.1247C101.029 19.5934 100.94 19.0484 100.908 18.4985C100.837 15.9648 100.599 13.4156 101.168 10.9036C101.667 8.69826 102.909 7.70709 105.195 7.60487C105.693 7.57063 106.192 7.59244 106.685 7.66992C108.45 7.99515 109.361 8.95535 109.705 10.7859C109.77 11.1204 109.724 11.4798 109.922 11.7864V16.6958L104.433 16.6586C104.266 16.6586 104.164 16.6958 104.167 16.894C104.188 17.9936 104.126 19.1025 104.371 20.1835C104.409 20.4435 104.543 20.6796 104.748 20.8445C104.952 21.0094 105.212 21.0908 105.474 21.0725C105.734 21.0963 105.994 21.025 106.205 20.8717C106.416 20.7185 106.565 20.4938 106.623 20.2393C106.768 19.7999 106.837 19.339 106.827 18.8764C106.827 18.5976 106.871 18.4551 107.208 18.4861C107.986 18.5512 108.757 18.5914 109.55 18.61C109.748 18.61 109.804 18.7463 109.922 18.8299L109.912 19.6848ZM104.157 12.9417C104.157 13.3661 104.157 13.871 104.157 14.3604C104.157 14.5648 104.179 14.6887 104.436 14.6856C105.093 14.6701 105.75 14.6856 106.406 14.6856C106.561 14.6856 106.691 14.6856 106.688 14.4688C106.663 13.267 106.738 12.0528 106.487 10.8634C106.449 10.5945 106.306 10.3515 106.09 10.1877C105.873 10.024 105.6 9.95282 105.331 9.98989C104.808 9.98989 104.517 10.2594 104.359 10.8665C104.233 11.5512 104.165 12.2455 104.157 12.9417Z" fill="white"/>
<path d="M92.9758 9.54681C93.5953 8.57112 94.3201 7.95163 95.3237 7.70693C96.8538 7.33215 98.1423 7.9981 98.7092 9.45389C99.0213 10.3252 99.1887 11.2418 99.2047 12.1672C99.3163 14.5987 99.4185 17.0333 99.1242 19.4648C99.047 20.1701 98.8719 20.8613 98.6038 21.5184C98.1671 22.5498 97.4733 23.3025 96.3056 23.414C95.7043 23.5008 95.0907 23.4241 94.5294 23.1919C93.968 22.9597 93.4795 22.5806 93.1152 22.0945C93.0409 21.9984 92.9727 21.8962 92.8736 21.7538C92.8241 21.8869 92.7807 21.9768 92.7559 22.0635C92.4617 23.1972 92.4617 23.1972 91.3187 23.1972C90.9098 23.1972 90.4979 23.1693 90.0797 23.1972C89.6616 23.225 89.612 23.0856 89.6151 22.7201C89.6151 19.4679 89.6151 16.2156 89.6151 12.9571C89.6151 9.32999 89.6151 5.7029 89.6151 2.07582C89.6151 1.58023 89.7607 1.49041 90.2067 1.51209C90.9288 1.55637 91.6529 1.55637 92.3749 1.51209C92.8984 1.47492 92.9665 1.67625 92.9634 2.13157C92.9665 4.55995 92.9758 6.98524 92.9758 9.54681ZM95.8193 15.7417C95.8193 14.8868 95.8378 14.035 95.8193 13.1832C95.8346 12.3841 95.7238 11.5875 95.4909 10.823C95.4503 10.6619 95.3702 10.5134 95.258 10.3909C95.1458 10.2684 95.0049 10.1756 94.848 10.121C94.6912 10.0663 94.5231 10.0515 94.3591 10.0778C94.1951 10.104 94.0401 10.1707 93.9082 10.2716C93.6354 10.4264 93.4097 10.652 93.2548 10.9247C93.0999 11.1973 93.0217 11.5068 93.0285 11.8203C93.0285 14.45 93.0285 17.0859 93.0285 19.7064C93.0356 19.9879 93.1384 20.2586 93.32 20.4739C93.5016 20.6892 93.7511 20.8362 94.0274 20.8907C94.3038 20.9451 94.5904 20.9038 94.8401 20.7736C95.0898 20.6433 95.2877 20.4319 95.4011 20.1741C95.5017 19.9292 95.5734 19.6735 95.6148 19.4121C95.7794 18.1959 95.8478 16.9686 95.8193 15.7417Z" fill="white"/>
<path d="M66.9231 21.2799C66.3036 22.3888 65.5695 23.1074 64.4452 23.3769C62.4721 23.8601 60.9668 22.841 60.6942 20.8339C60.6205 20.2888 60.5853 19.7392 60.5889 19.1892C60.5889 15.6147 60.5889 12.0403 60.5889 8.46589C60.5889 8.06322 60.6694 7.91764 61.103 7.93932C61.9363 7.97649 62.7757 7.9703 63.6089 7.93932C63.9929 7.93932 64.0735 8.05393 64.0735 8.41633C64.057 11.8813 64.057 15.3484 64.0735 18.8175C64.0423 19.3506 64.0925 19.8853 64.2222 20.4034C64.2634 20.5871 64.37 20.7497 64.5222 20.8608C64.6743 20.9719 64.8615 21.0239 65.0492 21.0074C65.2384 21.0134 65.427 20.9805 65.6031 20.911C65.7792 20.8414 65.9392 20.7365 66.0733 20.6027C66.2073 20.4689 66.3126 20.3091 66.3826 20.1331C66.4525 19.9572 66.4858 19.7687 66.4802 19.5794C66.4802 15.8625 66.4802 12.1456 66.4802 8.42872C66.4802 8.02296 66.5824 7.92075 66.9789 7.93623C67.8492 7.96721 68.7196 7.95791 69.59 7.93623C69.8997 7.93623 69.9741 8.03225 69.9741 8.3296C69.9741 13.1657 69.9741 18.0018 69.9741 22.8379C69.9741 23.0919 69.9369 23.2282 69.6303 23.2189C68.9364 23.1983 68.2426 23.1983 67.5488 23.2189C67.2886 23.2189 67.239 23.126 67.1957 22.8906C67.1213 22.4105 67.0284 21.9304 66.9231 21.2799Z" fill="white"/>
<path d="M84.5657 21.286C84.005 22.2957 83.3484 22.9958 82.3603 23.3086C80.2169 23.9838 78.5443 22.8595 78.3151 20.6231C78.216 19.6289 78.2345 18.6346 78.2314 17.6403C78.2314 14.5801 78.2314 11.5229 78.2314 8.46264C78.2314 8.0383 78.3399 7.92369 78.758 7.93918C79.5943 7.97325 80.4306 7.97015 81.2638 7.93918C81.6386 7.93918 81.7377 8.0352 81.7346 8.40999C81.7191 11.9132 81.7346 15.4164 81.7346 18.9226C81.7067 19.384 81.7443 19.847 81.8461 20.2979C82.0103 20.8585 82.2767 21.0506 82.8621 20.9948C83.2096 20.9772 83.5365 20.8245 83.7732 20.5694C84.0098 20.3142 84.1375 19.9767 84.1289 19.6289C84.1289 15.912 84.1289 12.195 84.1289 8.47814C84.1289 8.08167 84.1971 7.92059 84.6431 7.93918C85.4949 7.97944 86.3498 7.96396 87.2047 7.93918C87.5144 7.93918 87.629 7.99804 87.6259 8.34185C87.6135 13.1614 87.6135 17.9821 87.6259 22.8037C87.6259 23.1135 87.5578 23.2374 87.2171 23.2219C86.5604 23.194 85.9007 23.2064 85.244 23.2219C84.9931 23.2219 84.8661 23.1816 84.8414 22.8842C84.7763 22.398 84.6679 21.9148 84.5657 21.286Z" fill="white"/>
<path d="M58.8547 15.9678C58.8761 17.2557 58.7849 18.5429 58.5821 19.8148C58.0711 22.3702 56.6958 23.507 54.0909 23.4791C53.5398 23.4794 52.9903 23.4192 52.4523 23.2994C50.7735 22.903 49.9744 21.729 49.6089 20.137C49.4591 19.4609 49.372 18.7724 49.3487 18.0803C49.2806 15.8254 49.1505 13.5704 49.5903 11.331C50.1633 8.40083 52.0868 7.44373 54.8559 7.70392C57.0241 7.90525 58.2321 9.01722 58.6751 11.9505C58.8361 13.2832 58.8961 14.6261 58.8547 15.9678ZM52.8178 15.5559C52.8178 16.5316 52.7962 17.5104 52.8178 18.486C52.8027 19.1438 52.9077 19.7988 53.1276 20.4188C53.1936 20.6137 53.3184 20.7833 53.4848 20.9042C53.6512 21.0252 53.8511 21.0915 54.0568 21.0941C54.2629 21.1043 54.4668 21.0482 54.6385 20.9339C54.8102 20.8196 54.9407 20.6531 55.0108 20.4591C55.1587 20.1166 55.2447 19.7506 55.2648 19.3781C55.4413 17.0891 55.3453 14.797 55.3267 12.508C55.3464 11.8843 55.2411 11.263 55.017 10.6805C54.9446 10.4886 54.8153 10.3232 54.6466 10.2065C54.4778 10.0898 54.2775 10.0273 54.0723 10.0273C53.8671 10.0273 53.6668 10.0898 53.498 10.2065C53.3292 10.3232 53.2 10.4886 53.1276 10.6805C53.0024 11.0123 52.9212 11.3591 52.886 11.712C52.7404 12.985 52.8426 14.2643 52.8178 15.5435V15.5559Z" fill="white"/>
<path d="M38.9343 2.29882C40.0091 2.29882 41.0561 2.29882 42.103 2.29882C42.4127 2.29882 42.4127 2.50944 42.4313 2.6829C43.1066 5.98166 43.9057 9.25254 44.4787 12.573C44.492 12.6145 44.5086 12.6549 44.5283 12.6938C44.8721 11.0367 45.2004 9.40431 45.5535 7.77507C45.9283 6.06219 46.3279 4.36791 46.7027 2.64264C46.7491 2.42272 46.7863 2.29573 47.0558 2.29882C48.0841 2.29882 49.1125 2.29882 50.2059 2.29882C49.8682 3.50062 49.5461 4.65906 49.2209 5.8144C48.2607 9.24015 47.2994 12.6659 46.3372 16.0917C46.2775 16.3337 46.2514 16.5828 46.2597 16.8319C46.2597 18.7678 46.2597 20.7068 46.2597 22.6458C46.2597 23.0701 46.1792 23.2405 45.7146 23.2157C44.934 23.1755 44.1504 23.1817 43.3667 23.2157C42.961 23.2312 42.8185 23.1321 42.8309 22.6985C42.865 21.5617 42.7875 20.4188 42.8557 19.2913C42.9263 17.4311 42.6727 15.5728 42.1061 13.7996C41.022 10.0826 40.0246 6.33167 39.0087 2.59617C38.9715 2.50635 38.956 2.41962 38.9343 2.29882Z" fill="white"/>
<path d="M75.8712 14.1526C75.8712 16.9991 75.8712 19.8456 75.8712 22.6891C75.8712 23.1165 75.7535 23.228 75.3385 23.2125C74.5765 23.1785 73.8084 23.1754 73.0464 23.2125C72.6035 23.2342 72.4858 23.101 72.4858 22.6581C72.4858 17.8881 72.4858 13.1211 72.4858 8.3542C72.4858 7.42497 72.4858 6.47096 72.4858 5.52625C72.4858 5.19173 72.4176 5.06163 72.049 5.07402C71.1941 5.10499 70.3393 5.07403 69.4875 5.08951C69.1777 5.08951 69.0414 5.04305 69.06 4.68994C69.091 4.03329 69.0848 3.37354 69.06 2.71689C69.06 2.40714 69.1189 2.28944 69.4627 2.29254C72.5952 2.30493 75.7257 2.30493 78.8541 2.29254C79.1917 2.29254 79.2753 2.38546 79.2629 2.70759C79.2382 3.38283 79.2412 4.06116 79.2629 4.7364C79.2629 5.01827 79.1793 5.09571 78.9036 5.08951C78.0859 5.07403 77.2651 5.10809 76.4474 5.07402C75.9828 5.05234 75.8279 5.15456 75.8279 5.66873C75.8867 8.49668 75.8712 11.3215 75.8712 14.1526Z" fill="white"/>
<path d="M14.6082 7.57385L23.6278 12.7558L14.6082 17.944V7.57385Z" fill="#0D0D0D"/>
</svg>
