<svg width="96" height="24" viewBox="0 0 96 24" fill="none" xmlns="http://www.w3.org/2000/svg">
<path d="M15.5127 12.4358C15.4827 10.601 16.2752 9.1727 17.8885 8.15035C16.9786 6.82732 15.6368 6.08369 13.8624 5.91744C13.2312 5.85817 12.4243 6.00736 11.4427 6.36876C10.3868 6.76024 9.79239 6.95482 9.66055 6.95482C9.38184 6.95482 8.84667 6.79031 8.0536 6.45868C7.26226 6.12792 6.58715 5.96254 6.02972 5.96254C5.09122 5.97787 4.21806 6.23721 3.41169 6.74058C2.60503 7.24452 1.96 7.93293 1.47629 8.80406C0.859586 9.88713 0.552246 11.1804 0.552246 12.6835C0.552246 14.0366 0.77892 15.3895 1.23342 16.7434C1.65873 18.0367 2.20228 19.1718 2.86149 20.1482C3.44754 21.0355 3.96277 21.682 4.40137 22.0885C5.03282 22.7197 5.67728 23.0209 6.33822 22.9903C6.76323 22.9747 7.32009 22.8171 8.00965 22.5155C8.6544 22.2313 9.3003 22.0882 9.94592 22.0882C10.547 22.0882 11.1698 22.2305 11.816 22.5155C12.5342 22.8171 13.1214 22.9671 13.5759 22.9671C14.2507 22.9377 14.881 22.6442 15.4685 22.0885C15.6729 21.9072 15.897 21.6594 16.1387 21.3437C16.4177 20.976 16.6857 20.5999 16.9422 20.2161C17.1559 19.8852 17.3577 19.5467 17.5473 19.2013C17.7507 18.8294 17.9307 18.4452 18.0862 18.0509C18.1588 17.8855 18.2247 17.7166 18.284 17.5437C18.3424 17.3708 18.4011 17.1948 18.4598 17.0141C17.9171 16.7741 17.4256 16.4344 16.9858 15.9981C16.019 15.0373 15.5275 13.849 15.5127 12.4358ZM31.4658 16.4563H31.3591L26.8913 6.24617H23.3827V22.7197H26.4405V12.0506H26.5825L30.3162 20.5226H32.4607L36.1826 12.0506H36.3251V22.7197H39.4182V6.24617H35.9336L31.4658 16.4563ZM12.74 4.09104C13.5178 3.1135 13.9066 2.06109 13.9066 0.933213V0.707984C13.9066 0.632234 13.8991 0.55735 13.8847 0.482178C13.3417 0.512247 12.7663 0.685433 12.1571 1.00058C11.5488 1.31688 11.0466 1.71587 10.6499 2.19611C9.85832 3.14415 9.46192 4.1584 9.46192 5.24118V5.45484C9.46192 5.52307 9.46944 5.5942 9.4839 5.66995C10.7017 5.78994 11.7871 5.26344 12.74 4.09104ZM75.1563 6.24617H78.5932V22.7199H75.1563V6.24617ZM88.9733 8.86478C91.0117 8.86478 92.0895 10.4339 92.0895 12.1235H95.3853V11.7734C95.3853 8.58751 92.9555 5.93276 88.9493 5.93276C84.6587 5.93276 82.0991 8.75665 82.0991 13.5723V15.4311C82.0991 20.2453 84.635 23.0342 88.9372 23.0342C93.05 23.0342 95.3853 20.3419 95.3853 17.3494V16.9875H92.0898C92.0898 18.6898 91.0354 20.1016 88.9976 20.1016C86.911 20.1016 85.5834 18.617 85.5834 15.4424V13.585C85.5834 10.4214 86.9232 8.86478 88.9733 8.86478ZM52.563 16.6489C52.563 18.8581 51.2711 20.0765 49.3751 20.0765C47.4668 20.0765 46.1753 18.8697 46.1753 16.6489V6.24617H42.7616V17.1317C42.7616 20.6446 45.2501 23.0339 49.3745 23.0339C53.4873 23.0339 55.9876 20.6446 55.9876 17.1317V6.24617H52.563V16.6489ZM67.3586 13.1253L64.9057 12.5708C63.4601 12.2681 62.7014 11.6288 62.7014 10.675C62.7014 9.40833 63.7321 8.61151 65.3923 8.61151C67.2647 8.61151 68.2009 9.68561 68.2836 10.8444H71.4836C71.448 7.93553 69.0188 5.90819 65.4036 5.90819C61.9789 5.90819 59.2764 7.70683 59.2764 10.941C59.2764 13.7409 61.1731 15.0434 63.4485 15.5395L65.8777 16.1062C67.5133 16.4803 68.3428 17.0239 68.3428 18.1454C68.3428 19.4256 67.3234 20.2948 65.4157 20.2948C63.3652 20.2948 62.2865 19.2082 62.1923 17.989H58.8971C58.9454 20.3185 60.4859 23.0339 65.2503 23.0339C69.2559 23.0339 71.7334 21.0427 71.7334 17.8071C71.7322 14.8141 69.7292 13.6434 67.3586 13.1253Z" fill="white"/>
</svg>
