<svg width="354" height="344" fill="none" xmlns="http://www.w3.org/2000/svg"><path d="M2.62 83.86h2.099v-7.446-.468l-2.02 1.792a.21.21 0 01-.16 0 .225.225 0 01-.178-.08l-.178-.259 2.649-2.341h.484v8.736H7.32v.469H2.587l.032-.404zM15.183 79.741a7.154 7.154 0 01-.274 2.083 4.28 4.28 0 01-.695 1.47 2.924 2.924 0 01-1.05.856c-.4.18-.835.274-1.275.274a3.07 3.07 0 01-1.276-.274 2.924 2.924 0 01-1.05-.856 4.28 4.28 0 01-.694-1.47 7.203 7.203 0 01-.259-2.083 7.203 7.203 0 01.259-2.083 4.344 4.344 0 01.694-1.454 2.777 2.777 0 011.05-.856 2.842 2.842 0 011.276-.29 2.89 2.89 0 011.276.29c.415.195.775.489 1.05.856.32.437.555.93.694 1.454.193.677.286 1.379.274 2.083v0zm-.662 0a7.302 7.302 0 00-.21-1.906 4.15 4.15 0 00-.565-1.292 2.356 2.356 0 00-.84-.726 2.245 2.245 0 00-1.017-.243c-.354 0-.702.083-1.018.243a2.229 2.229 0 00-.84.726 4.167 4.167 0 00-.581 1.292 7.3 7.3 0 00-.21 1.906 7.138 7.138 0 00.21 1.906c.115.462.312.9.581 1.292.214.313.503.569.84.743.32.147.666.224 1.018.226a2.456 2.456 0 001.017-.227c.335-.178.622-.432.84-.742.263-.394.455-.832.565-1.292a7.137 7.137 0 00.21-1.906v0zM4.525 37.962c.339 0 .676.048 1.001.145.309.098.595.257.84.469.244.206.438.466.565.759.154.345.231.72.226 1.098a3.02 3.02 0 01-.161.953c-.116.299-.262.586-.436.856a5.638 5.638 0 01-.63.791l-.76.791-2.874 2.923.436-.08h4.41a.192.192 0 01.16 0 .161.161 0 010 .145v.371h-5.91v-.226a.468.468 0 010-.145.388.388 0 01.097-.13l3.117-3.23.726-.758c.204-.236.393-.484.566-.743a4.35 4.35 0 00.387-.775c.098-.27.147-.554.146-.84a2.18 2.18 0 00-.178-.888 1.614 1.614 0 00-.452-.598 1.824 1.824 0 00-.646-.371 2.972 2.972 0 00-.76-.113c-.274 0-.546.043-.807.129-.23.095-.448.22-.646.371a2.165 2.165 0 00-.727 1.292.258.258 0 01-.258.227v0H1.65a3.07 3.07 0 01.323-1.05c.15-.298.358-.562.614-.775.252-.215.543-.379.856-.485.351-.1.717-.139 1.082-.113zM15.183 42.726a7.153 7.153 0 01-.274 2.083 4.345 4.345 0 01-.695 1.454 2.778 2.778 0 01-1.05.856 2.892 2.892 0 01-1.275.29 2.843 2.843 0 01-1.276-.29 2.778 2.778 0 01-1.05-.856 4.345 4.345 0 01-.694-1.454 7.203 7.203 0 01-.259-2.083 7.203 7.203 0 01.259-2.083 4.28 4.28 0 01.694-1.47 3.117 3.117 0 011.05-.856 3.118 3.118 0 012.552 0c.408.205.766.497 1.05.856.322.441.558.94.694 1.47.193.677.286 1.379.274 2.083zm-.662 0a7.216 7.216 0 00-.21-1.905 3.989 3.989 0 00-.565-1.292 2.406 2.406 0 00-.84-.743 2.456 2.456 0 00-1.017-.227 2.456 2.456 0 00-1.018.227c-.337.173-.626.429-.84.742a3.99 3.99 0 00-.581 1.293 7.219 7.219 0 00-.194 1.905 7.3 7.3 0 00.21 1.906c.119.46.315.897.582 1.292.214.309.503.559.84.726.316.155.665.233 1.017.227.352.006.7-.072 1.017-.227.334-.172.622-.42.84-.726a4.15 4.15 0 00.565-1.292 7.295 7.295 0 00.194-1.906zM4.589.85a3.23 3.23 0 01.985.146c.302.085.583.234.824.436a2.1 2.1 0 01.565.726c.14.316.211.657.21 1.002.006.276-.043.55-.145.807a2.374 2.374 0 01-.388.646c-.163.18-.354.333-.565.452-.232.118-.475.21-.727.275.588.077 1.13.357 1.534.791.348.41.532.933.517 1.47.002.362-.076.72-.226 1.05a2.664 2.664 0 01-.63.84 3.116 3.116 0 01-.937.548 3.376 3.376 0 01-1.162.194 3.827 3.827 0 01-1.308-.21 2.697 2.697 0 01-.856-.549 2.632 2.632 0 01-.517-.759 5.686 5.686 0 01-.307-.824l.242-.113h.291a.29.29 0 01.097.13v.129s0 .177.097.29c.055.124.12.242.194.356.084.128.176.252.274.371.127.124.268.233.42.323.178.103.368.184.565.242.252.028.507.028.76 0a2.39 2.39 0 001.744-.678 2.002 2.002 0 00.452-2.18 1.389 1.389 0 00-.436-.63 2.196 2.196 0 00-.824-.42 4.619 4.619 0 00-1.244-.145v-.452c.356 0 .71-.055 1.05-.162.27-.083.521-.214.743-.387.203-.164.364-.375.468-.614.107-.245.161-.509.162-.775 0-.288-.054-.573-.162-.84a1.777 1.777 0 00-.436-.581 1.615 1.615 0 00-.646-.34 2.342 2.342 0 00-.759-.113 2.277 2.277 0 00-1.437.484c-.185.16-.338.351-.452.566-.136.225-.234.47-.29.727 0 .145-.114.226-.243.226h-.323c.056-.364.165-.717.323-1.05.158-.296.366-.564.614-.791.252-.214.542-.379.855-.485A3.666 3.666 0 014.59.85v0zM15.184 5.582c.01.71-.083 1.417-.275 2.1a4.344 4.344 0 01-.695 1.453 2.923 2.923 0 01-1.05.856 2.875 2.875 0 01-1.275.274c-.44.01-.878-.084-1.276-.274a2.923 2.923 0 01-1.05-.856A4.344 4.344 0 018.87 7.68a7.397 7.397 0 01-.258-2.099 7.267 7.267 0 01.258-2.083 4.344 4.344 0 01.694-1.454 2.777 2.777 0 011.05-.856A2.842 2.842 0 0111.89.9c.442-.002.878.097 1.276.29.415.195.776.489 1.05.856.32.437.555.93.694 1.454.192.677.285 1.379.274 2.083v0zm-.663 0a7.302 7.302 0 00-.21-1.906 4.15 4.15 0 00-.565-1.292 2.357 2.357 0 00-.84-.726 2.245 2.245 0 00-1.017-.243c-.353 0-.702.083-1.018.243a2.229 2.229 0 00-.84.726 4.168 4.168 0 00-.58 1.292 7.3 7.3 0 00-.194 1.906 7.138 7.138 0 00.21 1.906c.112.463.309.9.58 1.292.214.313.503.569.84.743.32.147.667.224 1.018.226a2.455 2.455 0 001.018-.226c.334-.179.622-.433.84-.743.266-.392.457-.83.565-1.292.15-.624.215-1.265.193-1.906v0zM35.807 99.25a7.553 7.553 0 01-.259 2.131 4.488 4.488 0 01-.726 1.502 2.98 2.98 0 01-1.099.872 3.223 3.223 0 01-1.356.291 3.218 3.218 0 01-1.373-.291 3.069 3.069 0 01-1.082-.872 4.177 4.177 0 01-.71-1.502 7.557 7.557 0 01-.259-2.131 7.705 7.705 0 01.259-2.132 4.102 4.102 0 01.71-1.486c.29-.37.66-.667 1.082-.872.43-.196.9-.296 1.373-.29.468-.003.93.096 1.357.29.43.2.806.498 1.098.872.333.445.58.95.726 1.486.186.695.273 1.413.259 2.132zm-1.615 0a7.04 7.04 0 00-.162-1.615 3.698 3.698 0 00-.387-1.066 1.615 1.615 0 00-.582-.55 1.388 1.388 0 00-.662-.16 1.454 1.454 0 00-.678.16c-.233.13-.428.32-.565.55a3.701 3.701 0 00-.388 1.066 8.073 8.073 0 00-.145 1.615c-.01.568.039 1.137.145 1.695a3.7 3.7 0 00.388 1.066c.137.23.332.419.565.549.212.103.443.158.678.162.23-.006.456-.061.662-.162a1.61 1.61 0 00.582-.549c.183-.333.314-.693.387-1.066a7.18 7.18 0 00.13-1.695h.032zM72.87 102.706h1.905v-5.459-.662l-1.356 1.13a.434.434 0 01-.162.097h-.177a.645.645 0 01-.243 0 .58.58 0 01-.145-.129l-.517-.694 2.859-2.423h1.324v8.172h1.615v1.195h-5.184l.08-1.227zM119.154 94.405c.407-.005.811.06 1.195.194.338.118.65.3.921.532.254.237.457.523.597.84.146.348.217.722.21 1.098a2.71 2.71 0 01-.161.97 3.639 3.639 0 01-.404.84 6.3 6.3 0 01-.597.774l-.711.759-2.116 2.164c.201-.063.406-.112.614-.145h2.972a.569.569 0 01.403.145.54.54 0 01.162.388v.953h-6.46v-.517a.841.841 0 010-.339.856.856 0 01.21-.323l2.842-2.859c.243-.242.452-.468.646-.694.172-.203.329-.42.469-.646.123-.208.221-.43.29-.662a2.51 2.51 0 00.097-.71 1.6 1.6 0 00-.097-.582 1.001 1.001 0 00-.274-.436.992.992 0 00-.436-.258 1.456 1.456 0 00-.549-.097 1.487 1.487 0 00-.953.29 1.614 1.614 0 00-.517.792.716.716 0 01-.226.355.582.582 0 01-.355.097h-.21l-.84-.145c.047-.414.173-.814.371-1.18.173-.328.409-.619.695-.855.282-.227.606-.397.953-.501a3.97 3.97 0 011.259-.242v0zM163.436 94.405c.4-.003.798.057 1.179.177.324.12.625.295.889.517.242.215.435.48.565.775.132.3.198.625.194.953.003.262-.029.523-.097.775-.057.217-.156.42-.291.598-.132.17-.29.316-.468.436a2.86 2.86 0 01-.63.29c.496.127.938.41 1.26.808.288.392.436.87.419 1.357a2.75 2.75 0 01-.258 1.243 2.77 2.77 0 01-.694.905c-.31.242-.66.428-1.034.549-.396.131-.81.196-1.227.193a4.018 4.018 0 01-1.228-.161 2.882 2.882 0 01-.904-.484 2.801 2.801 0 01-.662-.776 4.609 4.609 0 01-.469-1.066l.711-.29a.963.963 0 01.355 0 .614.614 0 01.307 0 .429.429 0 01.21.21c.081.145.162.29.259.436.085.151.194.287.323.403.138.111.29.203.452.275.202.069.416.101.63.097.243.011.486-.033.71-.129.195-.074.371-.19.517-.339.13-.142.234-.306.307-.485.063-.165.096-.34.097-.517.026-.203.026-.41 0-.613a.895.895 0 00-.291-.469 1.506 1.506 0 00-.646-.306 4.412 4.412 0 00-1.147-.114v-1.146c.332.01.664-.027.985-.113.222-.048.431-.141.614-.275a.984.984 0 00.323-.452c.066-.181.099-.373.097-.565a1.36 1.36 0 00-.371-1.018 1.374 1.374 0 00-.986-.339 1.612 1.612 0 00-.952.307 1.61 1.61 0 00-.517.775.826.826 0 01-.21.356.631.631 0 01-.372.096h-.323l-.839-.145c.046-.413.173-.813.371-1.179.173-.328.409-.62.695-.856.282-.226.606-.396.952-.5.387-.126.79-.191 1.195-.194zM209.625 100.38h1.179v.921a.281.281 0 01-.081.226.293.293 0 01-.242.097h-.856v2.277h-1.389v-2.277h-3.957a.458.458 0 01-.291-.097.426.426 0 01-.145-.259l-.161-.807 4.441-5.927h1.502v5.846zm-1.389-3.068v-.453-.5l-2.907 4.021h2.858l.049-3.068zM254.068 95.212a.807.807 0 01-.21.566 1 1 0 01-.727.21h-2.584l-.339 1.954c.383-.08.772-.123 1.163-.13.446-.005.89.071 1.308.227.352.136.671.345.937.613.256.257.454.565.581.904.132.363.197.746.194 1.131.003.466-.091.928-.275 1.357-.158.401-.406.76-.726 1.049a3.23 3.23 0 01-1.098.679 3.875 3.875 0 01-1.389.242 3.545 3.545 0 01-.84-.097 2.849 2.849 0 01-.743-.242 4.903 4.903 0 01-.646-.339 4.963 4.963 0 01-.517-.42l.485-.679a.472.472 0 01.42-.226.639.639 0 01.323.097l.387.226c.165.091.338.167.517.226.222.084.458.122.694.113a1.97 1.97 0 00.792-.145c.211-.091.399-.229.549-.404a1.62 1.62 0 00.339-.597c.079-.251.117-.513.113-.775a1.617 1.617 0 00-.436-1.195 1.825 1.825 0 00-1.308-.436 4.2 4.2 0 00-1.373.258l-1.001-.29.791-4.555h4.619v.678zM296.138 98.055c.352.002.701.062 1.034.177.331.11.635.292.888.533.26.248.468.544.614.872.154.391.231.808.226 1.228.002.421-.08.838-.243 1.227a3.21 3.21 0 01-.662 1.001c-.304.29-.66.52-1.049.679a3.701 3.701 0 01-1.357.242 3.489 3.489 0 01-1.34-.242 3.017 3.017 0 01-1.018-.663 2.796 2.796 0 01-.646-1.049 3.9 3.9 0 01-.226-1.341c0-.466.094-.927.275-1.356.206-.52.483-1.01.823-1.454l2.245-2.987a.742.742 0 01.339-.275c.162-.075.338-.113.517-.113h1.421l-2.778 3.408-.177.21-.162.193c.188-.086.382-.157.582-.21a3.22 3.22 0 01.694-.08zm-2.245 2.907c-.006.241.033.482.113.71.059.204.164.392.307.549.146.16.329.282.533.355.226.09.468.134.711.13.242-.001.483-.045.71-.13.204-.089.39-.215.549-.371a1.62 1.62 0 00.356-.549c.086-.216.13-.446.129-.678a1.825 1.825 0 00-.129-.727c-.074-.2-.19-.381-.34-.533a1.3 1.3 0 00-.549-.34 1.903 1.903 0 00-.694-.128c-.238 0-.473.043-.695.129-.2.086-.382.213-.532.371-.16.147-.282.33-.356.533a1.889 1.889 0 00-.113.679v0zM343.036 94.534v.694c.005.17-.022.34-.081.501a1.217 1.217 0 01-.129.323l-3.537 7.316c-.079.15-.189.282-.323.387a.875.875 0 01-.533.146h-1.162l3.633-7.154a3.25 3.25 0 01.501-.76h-4.49a.337.337 0 01-.258-.113.355.355 0 01-.113-.258v-1.082h6.492z" fill="#666" stroke="#fff" stroke-miterlimit="10"/><path d="M32.383 43.84h308.505M32.383 6.551h308.505M32.383 81.081h308.505" stroke="#fff" stroke-width=".51" stroke-linecap="round" stroke-linejoin="round"/><path d="M32.383 81.097a1.97 1.97 0 01-1.97 2.003 1.987 1.987 0 01-1.987-1.97 1.985 1.985 0 011.987-1.987 1.987 1.987 0 011.97 1.954z" fill="url(#paint0_linear_307_7)"/><path d="M76.746 81.097a1.987 1.987 0 01-3.973 0 1.986 1.986 0 013.973 0z" fill="url(#paint1_linear_307_7)"/><path d="M121.092 81.097a1.961 1.961 0 01-1.242 1.864 1.97 1.97 0 01-.776.14 1.987 1.987 0 01-1.987-1.971 1.989 1.989 0 011.987-1.986 1.98 1.98 0 011.414.558 1.998 1.998 0 01.604 1.395z" fill="url(#paint2_linear_307_7)"/><path d="M165.456 81.097a1.99 1.99 0 01-1.987 1.97 1.972 1.972 0 01-1.394-3.368c.369-.373.87-.584 1.394-.588a1.988 1.988 0 011.987 1.986z" fill="url(#paint3_linear_307_7)"/><path d="M209.818 81.097a1.985 1.985 0 01-1.921 2.003 1.987 1.987 0 01-1.987-1.97 1.985 1.985 0 011.987-1.987 1.983 1.983 0 011.921 1.954z" fill="url(#paint4_linear_307_7)"/><path d="M298.528 81.097a1.985 1.985 0 01-3.972 0 1.988 1.988 0 011.986-1.986 1.988 1.988 0 011.986 1.986z" fill="url(#paint5_linear_307_7)"/><path d="M254.165 81.097a1.985 1.985 0 01-1.986 1.97 1.969 1.969 0 01-1.971-1.97 1.987 1.987 0 011.971-1.986 1.984 1.984 0 011.986 1.986z" fill="url(#paint6_linear_307_7)"/><path d="M342.875 81.097a1.972 1.972 0 01-3.37 1.395 1.985 1.985 0 01-.587-1.395 1.985 1.985 0 011.986-1.986 1.988 1.988 0 011.971 1.986z" fill="url(#paint7_linear_307_7)"/><path d="M52.602 81.097a1.293 1.293 0 01-1.308 1.293 1.292 1.292 0 01-1.292-1.293 1.29 1.29 0 011.292-1.308 1.308 1.308 0 011.308 1.308zM95.818 82.39a1.308 1.308 0 100-2.617 1.308 1.308 0 000 2.617zM141.683 81.097a1.291 1.291 0 01-1.308 1.293 1.286 1.286 0 01-.913-.379 1.296 1.296 0 01-.379-.913 1.294 1.294 0 012.217-.925c.245.245.383.578.383.924zM184.867 82.39a1.308 1.308 0 100-2.616 1.308 1.308 0 000 2.615zM230.7 81.097a1.291 1.291 0 01-1.308 1.293 1.308 1.308 0 01-1.309-1.293 1.306 1.306 0 011.309-1.308 1.306 1.306 0 011.308 1.308zM275.224 81.097a1.307 1.307 0 01-1.308 1.293 1.286 1.286 0 01-.924-.373 1.288 1.288 0 01-.384-.92 1.31 1.31 0 012.616 0zM318.424 82.39a1.308 1.308 0 100-2.616 1.308 1.308 0 000 2.615z" fill="#CCC"/><path d="M35.225 72.038l29.07-47.577A36.19 36.19 0 0195.785 6.099h14.761a36.287 36.287 0 0119.379 5.604l24.645 15.584a36.19 36.19 0 0019.379 5.604h23.046a36.141 36.141 0 0022.754-8.075l10.611-8.575a36.223 36.223 0 0144.33-.905v0c37.596 20.995 66.213-8.817 66.213-8.817" stroke="url(#paint8_linear_307_7)" stroke-width="2.05" stroke-linecap="round" stroke-linejoin="round"/><path d="M79.62 12.995a4.845 4.845 0 11-9.69 0 4.845 4.845 0 019.69 0z" fill="url(#paint9_linear_307_7)"/><path d="M123.919 6.971a4.847 4.847 0 01-4.845 4.845 4.846 4.846 0 114.845-4.845z" fill="url(#paint10_linear_307_7)"/><path d="M168.33 31.421a4.843 4.843 0 01-8.27 3.426 4.843 4.843 0 010-6.851 4.844 4.844 0 018.27 3.425z" fill="url(#paint11_linear_307_7)"/><path d="M212.742 31.421a4.844 4.844 0 11-9.688 0 4.844 4.844 0 019.688 0z" fill="url(#paint12_linear_307_7)"/><path d="M257.04 8.909a4.847 4.847 0 01-4.845 4.845 4.846 4.846 0 114.845-4.845z" fill="url(#paint13_linear_307_7)"/><path d="M301.403 22.232a4.847 4.847 0 01-4.845 4.845 4.846 4.846 0 114.845-4.845z" fill="url(#paint14_linear_307_7)"/><path d="M340.582 13.027a4.861 4.861 0 100-9.723 4.861 4.861 0 000 9.723z" fill="url(#paint15_linear_307_7)"/><path d="M164.18 302.734h1.938v-6.863-.436l-1.858 1.615a.225.225 0 01-.145 0 .231.231 0 01-.162-.081l-.161-.226 2.439-2.164h.452v8.075h1.841v.436h-4.361l.017-.356zM175.775 298.955a6.705 6.705 0 01-.242 1.922 4.014 4.014 0 01-.662 1.341 2.59 2.59 0 01-.953.791c-.373.18-.781.274-1.195.274-.409 0-.812-.094-1.179-.274a2.59 2.59 0 01-.953-.791 3.699 3.699 0 01-.646-1.341 6.705 6.705 0 01-.242-1.922 6.698 6.698 0 01.242-1.921c.123-.491.343-.952.646-1.357.253-.333.579-.604.953-.791a2.941 2.941 0 011.179-.259c.412.004.819.092 1.195.259.374.187.7.458.953.791.303.407.527.867.662 1.357.173.625.255 1.272.242 1.921zm-.614 0a6.866 6.866 0 00-.193-1.76 3.572 3.572 0 00-.533-1.195 1.945 1.945 0 00-.775-.678 2.058 2.058 0 00-.937-.21 2.015 2.015 0 00-.921.21 1.945 1.945 0 00-.775.678c-.25.362-.43.767-.533 1.195a6.19 6.19 0 00-.21 1.76 6.193 6.193 0 00.21 1.761c.106.426.286.831.533 1.195.189.291.458.521.775.662.285.147.601.224.921.226.326 0 .647-.077.937-.226.317-.141.586-.371.775-.662.247-.364.427-.769.533-1.195.14-.576.205-1.168.193-1.761zM165.908 263.717c.312 0 .623.049.92.145.284.088.547.231.775.42.217.205.397.446.533.711.134.316.2.657.194 1.001a2.63 2.63 0 01-.145.888 4.132 4.132 0 01-.404.792c-.17.26-.365.503-.581.726l-.695.727-2.648 2.697H168.314a.247.247 0 01.161 0 .228.228 0 010 .146v.339h-5.458v-.259a.465.465 0 010-.129l.081-.113 2.89-2.923c.243-.242.469-.485.663-.711.197-.209.375-.436.532-.678.148-.227.267-.471.356-.727.084-.249.128-.511.129-.775a1.795 1.795 0 00-.162-.807 1.612 1.612 0 00-.403-.566 1.817 1.817 0 00-.598-.323 2.116 2.116 0 00-.71-.113 2.16 2.16 0 00-.743.13 1.928 1.928 0 00-1.034.855 1.794 1.794 0 00-.226.663c0 .145-.129.21-.242.21h-.291c.036-.341.14-.67.307-.969.138-.278.33-.525.565-.727.231-.198.501-.347.792-.436a2.64 2.64 0 01.985-.194zM175.775 268.045a6.78 6.78 0 01-.242 1.922 4.009 4.009 0 01-.662 1.34 2.593 2.593 0 01-.953.792 2.74 2.74 0 01-1.195.258 2.682 2.682 0 01-1.179-.258 2.593 2.593 0 01-.953-.792 3.687 3.687 0 01-.646-1.34 6.78 6.78 0 01-.242-1.922 6.71 6.71 0 01.242-1.922c.123-.49.343-.952.646-1.356.253-.333.579-.604.953-.792a2.923 2.923 0 011.179-.258c.412.003.819.091 1.195.258.374.188.7.459.953.792.303.407.527.867.662 1.356a6.71 6.71 0 01.242 1.922zm-.614 0a6.86 6.86 0 00-.193-1.76 3.572 3.572 0 00-.533-1.195 1.947 1.947 0 00-.775-.679 2.045 2.045 0 00-.937-.209 2.027 2.027 0 00-.921.209 1.947 1.947 0 00-.775.679c-.25.362-.43.767-.533 1.195a6.181 6.181 0 00-.21 1.76 6.29 6.29 0 00.21 1.76c.106.427.286.832.533 1.196.189.291.458.521.775.662.285.146.601.224.921.226.326 0 .647-.078.937-.226.317-.141.586-.371.775-.662a3.73 3.73 0 00.533-1.196 6.95 6.95 0 00.193-1.76zM166.005 232.807c.306 0 .61.043.904.129.276.085.534.222.759.404.22.185.397.417.517.678.134.288.2.603.194.92a2.011 2.011 0 01-.485 1.341 1.996 1.996 0 01-.533.42 2.67 2.67 0 01-.662.258 2.344 2.344 0 011.405.711c.328.38.501.87.485 1.372a2.25 2.25 0 01-.21.969 2.44 2.44 0 01-.582.759 2.51 2.51 0 01-.856.517 3.215 3.215 0 01-1.082.178 3.245 3.245 0 01-1.195-.194 2.542 2.542 0 01-.791-.501 2.304 2.304 0 01-.485-.71 7.183 7.183 0 01-.29-.759l.226-.097h.274a.161.161 0 01.081.113v.113c.023.095.055.187.097.275.05.112.109.22.178.323.07.124.157.238.258.339.105.123.231.226.371.307.168.097.347.173.533.226.228.054.461.081.695.08.321.006.64-.055.936-.177.255-.11.486-.27.679-.469.18-.17.318-.38.403-.613.095-.208.145-.434.146-.662a2.17 2.17 0 00-.129-.727 1.315 1.315 0 00-.404-.581 2.231 2.231 0 00-.759-.388 4.6 4.6 0 00-1.163-.129v-.42c.329.007.657-.043.969-.146.261-.07.504-.197.711-.371.178-.151.321-.338.42-.549.101-.223.151-.466.145-.711a1.858 1.858 0 00-.145-.775 1.821 1.821 0 00-.404-.549 1.948 1.948 0 00-.598-.323c-.23-.067-.47-.1-.71-.097-.248 0-.494.043-.727.129-.22.064-.424.175-.598.323-.175.145-.322.32-.436.517a3.107 3.107 0 00-.258.678c0 .146-.097.21-.21.21h-.307c.051-.337.154-.664.307-.969.138-.277.33-.524.565-.726.231-.198.501-.347.792-.436.307-.131.635-.202.969-.21zM175.775 237.135a6.78 6.78 0 01-.242 1.922 4.009 4.009 0 01-.662 1.34 2.581 2.581 0 01-.953.791c-.373.18-.781.274-1.195.275a2.678 2.678 0 01-1.179-.275 2.581 2.581 0 01-.953-.791 3.687 3.687 0 01-.646-1.34 6.78 6.78 0 01-.242-1.922 6.71 6.71 0 01.242-1.922c.123-.491.343-.952.646-1.357.253-.332.579-.603.953-.791a2.923 2.923 0 011.179-.258c.412.003.819.091 1.195.258.374.188.7.459.953.791.303.408.527.868.662 1.357a6.71 6.71 0 01.242 1.922zm-.614 0a6.86 6.86 0 00-.193-1.76 3.586 3.586 0 00-.533-1.196 1.952 1.952 0 00-.775-.678 2.058 2.058 0 00-.937-.21 2.015 2.015 0 00-1.696.888c-.25.363-.43.768-.533 1.196a6.181 6.181 0 00-.21 1.76 6.186 6.186 0 00.21 1.76c.106.427.286.832.533 1.195.189.291.458.521.775.662a2.025 2.025 0 001.858 0c.317-.141.586-.371.775-.662.247-.363.427-.768.533-1.195a6.86 6.86 0 00.193-1.76zM167.523 207.565h1.615v.323a.116.116 0 01.011.048.117.117 0 01-.011.049.14.14 0 01-.057.013.135.135 0 01-.056-.013h-1.502v2.422h-.517v-2.422h-3.989a.192.192 0 01-.145 0v-.388l4.247-5.62h.517l-.113 5.588zm-.517-4.425v-.21a1.223 1.223 0 010-.242l-3.666 4.845h3.634l.032-4.393zM175.775 206.225a6.774 6.774 0 01-.242 1.921 4.014 4.014 0 01-.662 1.341 2.59 2.59 0 01-.953.791 2.74 2.74 0 01-1.195.258 2.668 2.668 0 01-1.179-.258 2.59 2.59 0 01-.953-.791 3.699 3.699 0 01-.646-1.341 6.774 6.774 0 01-.242-1.921 6.705 6.705 0 01.242-1.922c.123-.491.343-.952.646-1.357.253-.333.579-.603.953-.791a2.683 2.683 0 011.179-.259c.413-.004.821.084 1.195.259.374.188.7.458.953.791.303.407.527.867.662 1.357.173.625.255 1.273.242 1.922zm-.614 0a6.868 6.868 0 00-.193-1.761 3.572 3.572 0 00-.533-1.195 1.945 1.945 0 00-.775-.678 2.058 2.058 0 00-.937-.21 2.015 2.015 0 00-.921.21 1.945 1.945 0 00-.775.678c-.25.362-.43.767-.533 1.195a6.193 6.193 0 00-.21 1.761 6.3 6.3 0 00.21 1.76c.102.423.283.823.533 1.179.184.299.454.536.775.678.286.142.602.214.921.21.324.005.645-.067.937-.21.321-.142.591-.379.775-.678.25-.356.43-.756.533-1.179a6.955 6.955 0 00.193-1.76zM168.104 171.584a.274.274 0 01-.08.21.342.342 0 01-.243.08h-3.068l-.517 2.81.775-.145c.226-.016.453-.016.679 0 .395-.012.789.048 1.162.178.315.115.602.297.84.533.227.23.403.505.517.807.113.327.168.672.161 1.018a2.87 2.87 0 01-.226 1.195 2.766 2.766 0 01-.63.888c-.273.251-.59.448-.936.581a3.227 3.227 0 01-1.131.194c-.22.025-.442.025-.662 0a5.308 5.308 0 01-.597-.161l-.517-.243-.42-.29.178-.227a.178.178 0 01.161-.096c.083.01.162.043.226.096l.388.194c.171.082.349.147.533.194.241.069.492.102.743.097.308-.002.614-.057.904-.162a2.28 2.28 0 00.743-.452 2.1 2.1 0 00.484-.743c.129-.317.189-.658.178-1.001a2.377 2.377 0 00-.129-.84 1.619 1.619 0 00-.404-.646 1.866 1.866 0 00-.694-.419 2.527 2.527 0 00-.969-.162h-.727a7.974 7.974 0 00-.808.178l-.371-.113.662-3.747h3.795v.194zM175.775 175.573a6.774 6.774 0 01-.242 1.921c-.135.485-.359.94-.662 1.341a2.581 2.581 0 01-.953.791 2.692 2.692 0 01-2.374 0 2.581 2.581 0 01-.953-.791 3.699 3.699 0 01-.646-1.341 6.774 6.774 0 01-.242-1.921 6.705 6.705 0 01.242-1.922c.123-.491.343-.952.646-1.357.253-.333.579-.603.953-.791a2.923 2.923 0 011.179-.258c.412.003.819.091 1.195.258.374.188.7.458.953.791.303.407.527.867.662 1.357.173.625.255 1.273.242 1.922zm-.614 0a6.868 6.868 0 00-.193-1.761 3.572 3.572 0 00-.533-1.195 1.945 1.945 0 00-.775-.678 2.058 2.058 0 00-.937-.21 2.015 2.015 0 00-.921.21 1.945 1.945 0 00-.775.678c-.25.362-.43.767-.533 1.195a6.193 6.193 0 00-.21 1.761 6.19 6.19 0 00.21 1.76c.106.427.286.831.533 1.195.189.291.458.521.775.662.285.147.601.224.921.226.326 0 .647-.077.937-.226.317-.141.586-.371.775-.662.247-.364.427-.768.533-1.195.14-.576.205-1.168.193-1.76zM166.085 143.839a2.52 2.52 0 011.001.177c.297.109.567.279.792.501.228.226.409.495.533.791.119.332.179.682.177 1.034.007.366-.065.729-.21 1.066a2.49 2.49 0 01-.565.839c-.26.236-.561.423-.888.55a3.137 3.137 0 01-1.131.193 2.987 2.987 0 01-1.082-.193 2.421 2.421 0 01-.839-.55 2.628 2.628 0 01-.533-.872 3.377 3.377 0 01-.194-1.179c.011-.384.099-.763.258-1.114.21-.503.487-.976.824-1.405l2.309-3.101a.329.329 0 01.291-.145h.501l-2.52 3.23-.339.468a3.735 3.735 0 00-.274.42c.238-.247.524-.445.839-.581a2.77 2.77 0 011.05-.129zm-2.39 2.503c-.002.297.047.592.145.872.101.253.243.487.42.694.187.196.412.35.662.453.279.106.574.16.872.161a2.75 2.75 0 00.921-.161c.264-.103.506-.257.71-.453.193-.192.342-.423.437-.678a2.13 2.13 0 00.161-.856 2.491 2.491 0 00-.145-.872 2.152 2.152 0 00-.436-.662 1.848 1.848 0 00-.663-.42 2.352 2.352 0 00-.839-.145 2.507 2.507 0 00-.953.177 2.45 2.45 0 00-.695.485 1.824 1.824 0 00-.436.662 1.715 1.715 0 00-.161.743zM175.775 144.662a6.78 6.78 0 01-.242 1.922 4.014 4.014 0 01-.662 1.341 2.59 2.59 0 01-.953.791 2.74 2.74 0 01-1.195.258 2.682 2.682 0 01-1.179-.258 2.59 2.59 0 01-.953-.791 3.699 3.699 0 01-.646-1.341 6.78 6.78 0 01-.242-1.922 6.698 6.698 0 01.242-1.921c.123-.491.343-.952.646-1.357.253-.333.579-.604.953-.791a2.908 2.908 0 011.179-.259 3 3 0 011.195.259c.374.187.7.458.953.791.303.407.527.867.662 1.357.173.625.255 1.272.242 1.921zm-.614 0a6.866 6.866 0 00-.193-1.76 3.572 3.572 0 00-.533-1.195 1.945 1.945 0 00-.775-.678 2.058 2.058 0 00-.937-.21 2.015 2.015 0 00-.921.21 1.945 1.945 0 00-.775.678c-.25.362-.43.767-.533 1.195a6.19 6.19 0 00-.21 1.76 6.302 6.302 0 00.21 1.761c.106.426.286.831.533 1.195.189.291.458.521.775.662.285.147.601.224.921.226.326 0 .647-.077.937-.226.317-.141.586-.371.775-.662.247-.364.427-.769.533-1.195a6.963 6.963 0 00.193-1.761zM258.493 343.464a.381.381 0 01-.358-.24.395.395 0 01-.03-.148V134.924a.395.395 0 01.114-.274.381.381 0 01.274-.114.385.385 0 01.269.115.384.384 0 01.103.273v208.184a.372.372 0 01-.372.356z" fill="#fff"/><path d="M352.807 342.317H165.908a.397.397 0 01-.359-.239.4.4 0 01-.029-.149.373.373 0 01.388-.436h186.899a.37.37 0 01.273.103.387.387 0 01.085.123.384.384 0 01.029.146.382.382 0 01-.088.317.39.39 0 01-.299.135z" fill="#fff"/><path d="M343.052 343.464a.37.37 0 01-.371-.388V134.924a.37.37 0 01.103-.273.383.383 0 01.122-.085.389.389 0 01.295 0 .381.381 0 01.21.21.394.394 0 01.029.148v208.184a.388.388 0 01-.388.356zM221.091 327.912h-1.244a.608.608 0 01-.339-.097.58.58 0 01-.194-.259l-.646-1.776h-3.585l-.646 1.776a.775.775 0 01-.178.243c-.1.08-.227.12-.355.113h-1.163l3.392-8.64h1.615l3.343 8.64zm-5.588-3.23h2.745l-1.05-2.875-.161-.452c0-.178-.113-.355-.161-.565l-.162.565-.161.468-1.05 2.859z" fill="#fff"/><path d="M207.541 304.349a2.16 2.16 0 01-2.325-1.986V143.338a2.16 2.16 0 012.325-1.986 2.176 2.176 0 012.326 1.986v159.025a2.18 2.18 0 01-2.326 1.986z" fill="url(#paint16_linear_307_7)"/><path d="M198.336 304.349a2.176 2.176 0 01-2.325-1.986v-80.07a2.179 2.179 0 012.325-1.986 2.164 2.164 0 012.326 1.986v80.07a2.165 2.165 0 01-2.326 1.986z" fill="url(#paint17_linear_307_7)"/><path d="M236.82 304.349a2.159 2.159 0 01-1.563-.518 2.159 2.159 0 01-.746-1.468v-80.07a2.16 2.16 0 012.309-1.986 2.164 2.164 0 012.326 1.986v80.07a2.165 2.165 0 01-2.326 1.986z" fill="url(#paint18_linear_307_7)"/><path d="M217.409 304.349a2.176 2.176 0 01-2.326-1.986V162.524a2.18 2.18 0 012.326-1.987 2.184 2.184 0 012.325 1.987v139.839a2.176 2.176 0 01-2.325 1.986z" fill="url(#paint19_linear_307_7)"/><path d="M227.406 304.349a2.176 2.176 0 01-2.326-1.986V187.911a2.18 2.18 0 012.326-1.986 2.16 2.16 0 012.325 1.986v114.452a2.16 2.16 0 01-2.325 1.986z" fill="url(#paint20_linear_307_7)"/><path d="M297.834 327.912v-8.64h2.988c.484-.013.968.041 1.437.161.356.081.691.235.985.452.247.191.441.441.565.727.127.301.188.626.178.953a1.62 1.62 0 010 .581 1.61 1.61 0 01-.275.533c-.138.17-.301.317-.484.436-.216.142-.45.256-.694.339 1.195.259 1.792.905 1.792 1.922-.004.35-.075.695-.21 1.018a2.292 2.292 0 01-.614.807 3.34 3.34 0 01-.985.517 4.284 4.284 0 01-1.34.194h-3.343zm1.615-4.845h1.292c.436.023.869-.084 1.243-.307a1.054 1.054 0 00.42-.953 1.115 1.115 0 00-.371-.953 2 2 0 00-1.195-.29h-1.389v2.503zm0 1.098v2.535h1.615c.256.006.512-.026.759-.097.176-.07.34-.168.484-.29a1.02 1.02 0 00.259-.42 1.32 1.32 0 000-.501 1.602 1.602 0 000-.517.943.943 0 00-.291-.371 1.153 1.153 0 00-.484-.242 2.324 2.324 0 00-.727-.097h-1.615z" fill="#fff"/><path d="M291.196 304.349a2.16 2.16 0 01-2.325-1.986V188.185a2.162 2.162 0 012.325-1.986 2.167 2.167 0 012.31 1.986v114.178a2.167 2.167 0 01-2.31 1.986z" fill="url(#paint21_linear_307_7)"/><path d="M281.991 304.349a2.16 2.16 0 01-2.325-1.986v-95.024a2.164 2.164 0 012.325-1.987 2.185 2.185 0 011.57.517c.435.372.706.9.756 1.47v95.024a2.18 2.18 0 01-2.326 1.986z" fill="url(#paint22_linear_307_7)"/><path d="M320.475 304.349a2.177 2.177 0 01-2.326-1.986v-50.177a2.18 2.18 0 012.326-1.986 2.167 2.167 0 012.326 1.986v50.177a2.165 2.165 0 01-2.326 1.986z" fill="url(#paint23_linear_307_7)"/><path d="M301.063 304.349a2.16 2.16 0 01-2.325-1.986V140.108a2.177 2.177 0 012.325-2.002 2.197 2.197 0 012.326 2.002v162.255a2.18 2.18 0 01-2.326 1.986z" fill="url(#paint24_linear_307_7)"/><path d="M311.06 304.349a2.176 2.176 0 01-2.326-1.986V150.557a2.18 2.18 0 012.326-1.986 2.16 2.16 0 012.325 1.986v151.806a2.16 2.16 0 01-2.325 1.986z" fill="url(#paint25_linear_307_7)"/><path d="M110.191 218.757a43.042 43.042 0 01-2.338 32.859 43.032 43.032 0 01-24.89 21.581 43.034 43.034 0 01-32.848-2.333 43.023 43.023 0 01-21.576-24.879" stroke="#fff" stroke-width=".5" stroke-linecap="round" stroke-linejoin="round"/><path d="M55.38 228.269a6.064 6.064 0 012.26.403c.67.249 1.28.634 1.793 1.131a5.22 5.22 0 011.163 1.776c.295.745.438 1.541.42 2.342a6.04 6.04 0 01-.452 2.374 5.744 5.744 0 01-1.244 1.841 6.032 6.032 0 01-1.97 1.244 7.253 7.253 0 01-2.552.436 6.967 6.967 0 01-2.438-.42 5.42 5.42 0 01-1.89-1.244 5.406 5.406 0 01-1.21-1.97 7.493 7.493 0 01-.437-2.632 7.106 7.106 0 01.565-2.536 14.688 14.688 0 011.858-3.23l5.2-7.009a.81.81 0 01.678-.307h1.13l-5.684 7.413-.76 1.05c-.225.323-.451.646-.63.953a5.765 5.765 0 011.89-1.292 6.021 6.021 0 012.31-.323zm-5.378 5.636a5.601 5.601 0 00.34 1.97c.193.599.512 1.15.936 1.615.41.442.911.79 1.47 1.018a5.164 5.164 0 001.97.355 5.65 5.65 0 002.083-.355 4.641 4.641 0 001.615-1.002c.437-.43.778-.947 1.001-1.518a5.021 5.021 0 00.355-1.922 5.424 5.424 0 00-.339-1.97 4.025 4.025 0 00-.969-1.502 4.29 4.29 0 00-1.485-.936 5.233 5.233 0 00-1.922-.34 5.212 5.212 0 00-2.116.42c-.602.248-1.15.61-1.615 1.066a4.346 4.346 0 00-.985 1.486 4.391 4.391 0 00-.339 1.615zM77.182 230.061c.03 1.462-.155 2.92-.55 4.328a8.87 8.87 0 01-1.469 3.037 5.938 5.938 0 01-2.164 1.776 6.224 6.224 0 01-2.665.581 6.151 6.151 0 01-2.648-.581 5.938 5.938 0 01-2.164-1.776 8.872 8.872 0 01-1.47-3.037c-.38-1.41-.56-2.867-.533-4.328a15.666 15.666 0 01.533-4.344 8.786 8.786 0 011.47-3.02 5.84 5.84 0 012.164-1.793 6.166 6.166 0 012.648-.581c.92-.005 1.83.193 2.665.581a5.84 5.84 0 012.164 1.793 8.784 8.784 0 011.47 3.02c.394 1.414.579 2.877.549 4.344zm-1.357 0a15.712 15.712 0 00-.436-3.972 8.587 8.587 0 00-1.195-2.681 4.68 4.68 0 00-1.744-1.518 4.845 4.845 0 00-2.116-.485 4.847 4.847 0 00-2.1.485 4.68 4.68 0 00-1.743 1.518 8.238 8.238 0 00-1.195 2.681 14.933 14.933 0 00-.453 3.972c-.029 1.334.123 2.665.453 3.957a8.075 8.075 0 001.195 2.681 4.54 4.54 0 001.744 1.518 4.846 4.846 0 002.1.484 4.844 4.844 0 002.115-.484 4.54 4.54 0 001.744-1.518 8.432 8.432 0 001.195-2.681c.315-1.295.462-2.625.436-3.957zM87.34 225.216c.01.703-.1 1.402-.323 2.068a4.193 4.193 0 01-.872 1.485 3.642 3.642 0 01-1.276.889 3.831 3.831 0 01-1.534.306 3.874 3.874 0 01-1.615-.306 3.372 3.372 0 01-1.276-.889 4.171 4.171 0 01-.856-1.485 6.254 6.254 0 01-.307-2.068 6.457 6.457 0 01.307-2.099 4.25 4.25 0 01.856-1.502 3.38 3.38 0 011.276-.888 3.875 3.875 0 011.615-.307 3.842 3.842 0 011.615.307c.486.197.922.5 1.275.888.385.44.681.95.873 1.502.195.682.277 1.391.242 2.099zm-1.018 0a5.685 5.685 0 00-.242-1.776 3.529 3.529 0 00-.646-1.227 2.455 2.455 0 00-.953-.695 3.026 3.026 0 00-2.293 0c-.37.151-.696.389-.953.695a3.806 3.806 0 00-.63 1.227 5.686 5.686 0 00-.29 1.776 5.66 5.66 0 00.242 1.761c.13.44.343.852.63 1.211.26.3.587.538.953.694a3.007 3.007 0 002.293 0c.366-.156.692-.394.953-.694.297-.354.517-.767.646-1.211.19-.568.287-1.162.29-1.761zm8.253-4.344a.688.688 0 01.194-.177.792.792 0 01.306 0h.889l-13.679 18.814a.55.55 0 01-.468.242h-.905l13.663-18.879zm3.052 14.293c.01.702-.1 1.401-.323 2.067a4.193 4.193 0 01-.872 1.485c-.353.388-.79.692-1.276.889a3.797 3.797 0 01-1.534.307 3.993 3.993 0 01-1.615-.307 3.437 3.437 0 01-1.26-.889 4.173 4.173 0 01-.856-1.485 6.249 6.249 0 01-.306-2.067 6.283 6.283 0 01.306-2.084c.172-.557.465-1.07.856-1.502.34-.399.773-.709 1.26-.904a3.993 3.993 0 011.615-.307 3.875 3.875 0 011.615.307c.488.201.924.51 1.276.904.386.436.677.948.856 1.502.198.665.286 1.358.258 2.051v.033zm-1.017 0a5.86 5.86 0 00-.243-1.793 3.679 3.679 0 00-.646-1.227 2.45 2.45 0 00-.936-.695 3.237 3.237 0 00-1.163-.226 3.088 3.088 0 00-1.147.226 2.635 2.635 0 00-.953.695 3.66 3.66 0 00-.63 1.227 5.864 5.864 0 00-.242 1.793c-.012.595.07 1.19.243 1.76.12.444.336.857.63 1.211.257.301.584.534.952.678.365.148.754.225 1.147.226a3.216 3.216 0 001.163-.226c.365-.141.688-.374.936-.678.298-.354.518-.767.646-1.211a5.654 5.654 0 00.243-1.793v.033z" fill="#fff"/><path d="M121.659 243.822c6.31-28.867-11.976-57.385-40.844-63.695-28.867-6.31-57.384 11.977-63.694 40.845-6.31 28.867 11.976 57.384 40.844 63.694 28.867 6.31 57.384-11.976 63.694-40.844z" stroke="#fff" stroke-width="2" stroke-linecap="round" stroke-linejoin="round"/><path d="M95.1 273.017c22.434-14.237 29.079-43.965 14.842-66.399-14.237-22.434-43.965-29.078-66.399-14.841-22.434 14.237-29.079 43.964-14.842 66.398 14.237 22.434 43.965 29.079 66.399 14.842z" stroke="#fff" stroke-linecap="round" stroke-linejoin="round"/><path d="M69.35 275.458c23.769 0 43.038-19.269 43.038-43.039 0-23.769-19.27-43.039-43.039-43.039-23.77 0-43.038 19.27-43.038 43.039 0 23.77 19.269 43.039 43.038 43.039z" stroke="#fff" stroke-width=".5" stroke-linecap="round" stroke-linejoin="round"/><path d="M116.264 258.162a53.294 53.294 0 01-29.974 25.015 53.518 53.518 0 01-67.699-33.833A53.519 53.519 0 0150.1 182.501" stroke="url(#paint26_linear_307_7)" stroke-width="2" stroke-linecap="round" stroke-linejoin="round"/><path d="M95.27 272.971a48.075 48.075 0 01-47.431 2.487 48.14 48.14 0 01-24.143-27.842 48.125 48.125 0 012.63-36.757 48.121 48.121 0 0146.479-26.502 48.108 48.108 0 0118.12 4.975" stroke="url(#paint27_linear_307_7)" stroke-linecap="round" stroke-linejoin="round"/><defs><linearGradient id="paint0_linear_307_7" x1="26.198" y1="81.097" x2="348.06" y2="81.097" gradientUnits="userSpaceOnUse"><stop stop-color="#FDB97C"/><stop offset="1" stop-color="#EE4057"/></linearGradient><linearGradient id="paint1_linear_307_7" x1="26.197" y1="81.097" x2="348.061" y2="81.097" gradientUnits="userSpaceOnUse"><stop stop-color="#FDB97C"/><stop offset="1" stop-color="#EE4057"/></linearGradient><linearGradient id="paint2_linear_307_7" x1="26.198" y1="81.098" x2="348.058" y2="81.098" gradientUnits="userSpaceOnUse"><stop stop-color="#FDB97C"/><stop offset="1" stop-color="#EE4057"/></linearGradient><linearGradient id="paint3_linear_307_7" x1="26.198" y1="81.097" x2="348.059" y2="81.097" gradientUnits="userSpaceOnUse"><stop stop-color="#FDB97C"/><stop offset="1" stop-color="#EE4057"/></linearGradient><linearGradient id="paint4_linear_307_7" x1="26.214" y1="81.097" x2="348.059" y2="81.097" gradientUnits="userSpaceOnUse"><stop stop-color="#FDB97C"/><stop offset="1" stop-color="#EE4057"/></linearGradient><linearGradient id="paint5_linear_307_7" x1="26.215" y1="81.097" x2="348.075" y2="81.097" gradientUnits="userSpaceOnUse"><stop stop-color="#FDB97C"/><stop offset="1" stop-color="#EE4057"/></linearGradient><linearGradient id="paint6_linear_307_7" x1="26.214" y1="81.097" x2="348.075" y2="81.097" gradientUnits="userSpaceOnUse"><stop stop-color="#FDB97C"/><stop offset="1" stop-color="#EE4057"/></linearGradient><linearGradient id="paint7_linear_307_7" x1="26.213" y1="81.097" x2="348.075" y2="81.097" gradientUnits="userSpaceOnUse"><stop stop-color="#FDB97C"/><stop offset="1" stop-color="#EE4057"/></linearGradient><linearGradient id="paint8_linear_307_7" x1="33.578" y1="39.076" x2="342.552" y2="39.076" gradientUnits="userSpaceOnUse"><stop stop-color="#FDB97C"/><stop offset="1" stop-color="#EE4057"/></linearGradient><linearGradient id="paint9_linear_307_7" x1="49.679" y1="12.995" x2="261.077" y2="12.995" gradientUnits="userSpaceOnUse"><stop stop-color="#FDB97C"/><stop offset="1" stop-color="#EE4057"/></linearGradient><linearGradient id="paint10_linear_307_7" x1="32.27" y1="6.971" x2="342.843" y2="6.971" gradientUnits="userSpaceOnUse"><stop stop-color="#FDB97C"/><stop offset="1" stop-color="#EE4057"/></linearGradient><linearGradient id="paint11_linear_307_7" x1="30.025" y1="31.454" x2="339.887" y2="31.454" gradientUnits="userSpaceOnUse"><stop stop-color="#FDB97C"/><stop offset="1" stop-color="#EE4057"/></linearGradient><linearGradient id="paint12_linear_307_7" x1="33.303" y1="31.454" x2="343.166" y2="31.454" gradientUnits="userSpaceOnUse"><stop stop-color="#FDB97C"/><stop offset="1" stop-color="#EE4057"/></linearGradient><linearGradient id="paint13_linear_307_7" x1="32.448" y1="8.909" x2="342.31" y2="8.909" gradientUnits="userSpaceOnUse"><stop stop-color="#FDB97C"/><stop offset="1" stop-color="#EE4057"/></linearGradient><linearGradient id="paint14_linear_307_7" x1="33.255" y1="22.232" x2="343.101" y2="22.232" gradientUnits="userSpaceOnUse"><stop stop-color="#FDB97C"/><stop offset="1" stop-color="#EE4057"/></linearGradient><linearGradient id="paint15_linear_307_7" x1="34.272" y1="8.166" x2="344.135" y2="8.166" gradientUnits="userSpaceOnUse"><stop stop-color="#FDB97C"/><stop offset="1" stop-color="#EE4057"/></linearGradient><linearGradient id="paint16_linear_307_7" x1="192.458" y1="222.859" x2="240.632" y2="222.859" gradientUnits="userSpaceOnUse"><stop stop-color="#FDB97C"/><stop offset="1" stop-color="#EE4057"/></linearGradient><linearGradient id="paint17_linear_307_7" x1="192.458" y1="262.328" x2="240.632" y2="262.328" gradientUnits="userSpaceOnUse"><stop stop-color="#FDB97C"/><stop offset="1" stop-color="#EE4057"/></linearGradient><linearGradient id="paint18_linear_307_7" x1="192.457" y1="262.328" x2="240.631" y2="262.328" gradientUnits="userSpaceOnUse"><stop stop-color="#FDB97C"/><stop offset="1" stop-color="#EE4057"/></linearGradient><linearGradient id="paint19_linear_307_7" x1="192.457" y1="232.451" x2="240.632" y2="232.451" gradientUnits="userSpaceOnUse"><stop stop-color="#FDB97C"/><stop offset="1" stop-color="#EE4057"/></linearGradient><linearGradient id="paint20_linear_307_7" x1="192.458" y1="245.145" x2="240.632" y2="245.145" gradientUnits="userSpaceOnUse"><stop stop-color="#FDB97C"/><stop offset="1" stop-color="#EE4057"/></linearGradient><linearGradient id="paint21_linear_307_7" x1="277.792" y1="245.274" x2="324.787" y2="245.274" gradientUnits="userSpaceOnUse"><stop stop-color="#77C190"/><stop offset="1" stop-color="#4B57A1"/></linearGradient><linearGradient id="paint22_linear_307_7" x1="277.792" y1="254.851" x2="324.788" y2="254.851" gradientUnits="userSpaceOnUse"><stop stop-color="#77C190"/><stop offset="1" stop-color="#4B57A1"/></linearGradient><linearGradient id="paint23_linear_307_7" x1="277.792" y1="277.267" x2="324.787" y2="277.267" gradientUnits="userSpaceOnUse"><stop stop-color="#77C190"/><stop offset="1" stop-color="#4B57A1"/></linearGradient><linearGradient id="paint24_linear_307_7" x1="277.792" y1="221.227" x2="324.787" y2="221.227" gradientUnits="userSpaceOnUse"><stop stop-color="#77C190"/><stop offset="1" stop-color="#4B57A1"/></linearGradient><linearGradient id="paint25_linear_307_7" x1="277.792" y1="226.46" x2="324.787" y2="226.46" gradientUnits="userSpaceOnUse"><stop stop-color="#77C190"/><stop offset="1" stop-color="#4B57A1"/></linearGradient><linearGradient id="paint26_linear_307_7" x1="14.231" y1="234.228" x2="117.879" y2="234.228" gradientUnits="userSpaceOnUse"><stop stop-color="#FDB97C"/><stop offset="1" stop-color="#EE4057"/></linearGradient><linearGradient id="paint27_linear_307_7" x1="33.87" y1="198.697" x2="102.272" y2="267.1" gradientUnits="userSpaceOnUse"><stop stop-color="#FDB97C"/><stop offset="1" stop-color="#EE4057"/></linearGradient></defs></svg>