<svg width="171" height="25" viewBox="0 0 171 25" fill="none" xmlns="http://www.w3.org/2000/svg">
<path fill-rule="evenodd" clip-rule="evenodd" d="M1.46183 14.5802C0.718453 13.3189 0.718453 11.7534 1.46183 10.4921L6.38597 2.13702C7.10971 0.909016 8.42887 0.155273 9.85426 0.155273H19.8472C21.2726 0.155273 22.5917 0.909016 23.3155 2.13702L28.2396 10.4921C28.983 11.7534 28.983 13.3189 28.2396 14.5802L23.3155 22.9353C22.5917 24.1633 21.2726 24.917 19.8472 24.917H9.85426C8.42882 24.917 7.10971 24.1633 6.38597 22.9353L1.46183 14.5802Z" fill="#FF133E"/>
<path fill-rule="evenodd" clip-rule="evenodd" d="M10.7959 7.35503V5.9322L16.9455 5.4006C19.0792 5.22562 21.1757 6.83066 21.1757 9.20127V16.5897C21.1757 17.7123 19.7727 18.7432 18.0422 18.8923C16.3116 19.0413 14.9087 18.2521 14.9087 17.1295V15.0968L16.4755 14.9619C18.206 14.8128 19.6089 13.3551 19.6089 11.2886V10.2723C19.6089 8.51069 18.206 7.39373 16.4755 7.54278L12.3627 7.89766V17.3325C12.3627 18.4551 10.9598 19.486 9.2292 19.635C7.4986 19.784 6.0957 18.9948 6.0957 17.8723C6.0957 16.7496 7.4986 15.7188 9.2292 15.5697C10.0945 15.4952 10.7959 14.9798 10.7959 14.4185V8.03257V7.35503ZM15.508 13.0189C15.4415 13.0657 15.348 13.0849 15.2524 13.0748C15.2111 13.0704 15.1694 13.0606 15.1293 13.0452C14.9964 12.994 14.9087 12.8918 14.9087 12.7881V9.78405C14.9087 9.69372 14.9755 9.61748 15.0835 9.58447C15.136 9.56847 15.1942 9.56389 15.2525 9.57003C15.3141 9.57652 15.3756 9.59504 15.4302 9.62483L17.6477 10.9171C17.7355 10.9649 17.795 11.0363 17.8101 11.1118C17.8251 11.1872 17.7941 11.2589 17.7255 11.3071L15.508 13.0189Z" fill="url(#paint0_linear_222_216)"/>
<path fill-rule="evenodd" clip-rule="evenodd" d="M10.7959 7.35503V5.9322L16.9455 5.4006C19.0792 5.22562 21.1757 6.83066 21.1757 9.20127V16.5897C21.1757 17.7123 19.7727 18.7432 18.0422 18.8923C16.3116 19.0413 14.9087 18.2521 14.9087 17.1295V15.0968L16.4755 14.9619C18.206 14.8128 19.6089 13.3551 19.6089 11.2886V10.2723C19.6089 8.51069 18.206 7.39373 16.4755 7.54278L12.3627 7.89766V17.3325C12.3627 18.4551 10.9598 19.486 9.2292 19.635C7.4986 19.784 6.0957 18.9948 6.0957 17.8723C6.0957 16.7496 7.4986 15.7188 9.2292 15.5697C10.0945 15.4952 10.7959 14.9798 10.7959 14.4185V8.03257V7.35503ZM15.508 13.0189C15.4415 13.0657 15.348 13.0849 15.2524 13.0748C15.2111 13.0704 15.1694 13.0606 15.1293 13.0452C14.9964 12.994 14.9087 12.8918 14.9087 12.7881V9.78405C14.9087 9.69372 14.9755 9.61748 15.0835 9.58447C15.136 9.56847 15.1942 9.56389 15.2525 9.57003C15.3141 9.57652 15.3756 9.59504 15.4302 9.62483L17.6477 10.9171C17.7355 10.9649 17.795 11.0363 17.8101 11.1118C17.8251 11.1872 17.7941 11.2589 17.7255 11.3071L15.508 13.0189Z" fill="#181818"/>
<path d="M42.1774 7.89484C43.0697 7.89484 43.8447 8.04515 44.5023 8.34573C45.16 8.63694 45.6672 9.05965 46.024 9.61386C46.3808 10.1587 46.5595 10.8021 46.5595 11.5442C46.5595 12.2863 46.3808 12.9298 46.024 13.4746C45.6672 14.0195 45.16 14.4422 44.5023 14.7427C43.8447 15.034 43.0697 15.1795 42.1774 15.1795H40.4583V17.7581H37.6685V7.89484H42.1774ZM42.0083 12.9815C42.5813 12.9815 43.0134 12.8593 43.3046 12.6151C43.5958 12.3615 43.7414 12.0045 43.7414 11.5442C43.7414 11.0839 43.5958 10.727 43.3046 10.4734C43.0134 10.2197 42.5813 10.0929 42.0083 10.0929H40.4583V12.9815H42.0083ZM47.9197 7.89484H50.7096V15.5459H55.4158V17.7581H47.9197V7.89484ZM63.2384 15.8418H59.0677L58.2927 17.7581H55.4465L59.8004 7.89484H62.548L66.916 17.7581H64.0134L63.2384 15.8418ZM62.4212 13.7846L61.153 10.6284L59.8849 13.7846H62.4212ZM72.3715 14.2214V17.7581H69.5816V14.1791L65.8195 7.89484H68.7644L71.1033 11.812L73.4423 7.89484H76.1477L72.3715 14.2214ZM76.816 7.89484H79.6059V15.5459H84.312V17.7581H76.816V7.89484ZM85.4161 7.89484H88.206V17.7581H85.4161V7.89484ZM93.657 17.9553C92.8583 17.9553 92.0834 17.8567 91.3321 17.6594C90.5807 17.4622 89.9698 17.1991 89.5003 16.8704L90.4162 14.8132C90.8575 15.1044 91.3698 15.3392 91.952 15.5177C92.5343 15.6962 93.1074 15.7854 93.6711 15.7854C94.7419 15.7854 95.2774 15.5177 95.2774 14.9823C95.2774 14.7005 95.1224 14.4938 94.8124 14.3623C94.5119 14.2214 94.0233 14.0758 93.347 13.9255C92.6047 13.7658 91.9847 13.5967 91.487 13.4183C90.9894 13.2304 90.5616 12.9345 90.2048 12.5306C89.848 12.1266 89.6694 11.5818 89.6694 10.8961C89.6694 10.2949 89.8339 9.75476 90.1626 9.27569C90.4912 8.78721 90.9798 8.40209 91.628 8.12028C92.2857 7.83847 93.0888 7.69757 94.0374 7.69757C94.6856 7.69757 95.3242 7.7727 95.9537 7.92302C96.5832 8.06392 97.1373 8.27528 97.6164 8.55708L96.7568 10.6284C95.8173 10.1211 94.9065 9.86748 94.0233 9.86748C93.4693 9.86748 93.0652 9.95203 92.8115 10.1211C92.5579 10.2808 92.4311 10.4921 92.4311 10.7552C92.4311 11.0182 92.5816 11.2155 92.882 11.347C93.1824 11.4785 93.6665 11.6147 94.3333 11.7556C95.0846 11.9153 95.7046 12.0891 96.1932 12.2769C96.6909 12.4554 97.1187 12.7466 97.4755 13.1505C97.8418 13.5451 98.025 14.0852 98.025 14.7709C98.025 15.3627 97.8604 15.8982 97.5318 16.3772C97.2032 16.8563 96.71 17.2414 96.0523 17.5326C95.3946 17.8144 94.5965 17.9553 93.657 17.9553ZM101.276 10.107H98.2464V7.89484H107.081V10.107H104.066V17.7581H101.276V10.107ZM116.039 15.6023V17.7581H108.12V7.89484H115.856V10.0507H110.882V11.7133H115.264V13.7987H110.882V15.6023H116.039ZM121.899 15.1373H120.377V17.7581H117.587V7.89484H122.096C122.989 7.89484 123.764 8.04515 124.421 8.34573C125.078 8.63694 125.586 9.05965 125.943 9.61386C126.3 10.1587 126.478 10.8021 126.478 11.5442C126.478 12.2582 126.309 12.8828 125.971 13.4183C125.642 13.9443 125.168 14.3576 124.548 14.6582L126.676 17.7581H123.689L121.899 15.1373ZM123.66 11.5442C123.66 11.0839 123.514 10.727 123.224 10.4734C122.932 10.2197 122.5 10.0929 121.927 10.0929H120.377V12.9815H121.927C122.5 12.9815 122.932 12.8593 123.224 12.6151C123.514 12.3615 123.66 12.0045 123.66 11.5442Z" fill="#F4F4F5"/>
<path d="M129.017 17.8858C128.567 17.8858 128.186 17.7355 127.876 17.4349C127.566 17.1343 127.411 16.7539 127.411 16.2936C127.411 15.8239 127.562 15.4435 127.862 15.1523C128.172 14.861 128.557 14.7155 129.017 14.7155C129.487 14.7155 129.872 14.861 130.173 15.1523C130.473 15.4435 130.624 15.8239 130.624 16.2936C130.624 16.7539 130.469 17.1343 130.159 17.4349C129.858 17.7355 129.478 17.8858 129.017 17.8858Z" fill="#2EC4B6"/>
<path d="M136.91 17.8713C135.923 17.8713 135.031 17.6553 134.233 17.2232C133.443 16.7817 132.824 16.1805 132.373 15.4196C131.922 14.6493 131.696 13.7851 131.696 12.827C131.696 11.8689 131.922 11.0093 132.373 10.2485C132.824 9.47818 133.448 8.87702 134.247 8.4449C135.045 8.00342 135.937 7.78265 136.924 7.78265C137.694 7.78265 138.398 7.91415 139.037 8.17718C139.676 8.43081 140.221 8.81125 140.672 9.3185L139.756 10.2062C139.014 9.42654 138.088 9.03669 136.98 9.03669C136.247 9.03669 135.585 9.2011 134.993 9.52986C134.402 9.85862 133.937 10.3142 133.598 10.8966C133.269 11.4696 133.105 12.1131 133.105 12.827C133.105 13.5409 133.269 14.1891 133.598 14.7715C133.937 15.3445 134.402 15.7954 134.993 16.1241C135.585 16.4529 136.247 16.6173 136.98 16.6173C138.079 16.6173 139.004 16.2228 139.756 15.4337L140.672 16.3214C140.221 16.8287 139.671 17.2138 139.023 17.4768C138.384 17.7399 137.68 17.8713 136.91 17.8713ZM142.682 7.89538H144.091V16.5328H149.431V17.7586H142.682V7.89538ZM154.969 17.8713C153.654 17.8713 152.63 17.4956 151.897 16.7441C151.165 15.9926 150.798 14.9124 150.798 13.5033V7.89538H152.207V13.447C152.207 15.5605 153.133 16.6173 154.983 16.6173C155.885 16.6173 156.575 16.359 157.054 15.8423C157.533 15.3163 157.773 14.5178 157.773 13.447V7.89538H159.14V13.5033C159.14 14.9218 158.773 16.0067 158.041 16.7582C157.308 17.5003 156.284 17.8713 154.969 17.8713ZM168.665 12.6438C169.238 12.8035 169.689 13.0947 170.018 13.5174C170.347 13.9307 170.511 14.4568 170.511 15.0955C170.511 15.9504 170.187 16.6079 169.538 17.0682C168.9 17.5285 167.965 17.7586 166.734 17.7586H162.028V7.89538H166.453C167.58 7.89538 168.449 8.12082 169.059 8.57171C169.679 9.0226 169.989 9.64726 169.989 10.4457C169.989 10.9624 169.868 11.4086 169.623 11.7843C169.388 12.1601 169.069 12.4466 168.665 12.6438ZM163.437 9.03669V12.1929H166.326C167.049 12.1929 167.604 12.0614 167.989 11.7984C168.383 11.526 168.58 11.1315 168.58 10.6148C168.58 10.0982 168.383 9.70835 167.989 9.44531C167.604 9.17292 167.049 9.03669 166.326 9.03669H163.437ZM166.678 16.6173C167.477 16.6173 168.078 16.4858 168.482 16.2228C168.886 15.9597 169.088 15.5464 169.088 14.9828C169.088 13.8838 168.284 13.3343 166.678 13.3343H163.437V16.6173H166.678Z" fill="#D4D4D4"/>
<defs>
<linearGradient id="paint0_linear_222_216" x1="6.15242" y1="5.38756" x2="6.15242" y2="19.5457" gradientUnits="userSpaceOnUse">
<stop stop-color="white"/>
<stop offset="1" stop-color="#FFBFE2" stop-opacity="0.8"/>
</linearGradient>
</defs>
</svg>
