<svg width="299" height="393" fill="none" xmlns="http://www.w3.org/2000/svg"><g opacity=".2"><path d="M294.737 37.941H73.46a3.501 3.501 0 00-3.502 3.5v347.281a3.502 3.502 0 003.502 3.501h221.277a3.502 3.502 0 003.502-3.501V41.442c0-1.934-1.568-3.5-3.502-3.5z" fill="#fff"/><path d="M298.257 41.442v5.04H69.975v-5.04a3.5 3.5 0 013.503-3.5h221.276a3.505 3.505 0 013.503 3.5z" fill="#6D6E71"/><path d="M76.385 43.98a1.313 1.313 0 100-2.627 1.313 1.313 0 000 2.627z" fill="#FF2348"/><path d="M82.55 43.98a1.313 1.313 0 100-2.626 1.313 1.313 0 000 2.626z" fill="#FFA528"/><path d="M88.714 43.98a1.313 1.313 0 10.001-2.627 1.313 1.313 0 000 2.627z" fill="#00A659"/><path d="M208.258 46.325H76.192v77.391h132.066V46.325zM292.985 46.325H211.13v23.977h81.855V46.325zM292.985 72.717H211.13v23.977h81.855V72.717zM292.985 99.109H211.13v23.977h81.855V99.109zM298.292 366.951H69.94v12.968h228.352v-12.968z" fill="#A6A8AB"/><g style="mix-blend-mode:multiply"><path d="M193.231 80.453H92.83v1.207H193.23v-1.207zM193.231 83.323H92.83v1.207H193.23v-1.207zM193.231 86.175H92.83v1.208H193.23v-1.208zM193.231 89.028H92.83v1.208H193.23v-1.208zM193.231 91.95H92.83v1.209H193.23V91.95zM193.231 94.856H92.83v1.208H193.23v-1.208zM193.231 97.779H92.83v1.208H193.23v-1.208zM175.088 71.054h-64.08v3.903h64.08v-3.903z" fill="#929497"/></g><path d="M292.04 277.238H75.615v77.392H292.04v-77.392z" fill="#A6A8AB"/><g style="mix-blend-mode:multiply"><path d="M267.451 311.384H102.9v1.207h164.551v-1.207zM267.451 314.236H102.9v1.208h164.551v-1.208zM267.451 317.089H102.9v1.208h164.551v-1.208zM267.451 319.959H102.9v1.208h164.551v-1.208zM267.451 322.865H102.9v1.207h164.551v-1.207zM267.451 325.787H102.9v1.208h164.551v-1.208zM267.451 328.71H102.9v1.208h164.551v-1.208zM237.679 301.968H132.672v3.903h105.007v-3.903z" fill="#929497"/></g><path d="M293.195 126.744H75.369v34.687h217.826v-34.687z" fill="#D0D2D3"/><path d="M169.501 137.542H88.627c-1.874 0-3.38-.56-3.38-1.26s1.506-1.278 3.38-1.278H169.5c1.874 0 3.38.578 3.38 1.278 0 .7-1.471 1.26-3.38 1.26zM139.975 142.862H88.627c-1.874 0-3.38-.577-3.38-1.277s1.506-1.26 3.38-1.26h51.348c1.856 0 3.38.56 3.38 1.26.035.77-1.524 1.277-3.38 1.277z" fill="#fff"/><path opacity=".56" d="M203.266 146.328H85.246v.945h118.02v-.945zM203.266 149.478H85.246v.945h118.02v-.945zM203.266 152.628H85.246v.945h118.02v-.945zM189.536 372.236H77.681v.945h111.855v-.945zM189.536 375.386H77.681v.945h111.855v-.945z" fill="#F0F1F1"/><path d="M181.165 225.399H75.369v48.549h105.796v-48.549z" fill="#D0D2D3"/><path d="M119.835 243.863H86.893a1.311 1.311 0 01-1.384-1.26 1.327 1.327 0 011.384-1.277h32.942a1.311 1.311 0 011.366 1.277 1.324 1.324 0 01-.422.913 1.316 1.316 0 01-.944.347zM107.803 249.113h-20.91a1.31 1.31 0 01-1.384-1.26 1.332 1.332 0 011.384-1.277h20.91a1.33 1.33 0 011.366 1.277 1.315 1.315 0 01-1.366 1.26z" fill="#fff"/><path opacity=".56" d="M133.565 252.596H85.509v.946h48.056v-.946zM133.565 255.747H85.509v.945h48.056v-.945zM133.565 258.897H85.509v.945h48.056v-.945z" fill="#F0F1F1"/><path d="M291.479 225.399H185.683v48.549h105.796v-48.549z" fill="#D0D2D3"/><path d="M230.131 243.863h-32.942a1.322 1.322 0 01-.944-.347 1.324 1.324 0 01-.422-.913c.005-.174.044-.345.115-.504a1.333 1.333 0 01.741-.692c.163-.061.336-.088.51-.081h32.942a1.332 1.332 0 011.384 1.277 1.31 1.31 0 01-.872 1.186 1.31 1.31 0 01-.512.074zM218.1 249.113h-20.911a1.303 1.303 0 01-.944-.347 1.315 1.315 0 01-.422-.913 1.331 1.331 0 011.366-1.277H218.1c.175-.007.349.02.513.081a1.318 1.318 0 01.749.691c.074.159.115.331.121.505a1.308 1.308 0 01-.871 1.186 1.293 1.293 0 01-.512.074z" fill="#fff"/><path opacity=".56" d="M243.861 252.596h-48.055v.946h48.055v-.946zM243.861 255.747h-48.055v.945h48.055v-.945zM243.861 258.897h-48.055v.945h48.055v-.945z" fill="#F0F1F1"/><path opacity=".49" d="M116.14 195.909H83.39a.98.98 0 00-.98.98v1.05c0 .542.439.98.98.98h32.75a.98.98 0 00.98-.98v-1.05a.98.98 0 00-.98-.98z" fill="#808184"/><g opacity=".5" fill="#929497"><path opacity=".35" d="M117.12 201.02H82.41v.91h34.71v-.91zM117.12 203.19H82.41v.91h34.71v-.91zM117.12 205.378H82.41v.91h34.71v-.91zM117.12 207.548H82.41v.91h34.71v-.91z"/></g><path opacity=".35" d="M96.753 184.358a7.155 7.155 0 01-4.422 6.613 7.168 7.168 0 01-7.806-1.551 7.159 7.159 0 01-1.553-7.801 7.164 7.164 0 016.618-4.419 7.182 7.182 0 017.163 7.158z" fill="#929497"/><path d="M94.16 214.811H83.847a1.419 1.419 0 01-1.419-1.418 1.438 1.438 0 011.419-1.435h10.262a1.437 1.437 0 011.419 1.435 1.416 1.416 0 01-1.366 1.418z" fill="#58595B"/><path opacity=".49" d="M171.218 195.909h-32.749a.98.98 0 00-.981.98v1.05c0 .542.439.98.981.98h32.749a.98.98 0 00.98-.98v-1.05a.98.98 0 00-.98-.98z" fill="#808184"/><g opacity=".5" fill="#929497"><path opacity=".35" d="M172.198 201.02h-34.71v.91h34.71v-.91zM172.198 203.19h-34.71v.91h34.71v-.91zM172.198 205.378h-34.71v.91h34.71v-.91zM172.198 207.548h-34.71v.91h34.71v-.91z"/></g><path opacity=".35" d="M151.831 184.358a7.17 7.17 0 01-4.425 6.644 7.18 7.18 0 01-7.833-1.552 7.17 7.17 0 011.099-11.048 7.184 7.184 0 019.056.9 7.174 7.174 0 012.103 5.056z" fill="#929497"/><path d="M149.414 214.811h-10.263a1.44 1.44 0 01-1.436-1.418 1.438 1.438 0 011.436-1.435h10.263a1.439 1.439 0 011.419 1.435 1.42 1.42 0 01-1.419 1.418z" fill="#58595B"/><path opacity=".49" d="M226.296 195.909h-32.749a.98.98 0 00-.981.98v1.05c0 .542.439.98.981.98h32.749a.98.98 0 00.981-.98v-1.05a.98.98 0 00-.981-.98z" fill="#808184"/><g opacity=".5" fill="#929497"><path opacity=".35" d="M227.277 201.02h-34.711v.91h34.711v-.91zM227.277 203.19h-34.711v.91h34.711v-.91zM227.277 205.378h-34.711v.91h34.711v-.91zM227.277 207.548h-34.711v.91h34.711v-.91z"/></g><path opacity=".35" d="M206.892 184.358a7.156 7.156 0 01-4.422 6.613 7.169 7.169 0 01-7.806-1.551 7.153 7.153 0 011.085-11.013 7.164 7.164 0 013.98-1.207 7.174 7.174 0 017.163 7.158z" fill="#929497"/><path d="M204.773 214.811H194.51a1.423 1.423 0 01-1.419-1.418 1.436 1.436 0 011.419-1.435h10.263c.377.005.738.158 1.004.426.265.269.414.632.414 1.009a1.418 1.418 0 01-1.418 1.418z" fill="#58595B"/><path opacity=".49" d="M281.357 195.909h-32.75a.98.98 0 00-.98.98v1.05c0 .542.439.98.98.98h32.75a.98.98 0 00.98-.98v-1.05a.98.98 0 00-.98-.98z" fill="#808184"/><g opacity=".35" fill="#929497"><path opacity=".35" d="M282.337 201.02h-34.71v.91h34.71v-.91zM282.337 203.19h-34.71v.91h34.71v-.91zM282.337 205.378h-34.71v.91h34.71v-.91zM282.337 207.548h-34.71v.91h34.71v-.91z"/></g><path opacity=".35" d="M261.97 184.358a7.155 7.155 0 01-4.422 6.613 7.166 7.166 0 01-7.806-1.551 7.153 7.153 0 011.086-11.013 7.161 7.161 0 013.979-1.207 7.174 7.174 0 017.163 7.158z" fill="#929497"/><path d="M259.571 214.811h-10.263a1.418 1.418 0 01-1.418-1.418 1.43 1.43 0 011.418-1.435h10.263a1.437 1.437 0 011.436 1.435 1.437 1.437 0 01-1.436 1.418z" fill="#58595B"/></g><path d="M225.286.142H4.009a3.501 3.501 0 00-3.502 3.5v347.281c0 1.933 1.568 3.5 3.502 3.5h221.277a3.501 3.501 0 003.502-3.5V3.643c0-1.934-1.568-3.5-3.502-3.5z" fill="#fff"/><path d="M228.788 3.642v5.04H.507v-5.04a3.5 3.5 0 013.502-3.5h221.276a3.505 3.505 0 013.503 3.5z" fill="#6D6E71"/><path d="M6.934 6.18a1.313 1.313 0 10.001-2.626 1.313 1.313 0 000 2.626z" fill="#FF2348"/><path d="M13.099 6.18a1.313 1.313 0 100-2.626 1.313 1.313 0 000 2.626z" fill="#FFA528"/><path d="M19.263 6.18a1.313 1.313 0 10.001-2.626 1.313 1.313 0 000 2.626z" fill="#00A659"/><path d="M228.841 8.525H.489v77.391h228.352V8.526z" fill="#D9DADB"/><path d="M228.841 329.151H.489v12.969h228.352v-12.969z" fill="#A6A8AB"/><path opacity=".35" d="M27.844 131.753c7.255 0 13.135-5.877 13.135-13.126 0-7.25-5.88-13.126-13.135-13.126-7.254 0-13.134 5.876-13.134 13.126 0 7.249 5.88 13.126 13.134 13.126zM130.733 131.753c7.254 0 13.135-5.877 13.135-13.126 0-7.25-5.881-13.126-13.135-13.126s-13.135 5.876-13.135 13.126c0 7.249 5.881 13.126 13.135 13.126zM98.912 109.368H47.984v1.208h50.928v-1.208zM98.912 112.221H47.984v1.208h50.928v-1.208zM98.912 115.074H47.984v1.208h50.928v-1.208zM98.912 117.927H47.984v1.207h50.928v-1.207zM98.912 120.849H47.984v1.208h50.928v-1.208zM98.912 123.772H47.984v1.208h50.928v-1.208zM98.912 126.677H47.984v1.208h50.928v-1.208z" fill="#B7B7B7"/><g style="mix-blend-mode:multiply"><path d="M164.866 42.67H64.464v1.208h100.402v-1.207zM164.866 45.523H64.464v1.208h100.402v-1.208zM164.866 48.376H64.464v1.208h100.402v-1.208zM164.866 51.229H64.464v1.207h100.402V51.23zM164.866 54.152H64.464v1.207h100.402v-1.207zM164.866 57.074H64.464v1.208h100.402v-1.208zM164.866 59.98H64.464v1.207h100.402V59.98zM146.705 33.255h-64.08v3.903h64.08v-3.903z" fill="#929497"/></g><path opacity=".35" d="M203.552 109.368h-50.928v1.208h50.928v-1.208zM203.552 112.221h-50.928v1.208h50.928v-1.208zM203.552 115.074h-50.928v1.208h50.928v-1.208zM203.552 117.927h-50.928v1.207h50.928v-1.207zM203.552 120.849h-50.928v1.208h50.928v-1.208zM203.552 123.772h-50.928v1.208h50.928v-1.208zM203.552 126.677h-50.928v1.208h50.928v-1.208z" fill="#B7B7B7"/><path d="M108.684 150.532H11.05v48.549h97.634v-48.549z" fill="#FF1241"/><path d="M52.082 168.926H21.68a1.279 1.279 0 01-1.278-1.26 1.28 1.28 0 011.278-1.278h30.402a1.28 1.28 0 011.261 1.278 1.261 1.261 0 01-1.26 1.26zM40.98 174.246H21.714a1.277 1.277 0 01-1.279-1.277 1.279 1.279 0 011.279-1.261h19.264a1.26 1.26 0 011.261 1.261 1.278 1.278 0 01-1.26 1.277z" fill="#fff"/><path opacity=".56" d="M64.762 177.711h-44.36v.946h44.36v-.946zM64.762 180.862h-44.36v.945h44.36v-.945zM64.762 184.012h-44.36v.945h44.36v-.945z" fill="#F0F1F1"/><path d="M217.492 264.571H11.05v34.688h206.442v-34.688z" fill="#FF1241"/><path d="M100.278 275.369H23.606c-1.751 0-3.205-.577-3.205-1.277s1.436-1.26 3.205-1.26h76.672c1.751 0 3.205.56 3.205 1.26s-1.436 1.277-3.205 1.277zM72.275 280.672H23.606c-1.751 0-3.205-.56-3.205-1.26s1.436-1.277 3.205-1.277h48.669c1.751 0 3.205.577 3.205 1.277s-1.436 1.26-3.205 1.26z" fill="#fff"/><path opacity=".56" d="M132.257 284.138H20.401v.945h111.856v-.945zM132.257 287.305H20.401v.945h111.856v-.945zM132.257 290.456H20.401v.945h111.856v-.945zM120.085 334.437H8.23v.945h111.855v-.945zM120.085 337.587H8.23v.945h111.855v-.945z" fill="#F0F1F1"/><path d="M217.335 150.532H119.7v48.549h97.635v-48.549z" fill="#FF1241"/><path d="M160.733 168.926H130.33a1.277 1.277 0 01-1.278-1.26 1.278 1.278 0 011.278-1.278h30.403a1.277 1.277 0 011.261 1.278 1.26 1.26 0 01-1.261 1.26zM149.63 174.246h-19.265a1.278 1.278 0 01-1.278-1.277c.005-.336.141-.657.38-.893.24-.235.562-.368.898-.368h19.265a1.258 1.258 0 011.26 1.261 1.278 1.278 0 01-1.26 1.277z" fill="#fff"/><path opacity=".56" d="M173.412 177.711h-44.36v.946h44.36v-.946zM173.412 180.862h-44.36v.945h44.36v-.945zM173.412 184.012h-44.36v.945h44.36v-.945z" fill="#F0F1F1"/><path opacity=".49" d="M46.688 232.771H13.94a.98.98 0 00-.98.98v1.05c0 .541.439.98.98.98h32.75a.98.98 0 00.98-.98v-1.05a.98.98 0 00-.98-.98z" fill="#808184"/><g opacity=".5" fill="#929497"><path opacity=".35" d="M47.67 237.899H12.957v.91H47.67v-.91zM47.67 240.069H12.957v.91H47.67v-.91zM47.67 242.257H12.957v.91H47.67v-.91zM47.67 244.427H12.957v.91H47.67v-.91z"/></g><path opacity=".35" d="M27.302 221.255a7.172 7.172 0 01-4.425 6.644 7.19 7.19 0 01-7.833-1.553 7.17 7.17 0 01-1.553-7.828 7.18 7.18 0 016.648-4.421 7.159 7.159 0 017.163 7.158z" fill="#929497"/><path d="M24.71 251.778H14.447a1.42 1.42 0 01-1.418-1.418 1.435 1.435 0 011.418-1.435H24.71a1.436 1.436 0 011.418 1.435 1.416 1.416 0 01-1.418 1.418z" fill="#58595B"/><path opacity=".49" d="M101.767 232.771h-32.75a.98.98 0 00-.98.98v1.05c0 .541.439.98.98.98h32.75a.98.98 0 00.98-.98v-1.05a.98.98 0 00-.98-.98z" fill="#808184"/><g opacity=".5" fill="#929497"><path opacity=".35" d="M102.747 237.899h-34.71v.91h34.71v-.91zM102.747 240.069h-34.71v.91h34.71v-.91zM102.747 242.257h-34.71v.91h34.71v-.91zM102.747 244.427h-34.71v.91h34.71v-.91z"/></g><path opacity=".35" d="M82.38 221.255a7.17 7.17 0 01-4.42 6.642 7.182 7.182 0 01-9.802-5.218 7.169 7.169 0 013.05-7.372 7.185 7.185 0 019.063.885 7.174 7.174 0 012.109 5.063z" fill="#929497"/><path d="M79.963 251.778H69.701a1.435 1.435 0 01-1.437-1.418 1.434 1.434 0 011.437-1.435h10.262a1.436 1.436 0 011.419 1.435 1.417 1.417 0 01-1.419 1.418z" fill="#58595B"/><path opacity=".49" d="M156.845 232.771h-32.749a.98.98 0 00-.981.98v1.05c0 .541.439.98.981.98h32.749a.981.981 0 00.981-.98v-1.05c0-.541-.44-.98-.981-.98z" fill="#808184"/><g opacity=".5" fill="#929497"><path opacity=".35" d="M157.826 237.899h-34.711v.91h34.711v-.91zM157.826 240.069h-34.711v.91h34.711v-.91zM157.826 242.257h-34.711v.91h34.711v-.91zM157.826 244.427h-34.711v.91h34.711v-.91z"/></g><path opacity=".35" d="M137.44 221.255a7.16 7.16 0 01-8.56 7.021 7.156 7.156 0 011.398-14.179 7.159 7.159 0 017.162 7.158z" fill="#929497"/><path d="M135.321 251.778h-10.262c-.378 0-.741-.149-1.009-.415a1.429 1.429 0 01-.427-1.003 1.435 1.435 0 011.436-1.435h10.262a1.435 1.435 0 011.419 1.435 1.417 1.417 0 01-1.419 1.418z" fill="#58595B"/><path opacity=".49" d="M211.905 232.771h-32.749a.98.98 0 00-.98.98v1.05c0 .541.439.98.98.98h32.749a.98.98 0 00.981-.98v-1.05a.98.98 0 00-.981-.98z" fill="#808184"/><g opacity=".35" fill="#929497"><path opacity=".35" d="M212.886 237.899h-34.71v.91h34.71v-.91zM212.886 240.069h-34.71v.91h34.71v-.91zM212.886 242.257h-34.71v.91h34.71v-.91zM212.886 244.427h-34.71v.91h34.71v-.91z"/></g><path opacity=".35" d="M192.484 221.255a7.173 7.173 0 01-4.425 6.644 7.188 7.188 0 01-7.833-1.553 7.175 7.175 0 015.095-12.249 7.16 7.16 0 017.163 7.158z" fill="#929497"/><path d="M190.119 251.778h-10.262a1.42 1.42 0 01-1.419-1.418 1.434 1.434 0 011.419-1.435h10.262a1.437 1.437 0 011.419 1.435 1.416 1.416 0 01-1.419 1.418z" fill="#58595B"/></svg>