<svg width="164" height="27" viewBox="0 0 164 27" fill="none" xmlns="http://www.w3.org/2000/svg">
<path d="M24.8826 0.236136H22.5283C21.1121 5.06201 19.0465 11.9626 19.0465 11.9626C18.6496 13.6133 17.0169 15.3903 14.816 16.4727C12.3264 17.7356 9.70141 17.5551 8.29423 16.166C7.63158 15.6425 7.16964 14.9066 6.98628 14.0823C6.52624 11.7551 8.70921 9.39176 11.9385 8.57994C12.155 8.52581 12.3714 8.47169 12.5969 8.43561C12.9464 8.37575 13.2986 8.33359 13.6523 8.30931C14.8803 8.21799 16.1132 8.40293 17.2604 8.85053L17.3958 8.92268L19.8042 0.200047H2.75574C2.26021 0.185364 1.77889 0.366453 1.41591 0.704109C1.05293 1.04177 0.837537 1.50881 0.816406 2.00411V17.9159C0.837537 18.4112 1.05293 18.8783 1.41591 19.216C1.77889 19.5536 2.26021 19.7347 2.75574 19.72H24.8826C25.3782 19.7347 25.8595 19.5536 26.2225 19.216C26.5855 18.8783 26.8009 18.4112 26.822 17.9159V2.07626C26.8162 1.82789 26.7613 1.58312 26.6605 1.35602C26.5598 1.12893 26.4151 0.923976 26.2349 0.752971C26.0547 0.581965 25.8424 0.448271 25.6103 0.359571C25.3783 0.27087 25.131 0.228935 24.8826 0.236136ZM13.6072 2.4461C13.8981 2.46022 14.1784 2.55937 14.4135 2.73126C14.6486 2.90315 14.8281 3.14023 14.9298 3.41312C15.0314 3.68602 15.0508 3.98274 14.9855 4.26654C14.9202 4.55034 14.773 4.80875 14.5623 5.00974C14.3515 5.21073 14.0865 5.34548 13.7999 5.3973C13.5133 5.44912 13.2179 5.41575 12.9501 5.30129C12.6823 5.18682 12.4539 4.9963 12.2934 4.75334C12.1328 4.51039 12.0471 4.22567 12.0467 3.93445C12.0584 3.53717 12.2239 3.15996 12.5083 2.8823C12.7926 2.60465 13.1737 2.44826 13.5712 2.4461H13.6072ZM9.09706 2.4461C9.38744 2.46196 9.6668 2.56256 9.90065 2.73544C10.1345 2.90833 10.3126 3.14593 10.4129 3.41891C10.5132 3.69188 10.5314 3.98825 10.4651 4.27141C10.3988 4.55458 10.251 4.81211 10.04 5.01222C9.82897 5.21232 9.56392 5.34623 9.27764 5.39739C8.99136 5.44854 8.69639 5.4147 8.42912 5.30005C8.16186 5.1854 7.93403 4.99496 7.77379 4.75227C7.61356 4.50958 7.52796 4.22526 7.52753 3.93445C7.53933 3.52929 7.71108 3.14532 8.00519 2.86642C8.2993 2.58752 8.69185 2.43639 9.09706 2.4461ZM4.58689 5.41379C4.29563 5.39965 4.01493 5.30026 3.77967 5.12797C3.54441 4.95568 3.36496 4.71806 3.26358 4.44465C3.16219 4.17124 3.14335 3.87407 3.2094 3.59005C3.27546 3.30602 3.42352 3.04766 3.63515 2.84704C3.84677 2.64642 4.11267 2.5124 4.39982 2.4616C4.68696 2.4108 4.98265 2.44547 5.25026 2.5613C5.51787 2.67713 5.7456 2.86903 5.90509 3.11315C6.06458 3.35727 6.14882 3.64285 6.14739 3.93445C6.13562 4.33245 5.96863 4.71005 5.68206 4.98651C5.3955 5.26296 5.01215 5.41632 4.61398 5.41379H4.58689Z" fill="#FF1241"/>
<path opacity="0.25" d="M31.3054 8.00261L28.7075 3.37518V9.15721L31.6752 14.4251L26.1547 23.9866H22.7541H15.9437H15.1229L13.5624 21.2805H10.2249L13.4541 26.8731H15.168H27.8235L28.5722 25.5742L31.612 20.3154L35.0127 14.4251L31.3054 8.00261Z" fill="#FF1241"/>
<path d="M44.899 11.0875C43.6812 11.0875 42.7431 11.5295 42.7431 12.5578C42.7431 15.0294 48.8409 13.7666 48.8409 17.6814C48.8409 19.8192 46.9285 20.7754 44.8358 20.7754C43.2985 20.8028 41.8061 20.256 40.6504 19.2419L41.2728 18.0602C42.2704 18.9403 43.5507 19.4332 44.8809 19.4494C46.1708 19.4494 47.2082 18.9533 47.2262 17.8528C47.2894 15.2008 41.1736 16.5448 41.1916 12.6841C41.1916 10.6095 42.9957 9.71644 44.9892 9.71644C46.2216 9.71066 47.4299 10.0581 48.4711 10.7177L47.8486 11.9625C46.9636 11.4073 45.9436 11.1047 44.899 11.0875Z" fill="white"/>
<path d="M61.4782 15.2369C61.4871 16.3342 61.1699 17.4094 60.5668 18.3261C59.9637 19.2428 59.1018 19.9597 58.0906 20.3858C57.0794 20.812 55.9644 20.9281 54.8871 20.7195C53.8098 20.5109 52.8187 19.987 52.0396 19.2143C51.2606 18.4415 50.7285 17.4548 50.5111 16.3792C50.2937 15.3036 50.4008 14.1877 50.8186 13.1731C51.2365 12.1584 51.9463 11.2907 52.858 10.6801C53.7698 10.0696 54.8424 9.74355 55.9397 9.74351C56.6716 9.71197 57.4021 9.83214 58.0853 10.0964C58.7685 10.3608 59.3897 10.7635 59.9099 11.2794C60.43 11.7953 60.8378 12.4132 61.1077 13.0942C61.3776 13.7753 61.5037 14.5048 61.4782 15.2369ZM52.0159 15.2369C52.0477 16.0052 52.3046 16.7473 52.7546 17.3709C53.2046 17.9944 53.828 18.472 54.5472 18.7443C55.2664 19.0165 56.0497 19.0714 56.7999 18.9022C57.55 18.7329 58.2339 18.347 58.7666 17.7923C59.2992 17.2376 59.6571 16.5387 59.7958 15.7823C59.9345 15.0259 59.8479 14.2454 59.5468 13.5378C59.2456 12.8303 58.7431 12.2268 58.1018 11.8024C57.4605 11.378 56.7087 11.1513 55.9397 11.1507C55.4051 11.1368 54.8735 11.2348 54.3791 11.4386C53.8847 11.6424 53.4383 11.9473 53.0688 12.3338C52.6993 12.7204 52.4147 13.1799 52.2333 13.683C52.052 14.1861 51.9779 14.7215 52.0159 15.2549V15.2369Z" fill="white"/>
<path d="M74.3141 14.0372V20.7573H72.6904V14.4431C72.7306 14.026 72.6783 13.6052 72.5372 13.2106C72.3962 12.816 72.1699 12.4574 71.8745 12.1603C71.5791 11.8631 71.2218 11.6347 70.828 11.4914C70.4343 11.3481 70.0138 11.2934 69.5964 11.3311C69.1181 11.3239 68.643 11.4119 68.199 11.59C67.755 11.7682 67.3508 12.0328 67.01 12.3686C66.6692 12.7043 66.3986 13.1045 66.2139 13.5458C66.0292 13.9872 65.9341 14.4608 65.9342 14.9392V20.7844H64.3105V9.80666H65.9342V12.2331C66.3029 11.4413 66.9049 10.7811 67.6594 10.3409C68.4139 9.90082 69.2849 9.70179 70.1557 9.77057C72.7806 9.74351 74.3141 11.3311 74.3141 14.0372Z" fill="white"/>
<path d="M87.4477 9.80668V19.5757C87.4477 22.7689 85.2738 24.7804 81.9543 24.7804C80.3131 24.7766 78.7223 24.2134 77.4442 23.1838L78.1928 22.0021C79.2085 22.8935 80.5127 23.387 81.8641 23.3913C82.38 23.4399 82.9003 23.3769 83.3896 23.2064C83.879 23.036 84.3258 22.7621 84.6999 22.4035C85.0739 22.0449 85.3663 21.6099 85.5571 21.1282C85.748 20.6464 85.8329 20.1292 85.806 19.6118V17.952C85.4223 18.676 84.8399 19.2754 84.1272 19.6797C83.4145 20.0839 82.6012 20.2763 81.7829 20.2342C78.8333 20.2342 76.8037 18.0603 76.8037 14.9663C76.8037 11.8723 78.8153 9.76157 81.7379 9.74353C82.5632 9.69481 83.3853 9.88395 84.1064 10.2885C84.8275 10.693 85.4173 11.2959 85.806 12.0257V9.80668H87.4477ZM85.8331 15.0114C85.803 14.2779 85.5579 13.5695 85.1284 12.9742C84.6988 12.3789 84.1036 11.9231 83.417 11.6634C82.7304 11.4037 81.9825 11.3516 81.2665 11.5137C80.5505 11.6757 79.898 12.0446 79.3901 12.5747C78.8821 13.1047 78.5412 13.7723 78.4098 14.4946C78.2784 15.2168 78.3622 15.9618 78.6509 16.6367C78.9395 17.3117 79.4203 17.8869 80.0333 18.2908C80.6463 18.6946 81.3645 18.9093 82.0986 18.9082C82.6049 18.9152 83.1071 18.8179 83.5741 18.6224C84.0411 18.4269 84.463 18.1374 84.8133 17.7719C85.1636 17.4064 85.4349 16.9726 85.6103 16.4977C85.7858 16.0228 85.8616 15.5169 85.8331 15.0114Z" fill="white"/>
<path d="M102.764 15.2009C102.764 18.5745 100.708 20.8386 97.5775 20.8386C96.879 20.8691 96.1839 20.7261 95.5542 20.4222C94.9246 20.1184 94.3801 19.6633 93.9694 19.0976V24.7353H90.7761V9.52706H93.9694V11.1688C94.3662 10.6083 94.8965 10.1556 95.5123 9.85164C96.1282 9.54767 96.81 9.40203 97.4963 9.42785C100.653 9.45491 102.764 11.7551 102.764 15.2009ZM99.5258 15.0926C99.5705 14.7024 99.5321 14.3072 99.4133 13.9328C99.2945 13.5585 99.0979 13.2135 98.8364 12.9204C98.575 12.6273 98.2545 12.3928 97.8961 12.2323C97.5377 12.0717 97.1494 11.9887 96.7566 11.9887C96.3639 11.9887 95.9755 12.0717 95.6171 12.2323C95.2587 12.3928 94.9382 12.6273 94.6768 12.9204C94.4153 13.2135 94.2188 13.5585 94.0999 13.9328C93.9811 14.3072 93.9427 14.7024 93.9874 15.0926C93.9874 16.9418 95.1239 18.1866 96.7656 18.1866C98.4073 18.1866 99.5258 16.9147 99.5258 15.0926Z" fill="white"/>
<path d="M111.351 20.7122V19.4494C110.917 19.9449 110.375 20.3336 109.767 20.5855C109.158 20.8374 108.5 20.9455 107.842 20.9016C105.461 20.9016 104.009 19.4494 104.009 17.4198C104.009 15.3902 105.524 14.0823 108.257 14.0552H111.333V13.8478C111.333 12.6661 110.54 11.9896 109.006 11.9896C107.836 12.0318 106.694 12.3668 105.687 12.9638L104.694 10.7628C106.24 9.91464 107.974 9.47093 109.737 9.47291C112.722 9.47291 114.445 10.9703 114.463 13.4779V20.7573L111.351 20.7122ZM111.351 16.8966V15.9044H108.835C107.617 15.9044 107.031 16.2742 107.031 17.1672C107.031 18.0603 107.662 18.5474 108.772 18.5474C109.322 18.5981 109.873 18.463 110.337 18.1638C110.801 17.8646 111.152 17.4185 111.333 16.8966H111.351Z" fill="white"/>
<path d="M127.714 9.52705V19.6479C127.714 22.823 125.333 24.8345 121.761 24.8345C120.034 24.8353 118.345 24.3236 116.908 23.3642L118.09 21.1182C119.096 21.8506 120.309 22.2453 121.554 22.2457C123.358 22.2457 124.539 21.2715 124.539 19.7561V18.5474C124.158 19.0744 123.652 19.4987 123.066 19.782C122.48 20.0654 121.834 20.199 121.184 20.171C118.297 20.171 116.313 18.0152 116.313 14.7588C116.313 11.5025 118.261 9.47293 121.103 9.47293C121.764 9.43509 122.425 9.5629 123.025 9.84483C123.626 10.1268 124.146 10.5539 124.539 11.0876V9.52705H127.714ZM124.539 14.7949C124.577 14.4292 124.538 14.0597 124.424 13.7101C124.311 13.3605 124.125 13.0385 123.879 12.765C123.634 12.4914 123.334 12.2722 122.999 12.1216C122.663 11.971 122.3 11.8922 121.932 11.8904C121.566 11.8992 121.205 11.9824 120.871 12.1349C120.538 12.2875 120.239 12.5062 119.993 12.7779C119.746 13.0495 119.558 13.3684 119.438 13.7151C119.319 14.0618 119.271 14.4292 119.298 14.7949C119.261 15.1614 119.301 15.5316 119.416 15.8817C119.531 16.2318 119.717 16.5539 119.964 16.8272C120.211 17.1006 120.513 17.3191 120.85 17.4687C121.186 17.6182 121.551 17.6955 121.919 17.6955C122.287 17.6955 122.652 17.6182 122.988 17.4687C123.325 17.3191 123.626 17.1006 123.873 16.8272C124.12 16.5539 124.307 16.2318 124.422 15.8817C124.537 15.5316 124.577 15.1614 124.539 14.7949Z" fill="white"/>
<path d="M140.893 16.1119H132.883C133.028 16.7628 133.396 17.3427 133.923 17.7512C134.45 18.1597 135.103 18.3712 135.77 18.3489C136.295 18.3487 136.815 18.2441 137.3 18.0412C137.784 17.8384 138.224 17.5413 138.593 17.1673L140.271 18.8721C139.661 19.5207 138.92 20.0317 138.097 20.3708C137.274 20.7099 136.389 20.8694 135.499 20.8386C131.891 20.8386 129.672 18.5564 129.672 15.1738C129.627 14.4087 129.745 13.6428 130.018 12.9268C130.291 12.2107 130.714 11.5609 131.257 11.0202C131.8 10.4796 132.452 10.0604 133.169 9.79059C133.887 9.52075 134.653 9.40633 135.418 9.45492C139.333 9.45492 141.164 12.0437 140.893 16.1119ZM137.907 14.2176C137.921 13.8916 137.865 13.5664 137.745 13.2631C137.625 12.9597 137.443 12.6849 137.21 12.4563C136.977 12.2277 136.699 12.0504 136.393 11.9358C136.088 11.8213 135.762 11.772 135.436 11.7912C134.774 11.7916 134.137 12.0417 133.652 12.4916C133.167 12.9415 132.87 13.558 132.82 14.2176H137.907Z" fill="white"/>
<path d="M144.546 19.8193C144.537 20.0177 144.47 20.2091 144.353 20.3695C144.236 20.53 144.074 20.6523 143.888 20.7214C143.702 20.7904 143.499 20.8029 143.306 20.7575C143.113 20.7121 142.937 20.6107 142.801 20.466C142.665 20.3213 142.574 20.1397 142.541 19.944C142.508 19.7482 142.533 19.5469 142.613 19.3652C142.693 19.1836 142.825 19.0297 142.993 18.9228C143.16 18.8158 143.355 18.7605 143.554 18.7639C143.689 18.7662 143.822 18.7955 143.946 18.8501C144.069 18.9048 144.18 18.9836 144.273 19.082C144.365 19.1804 144.437 19.2963 144.484 19.423C144.531 19.5496 144.552 19.6844 144.546 19.8193Z" fill="white"/>
<path d="M149.417 6.66761C149.417 6.94751 149.306 7.21596 149.108 7.41389C148.91 7.61181 148.642 7.723 148.362 7.723C148.082 7.723 147.813 7.61181 147.616 7.41389C147.418 7.21596 147.306 6.94751 147.306 6.66761C147.306 6.3877 147.418 6.11928 147.616 5.92135C147.813 5.72343 148.082 5.61224 148.362 5.61224C148.642 5.61224 148.91 5.72343 149.108 5.92135C149.306 6.11928 149.417 6.3877 149.417 6.66761ZM149.174 9.80669V20.7123H147.559V9.80669H149.174Z" fill="white"/>
<path d="M163.092 15.2369C163.101 16.3342 162.784 17.4094 162.181 18.3261C161.578 19.2428 160.716 19.9597 159.705 20.3858C158.694 20.812 157.579 20.9281 156.501 20.7195C155.424 20.5109 154.433 19.987 153.654 19.2143C152.875 18.4415 152.343 17.4548 152.125 16.3792C151.908 15.3036 152.015 14.1877 152.433 13.1731C152.851 12.1584 153.56 11.2907 154.472 10.6801C155.384 10.0696 156.457 9.74355 157.554 9.74351C158.286 9.71197 159.016 9.83214 159.7 10.0964C160.383 10.3608 161.004 10.7635 161.524 11.2794C162.044 11.7953 162.452 12.4132 162.722 13.0942C162.992 13.7753 163.118 14.5048 163.092 15.2369ZM153.63 15.2369C153.662 16.0052 153.919 16.7473 154.369 17.3709C154.819 17.9944 155.442 18.472 156.161 18.7443C156.881 19.0165 157.664 19.0714 158.414 18.9022C159.164 18.7329 159.848 18.347 160.381 17.7923C160.913 17.2376 161.271 16.5387 161.41 15.7823C161.549 15.0259 161.462 14.2454 161.161 13.5378C160.86 12.8303 160.357 12.2268 159.716 11.8024C159.075 11.378 158.323 11.1513 157.554 11.1507C157.019 11.1368 156.488 11.2348 155.993 11.4386C155.499 11.6424 155.053 11.9473 154.683 12.3338C154.314 12.7204 154.029 13.1799 153.848 13.683C153.666 14.1861 153.592 14.7215 153.63 15.2549V15.2369Z" fill="white"/>
</svg>
