<svg width="148" height="29" viewBox="0 0 148 29" fill="none" xmlns="http://www.w3.org/2000/svg">
<path opacity="0.3" d="M29.1933 11.5045L28.8123 10.8525L27.6437 8.82013V14.2482L28.2195 15.2389L29.1595 16.8733L23.977 25.8494H20.7846H14.3912H13.6629H13.6121L12.5536 24.0118H9.42041L12.0455 28.5592H12.9601H13.6629H25.5436L26.2465 27.3398L29.1002 22.4029L32.2927 16.8733L29.1933 11.5045Z" fill="#FF1241"/>
<path d="M23.8751 5.18736C23.101 4.27246 22.1966 3.47642 21.1908 2.82479C20.9706 3.59538 20.7504 4.39136 20.5302 5.18736C20.2677 6.11885 20.0137 7.03341 19.7681 7.89715L18.4386 12.6901C18.122 13.6439 17.6119 14.5221 16.9401 15.2696C16.2684 16.0171 15.4496 16.6179 14.5349 17.0342C12.257 18.2621 9.83508 18.0927 8.53947 16.7463C7.92381 16.2334 7.50244 15.5251 7.34549 14.7393C7.25489 14.2584 7.27511 13.7632 7.40472 13.2913C7.60643 12.5467 7.99736 11.867 8.53947 11.3183C9.47173 10.3819 10.6435 9.71979 11.9267 9.40447C12.1215 9.35366 12.3247 9.30285 12.5364 9.26898L12.9174 9.20969C13.1122 9.20969 13.307 9.15891 13.5017 9.15044C14.6308 9.05582 15.7662 9.23293 16.8128 9.66698L16.9398 9.73471L17.4225 7.88868L18.1338 5.17891L19.0568 1.65619C17.2118 0.895902 15.2348 0.507404 13.2392 0.512999C6.00751 0.512999 0.13916 5.44988 0.13916 11.5215C0.169519 14.0888 1.18861 16.5456 2.98442 18.3806L2.41707 22.8433C2.39236 22.98 2.40502 23.1208 2.45377 23.2508C2.50251 23.3809 2.58549 23.4954 2.69395 23.5821C2.8024 23.6689 2.93232 23.7247 3.06991 23.7437C3.20749 23.7627 3.34766 23.7442 3.47558 23.6901L8.15839 21.7255C9.31423 22.1268 10.514 22.3884 11.7319 22.5046C12.2299 22.5557 12.7302 22.5812 13.2308 22.5808C20.3355 22.5808 26.1192 17.8217 26.3224 11.8856C26.3224 11.7755 26.3224 11.6654 26.3224 11.5554C26.2951 9.20821 25.4268 6.9487 23.8751 5.18736Z" fill="#FF1241"/>
<path d="M41.4636 13.5877C40.3204 13.5877 39.4397 14.0026 39.4397 14.9765C39.4397 17.2882 45.1641 16.1027 45.1641 19.7779C45.1641 21.7848 43.3689 22.6824 41.4043 22.6824C39.9611 22.7081 38.5601 22.1949 37.4751 21.2428L38.0594 20.1335C38.996 20.9597 40.1978 21.4224 41.4466 21.4376C42.6576 21.4376 43.6314 20.9719 43.6484 19.9388C43.7076 17.4491 37.9663 18.7109 37.9832 15.0865C37.9832 13.1389 39.6768 12.3005 41.5482 12.3005C42.7052 12.2951 43.8396 12.6213 44.8169 13.2405L44.2326 14.4091C43.4018 13.8879 42.4442 13.6038 41.4636 13.5877Z" fill="white"/>
<path d="M57.028 17.4999C57.0364 18.53 56.7386 19.5394 56.1724 20.4C55.6062 21.2606 54.7972 21.9336 53.8479 22.3336C52.8986 22.7336 51.8518 22.8427 50.8405 22.6469C49.8291 22.4511 48.8988 21.9592 48.1674 21.2338C47.436 20.5084 46.9365 19.582 46.7324 18.5723C46.5284 17.5626 46.6288 16.515 47.0211 15.5624C47.4134 14.6099 48.0797 13.7954 48.9357 13.2222C49.7916 12.649 50.7985 12.3429 51.8286 12.3429C52.5157 12.3133 53.2015 12.4261 53.8429 12.6742C54.4843 12.9223 55.0675 13.3004 55.5557 13.7847C56.044 14.269 56.4269 14.8491 56.6802 15.4884C56.9336 16.1278 57.052 16.8126 57.028 17.4999ZM48.145 17.4999C48.1749 18.2212 48.4161 18.9179 48.8386 19.5032C49.261 20.0886 49.8462 20.537 50.5214 20.7925C51.1966 21.0481 51.9319 21.0997 52.6362 20.9408C53.3404 20.7819 53.9824 20.4196 54.4824 19.8989C54.9825 19.3782 55.3185 18.722 55.4487 18.0119C55.5789 17.3018 55.4976 16.5691 55.2149 15.9049C54.9321 15.2406 54.4604 14.6741 53.8584 14.2757C53.2564 13.8772 52.5506 13.6645 51.8286 13.6639C51.3283 13.651 50.8308 13.7427 50.3679 13.9329C49.905 14.1232 49.4868 14.4079 49.1402 14.7689C48.7935 15.1299 48.526 15.5592 48.3546 16.0295C48.1833 16.4997 48.1119 17.0005 48.145 17.4999Z" fill="white"/>
<path d="M69.0781 16.3144V22.6231H67.5538V16.6955C67.5915 16.3039 67.5424 15.9089 67.41 15.5385C67.2776 15.168 67.0652 14.8314 66.7879 14.5524C66.5105 14.2734 66.1751 14.0591 65.8055 13.9245C65.4358 13.79 65.0411 13.7386 64.6493 13.774C64.2002 13.7673 63.7543 13.8499 63.3374 14.0171C62.9206 14.1843 62.5412 14.4328 62.2212 14.748C61.9013 15.0632 61.6473 15.4388 61.4739 15.8532C61.3005 16.2675 61.2112 16.7121 61.2113 17.1612V22.6485H59.687V12.4191H61.2113V14.6716C61.5574 13.9283 62.1225 13.3085 62.8309 12.8953C63.5392 12.4821 64.3568 12.2953 65.1743 12.3598C67.6385 12.326 69.0781 13.8248 69.0781 16.3144Z" fill="white"/>
<path d="M81.4073 12.4191V21.59C81.4073 24.5877 79.3665 26.4761 76.2503 26.4761C74.7096 26.4725 73.2161 25.9438 72.0163 24.9772L72.7191 23.8679C73.6865 24.6921 74.9202 25.1374 76.191 25.1212C76.6753 25.1668 77.1637 25.1076 77.6231 24.9476C78.0825 24.7876 78.502 24.5305 78.8531 24.1938C79.2043 23.8572 79.4787 23.4488 79.6579 22.9966C79.8371 22.5444 79.9168 22.0588 79.8915 21.573V20.0403C79.5313 20.72 78.9846 21.2826 78.3155 21.6622C77.6465 22.0417 76.8829 22.2223 76.1148 22.1827C73.3457 22.1827 71.4404 20.1419 71.4404 17.2374C71.4404 14.3329 73.3288 12.3513 76.0724 12.3344C76.8473 12.2886 77.619 12.4662 78.2959 12.846C78.9729 13.2257 79.5267 13.7917 79.8915 14.4768V12.4191H81.4073ZM79.8915 17.3051C79.8633 16.6166 79.6333 15.9515 79.23 15.3926C78.8267 14.8338 78.268 14.4059 77.6234 14.1621C76.9788 13.9183 76.2767 13.8694 75.6046 14.0215C74.9324 14.1736 74.3198 14.52 73.843 15.0176C73.3662 15.5151 73.0461 16.1419 72.9228 16.8199C72.7994 17.498 72.8781 18.1973 73.1491 18.8309C73.4201 19.4646 73.8714 20.0046 74.4468 20.3837C75.0223 20.7629 75.6966 20.9644 76.3858 20.9633C76.864 20.9702 77.3385 20.878 77.7794 20.6924C78.2202 20.5068 78.6179 20.2319 78.9473 19.8851C79.2766 19.5382 79.5306 19.1269 79.6931 18.6771C79.8556 18.2272 79.9232 17.7485 79.8915 17.2713V17.3051Z" fill="white"/>
<path d="M95.7863 17.4491C95.7863 20.6162 93.8556 22.7417 90.9172 22.7417C90.2615 22.7703 89.6089 22.6361 89.0178 22.3509C88.4267 22.0656 87.9156 21.6384 87.53 21.1073V22.6231H84.5322V8.18506H87.53V13.6978C87.9025 13.1716 88.4004 12.7467 88.9785 12.4613C89.5566 12.1759 90.1967 12.0392 90.8409 12.0634C93.8048 12.055 95.7863 14.2143 95.7863 17.4491ZM92.7463 17.3475C92.7881 16.9812 92.7522 16.6102 92.6406 16.2587C92.5291 15.9073 92.3445 15.5834 92.0991 15.3083C91.8536 15.0332 91.5528 14.813 91.2163 14.6623C90.8798 14.5116 90.5153 14.4336 90.1466 14.4336C89.7779 14.4336 89.4133 14.5116 89.0768 14.6623C88.7404 14.813 88.4395 15.0332 88.1941 15.3083C87.9486 15.5834 87.7641 15.9073 87.6526 16.2587C87.541 16.6102 87.505 16.9812 87.5469 17.3475C87.5469 19.0835 88.6138 20.2521 90.155 20.2521C91.6962 20.2521 92.7463 19.0581 92.7463 17.3475Z" fill="white"/>
<path d="M100.867 8.18506V22.6316H97.8691V8.18506H100.867Z" fill="white"/>
<path d="M114.204 17.3898C114.204 20.5823 111.951 22.7416 108.598 22.7416C105.245 22.7416 102.975 20.5823 102.975 17.3898C102.975 14.1973 105.228 12.0549 108.598 12.0549C111.968 12.0549 114.204 14.1719 114.204 17.3898ZM105.973 17.3898C106.022 17.8953 106.217 18.3756 106.533 18.7726C106.85 19.1697 107.275 19.4663 107.757 19.6266C108.239 19.7869 108.757 19.804 109.248 19.6758C109.74 19.5476 110.183 19.2797 110.525 18.9044C110.868 18.5291 111.094 18.0627 111.176 17.5616C111.258 17.0604 111.194 16.5462 110.99 16.0811C110.786 15.6161 110.451 15.2202 110.026 14.9414C109.602 14.6627 109.106 14.513 108.598 14.5107C108.227 14.5084 107.861 14.5846 107.522 14.7341C107.183 14.8837 106.88 15.1032 106.632 15.3784C106.384 15.6535 106.197 15.978 106.083 16.3305C105.97 16.683 105.932 17.0556 105.973 17.4237V17.3898Z" fill="white"/>
<path d="M125.983 12.1481V21.6493C125.983 24.63 123.748 26.5184 120.394 26.5184C118.773 26.5191 117.187 26.0388 115.838 25.1381L116.948 23.0296C117.893 23.7171 119.031 24.0877 120.199 24.0881C121.893 24.0881 123.002 23.1735 123.002 21.7509V20.5569C122.644 21.0517 122.169 21.4499 121.619 21.716C121.07 21.982 120.462 22.1075 119.852 22.0812C117.142 22.0812 115.271 20.0573 115.271 17.0003C115.271 13.9434 117.109 12.038 119.776 12.038C120.397 12.0025 121.018 12.1225 121.581 12.3872C122.145 12.6518 122.633 13.0528 123.002 13.5538V12.1312L125.983 12.1481ZM123.002 17.0935C123.038 16.7502 123.001 16.4033 122.894 16.0751C122.788 15.7469 122.613 15.4446 122.383 15.1878C122.152 14.9309 121.871 14.7252 121.556 14.5838C121.241 14.4424 120.9 14.3685 120.555 14.3667C120.211 14.375 119.872 14.4531 119.559 14.5963C119.246 14.7395 118.965 14.9449 118.734 15.1999C118.503 15.4549 118.326 15.7543 118.214 16.0798C118.102 16.4053 118.057 16.7501 118.082 17.0935C118.047 17.4375 118.085 17.7851 118.193 18.1137C118.3 18.4424 118.476 18.7447 118.708 19.0014C118.939 19.258 119.222 19.4631 119.539 19.6035C119.855 19.7439 120.197 19.8165 120.542 19.8165C120.888 19.8165 121.23 19.7439 121.546 19.6035C121.862 19.4631 122.145 19.258 122.377 19.0014C122.609 18.7447 122.784 18.4424 122.892 18.1137C123 17.7851 123.037 17.4375 123.002 17.0935Z" fill="white"/>
<path d="M130.217 21.7848C130.209 21.9707 130.146 22.1501 130.037 22.3005C129.927 22.451 129.776 22.5659 129.601 22.631C129.427 22.696 129.237 22.7084 129.056 22.6665C128.875 22.6245 128.71 22.5302 128.582 22.3952C128.454 22.2602 128.368 22.0905 128.336 21.9072C128.303 21.7239 128.326 21.5352 128.4 21.3645C128.474 21.1938 128.597 21.0487 128.753 20.9473C128.909 20.8458 129.091 20.7926 129.277 20.794C129.405 20.795 129.531 20.8217 129.648 20.8725C129.765 20.9233 129.87 20.9972 129.958 21.0896C130.046 21.1821 130.114 21.2914 130.158 21.4108C130.203 21.5302 130.223 21.6574 130.217 21.7848Z" fill="white"/>
<path d="M134.773 9.43835C134.773 9.70111 134.669 9.95311 134.483 10.1389C134.297 10.3247 134.045 10.4291 133.782 10.4291C133.52 10.4291 133.268 10.3247 133.082 10.1389C132.896 9.95311 132.792 9.70111 132.792 9.43835C132.792 9.17558 132.896 8.92356 133.082 8.73776C133.268 8.55195 133.52 8.44757 133.782 8.44757C134.045 8.44757 134.297 8.55195 134.483 8.73776C134.669 8.92356 134.773 9.17558 134.773 9.43835ZM134.544 12.3852V22.6231H133.046V12.4191L134.544 12.3852Z" fill="white"/>
<path d="M147.611 17.4999C147.619 18.53 147.322 19.5394 146.755 20.4C146.189 21.2606 145.38 21.9336 144.431 22.3336C143.482 22.7336 142.435 22.8427 141.423 22.6469C140.412 22.4511 139.482 21.9592 138.75 21.2338C138.019 20.5084 137.52 19.582 137.315 18.5723C137.111 17.5626 137.212 16.515 137.604 15.5624C137.996 14.6099 138.663 13.7954 139.519 13.2222C140.375 12.649 141.381 12.3429 142.412 12.3429C143.099 12.3133 143.785 12.4261 144.426 12.6742C145.067 12.9223 145.65 13.3004 146.139 13.7847C146.627 14.269 147.01 14.8491 147.263 15.4884C147.517 16.1278 147.635 16.8126 147.611 17.4999ZM138.728 17.4999C138.758 18.2212 138.999 18.9179 139.422 19.5032C139.844 20.0886 140.429 20.537 141.104 20.7925C141.78 21.0481 142.515 21.0997 143.219 20.9408C143.923 20.7819 144.565 20.4196 145.065 19.8989C145.565 19.3782 145.901 18.722 146.032 18.0119C146.162 17.3018 146.081 16.5691 145.798 15.9049C145.515 15.2406 145.043 14.6741 144.441 14.2757C143.839 13.8772 143.134 13.6645 142.412 13.6639C141.911 13.651 141.414 13.7427 140.951 13.9329C140.488 14.1232 140.07 14.4079 139.723 14.7689C139.376 15.1299 139.109 15.5592 138.938 16.0295C138.766 16.4997 138.695 17.0005 138.728 17.4999Z" fill="white"/>
</svg>
