<svg width="24" height="20" viewBox="0 0 24 20" fill="none" xmlns="http://www.w3.org/2000/svg">
<path d="M21.1751 4.98721C21.1751 5.21721 21.1751 5.37039 21.1751 5.60039C21.1751 11.8104 16.4218 19.0171 7.75844 19.0171C5.07511 19.0171 2.62176 18.2505 0.551758 16.8705C0.935091 16.9472 1.31842 16.9477 1.70176 16.9477C3.92509 16.9477 5.91841 16.1805 7.52841 14.9539C5.45841 14.8772 3.69511 13.574 3.15844 11.6574C3.46511 11.734 3.77174 11.7337 4.07841 11.7337C4.53841 11.7337 4.92172 11.6577 5.30505 11.581C3.15839 11.121 1.54846 9.28099 1.54846 6.98099V6.90387C2.1618 7.28721 2.92841 7.44039 3.69507 7.51706C2.39174 6.67372 1.62511 5.21736 1.62511 3.60736C1.62511 2.76402 1.85505 1.92099 2.23839 1.23099C4.53839 4.06766 8.06511 5.98387 11.9751 6.13721C11.8984 5.75387 11.8217 5.44766 11.8217 5.06432C11.8217 2.45766 13.8918 0.387207 16.4985 0.387207C17.8785 0.387207 19.1051 0.924173 19.9485 1.84417C21.0218 1.61417 22.0184 1.23084 22.9384 0.694173C22.5551 1.76751 21.8651 2.68706 20.8684 3.30039C21.7884 3.22372 22.7084 2.91706 23.5518 2.53372C22.9384 3.45372 22.0951 4.29721 21.1751 4.98721Z" fill="white"/>
</svg>
