<svg width="24" height="24" viewBox="0 0 24 24" fill="none" xmlns="http://www.w3.org/2000/svg">
<path fill-rule="evenodd" clip-rule="evenodd" d="M16.9678 16.6327C16.779 16.9433 16.3771 17.0346 16.0727 16.8519C13.6188 15.354 10.5378 15.013 6.90261 15.8472C6.54945 15.9264 6.20237 15.7072 6.12322 15.3601C6.04406 15.007 6.26326 14.6599 6.61034 14.5807C10.5865 13.6735 13.9963 14.0632 16.7486 15.7437C17.0591 15.9264 17.1565 16.3283 16.9678 16.6327ZM17.9785 12.6688C14.7575 10.6898 10.0445 10.1357 6.25109 11.2866C5.81877 11.4205 5.58129 11.8711 5.70916 12.3034C5.83703 12.7358 6.29371 12.9732 6.72603 12.8454C10.0445 11.8407 14.3251 12.34 17.1261 14.0632C17.5097 14.3006 18.009 14.1789 18.2465 13.7952C18.4779 13.4055 18.3622 12.9062 17.9785 12.6688ZM19.3486 9.14931C15.476 6.85375 9.3504 6.63455 5.66045 7.75493C5.14288 7.91324 4.85061 8.45517 5.00892 8.97273C5.16724 9.4903 5.70916 9.78257 6.22673 9.62426C9.44173 8.65002 14.9888 8.83269 18.3561 10.8299C18.8188 11.1039 19.4156 10.9517 19.6957 10.4889C19.9697 10.0261 19.8174 9.42941 19.3486 9.14931ZM23.7509 11.9868C23.7509 18.3925 18.557 23.5864 12.1514 23.5864C5.7457 23.5864 0.551758 18.3925 0.551758 11.9868C0.551758 5.58115 5.7457 0.387207 12.1514 0.387207C18.5631 0.387207 23.7509 5.58115 23.7509 11.9868ZM21.4371 11.9868C21.4371 9.50857 20.469 7.17647 18.7214 5.42283C16.9678 3.66919 14.6418 2.70713 12.1635 2.70713C9.6853 2.70713 7.3532 3.67528 5.59956 5.42283C3.84592 7.17647 2.88385 9.50248 2.88385 11.9868C2.88385 14.465 3.85201 16.7971 5.59956 18.5447C7.3532 20.2983 9.67921 21.2604 12.1635 21.2604C14.6418 21.2604 16.9739 20.2922 18.7214 18.5447C20.469 16.7971 21.4371 14.465 21.4371 11.9868Z" fill="white"/>
<path d="M16.9678 16.6327C16.779 16.9433 16.3771 17.0346 16.0727 16.8519C13.6188 15.354 10.5378 15.013 6.90261 15.8472C6.54945 15.9264 6.20237 15.7072 6.12322 15.3601C6.04406 15.007 6.26326 14.6599 6.61034 14.5807C10.5865 13.6735 13.9963 14.0632 16.7486 15.7437C17.0591 15.9264 17.1565 16.3283 16.9678 16.6327ZM17.9785 12.6688C14.7575 10.6898 10.0445 10.1357 6.25109 11.2866C5.81877 11.4205 5.58129 11.8711 5.70916 12.3034C5.83703 12.7358 6.29371 12.9732 6.72603 12.8454C10.0445 11.8407 14.3251 12.34 17.1261 14.0632C17.5097 14.3006 18.009 14.1789 18.2465 13.7952C18.4779 13.4055 18.3622 12.9062 17.9785 12.6688ZM19.3486 9.14931C15.476 6.85375 9.3504 6.63455 5.66045 7.75493C5.14288 7.91324 4.85061 8.45517 5.00892 8.97273C5.16724 9.4903 5.70916 9.78257 6.22673 9.62426C9.44173 8.65002 14.9888 8.83269 18.3561 10.8299C18.8188 11.1039 19.4156 10.9517 19.6957 10.4889C19.9697 10.0261 19.8174 9.42941 19.3486 9.14931ZM23.7509 11.9868C23.7509 18.3925 18.557 23.5864 12.1514 23.5864C5.7457 23.5864 0.551758 18.3925 0.551758 11.9868C0.551758 5.58115 5.7457 0.387207 12.1514 0.387207C18.5631 0.387207 23.7509 5.58115 23.7509 11.9868ZM21.4371 11.9868C21.4371 9.50857 20.469 7.17647 18.7214 5.42283C16.9678 3.66919 14.6418 2.70713 12.1635 2.70713C9.6853 2.70713 7.3532 3.67528 5.59956 5.42283C3.84592 7.17647 2.88385 9.50248 2.88385 11.9868C2.88385 14.465 3.85201 16.7971 5.59956 18.5447C7.3532 20.2983 9.67921 21.2604 12.1635 21.2604C14.6418 21.2604 16.9739 20.2922 18.7214 18.5447C20.469 16.7971 21.4371 14.465 21.4371 11.9868Z" fill="white"/>
</svg>
