<svg width="24" height="24" viewBox="0 0 24 24" fill="none" xmlns="http://www.w3.org/2000/svg">
<path d="M20.1401 0.387207H3.96342C3.05937 0.389736 2.19307 0.74999 1.55381 1.38925C0.914541 2.02852 0.554287 2.89482 0.551758 3.79887L0.551758 19.9755C0.554287 20.8796 0.914541 21.7459 1.55381 22.3852C2.19307 23.0244 3.05937 23.3847 3.96342 23.3872H20.1401C21.0441 23.3847 21.9104 23.0244 22.5497 22.3852C23.189 21.7459 23.5492 20.8796 23.5518 19.9755V3.79887C23.5492 2.89482 23.189 2.02852 22.5497 1.38925C21.9104 0.74999 21.0441 0.389736 20.1401 0.387207V0.387207ZM21.6351 19.9755C21.6351 20.372 21.4776 20.7523 21.1972 21.0327C20.9168 21.313 20.5366 21.4705 20.1401 21.4705H3.96342C3.56693 21.4705 3.18667 21.313 2.9063 21.0327C2.62593 20.7523 2.46842 20.372 2.46842 19.9755V3.79887C2.46842 3.40237 2.62593 3.02212 2.9063 2.74175C3.18667 2.46138 3.56693 2.30387 3.96342 2.30387H20.1401C20.5366 2.30387 20.9168 2.46138 21.1972 2.74175C21.4776 3.02212 21.6351 3.40237 21.6351 3.79887V19.9755Z" fill="white"/>
<path d="M12.0518 6.13721C10.9145 6.13721 9.80281 6.47444 8.85723 7.10626C7.91165 7.73807 7.17466 8.6361 6.73945 9.68678C6.30425 10.7375 6.19038 11.8936 6.41225 13.009C6.63411 14.1244 7.18174 15.1489 7.9859 15.9531C8.79005 16.7572 9.8146 17.3049 10.93 17.5267C12.0454 17.7486 13.2015 17.6347 14.2522 17.1995C15.3029 16.7643 16.2009 16.0273 16.8327 15.0817C17.4645 14.1362 17.8018 13.0244 17.8018 11.8872C17.8018 10.3622 17.196 8.89968 16.1176 7.82134C15.0393 6.74301 13.5768 6.13721 12.0518 6.13721ZM12.0518 15.7205C11.2936 15.7205 10.5525 15.4957 9.92207 15.0745C9.29169 14.6533 8.80036 14.0546 8.51022 13.3542C8.22009 12.6537 8.14417 11.883 8.29208 11.1394C8.43999 10.3958 8.80508 9.71273 9.34118 9.17663C9.87729 8.64053 10.5603 8.27544 11.3039 8.12753C12.0475 7.97962 12.8183 8.05553 13.5187 8.34567C14.2192 8.6358 14.8178 9.12713 15.2391 9.75752C15.6603 10.3879 15.8851 11.129 15.8851 11.8872C15.8851 12.9039 15.4812 13.8789 14.7623 14.5978C14.0434 15.3167 13.0684 15.7205 12.0518 15.7205Z" fill="white"/>
<path d="M18.2803 7.0957C19.0742 7.0957 19.7178 6.45211 19.7178 5.6582C19.7178 4.86429 19.0742 4.2207 18.2803 4.2207C17.4864 4.2207 16.8428 4.86429 16.8428 5.6582C16.8428 6.45211 17.4864 7.0957 18.2803 7.0957Z" fill="white"/>
</svg>
