<svg width="178" height="69" viewBox="0 0 178 69" fill="none" xmlns="http://www.w3.org/2000/svg">
<g clip-path="url(#clip0_222_19)">
<path d="M84.8307 -8.84361e-05L43.2535 15.594C41.7686 16.1435 39.4373 17.0791 39.0958 18.6534L33.5274 41.1385L33.2453 40.9752C30.8953 40.0129 28.3522 39.6161 25.8208 39.8167C25.0892 39.8692 24.3606 39.9584 23.638 40.0841C23.1777 40.1732 22.7173 40.2771 22.2719 40.396C15.6047 42.1633 11.1054 47.3167 12.0558 52.3663C12.4092 54.1461 13.3632 55.7506 14.7583 56.9108C17.7281 59.8811 23.0886 60.3267 28.2115 57.5643C32.7701 55.2623 36.1408 51.3861 36.9724 47.8069C36.9724 47.8069 42.7783 27.3563 43.4911 24.2375C43.6508 23.5218 43.9776 22.854 44.4447 22.2887C44.9118 21.7235 45.506 21.2767 46.1787 20.9851L78.6386 5.39101C78.7351 5.34374 78.8464 5.33675 78.9481 5.37156C79.0497 5.40638 79.1334 5.48015 79.1806 5.57665C79.2279 5.67315 79.2349 5.78448 79.2001 5.88614C79.1653 5.9878 79.0915 6.07146 78.995 6.11873L47.3221 23.1088C46.452 23.52 45.6993 24.1436 45.1336 24.9223C44.5678 25.7009 44.2072 26.6095 44.085 27.5643C43.949 28.1199 44.0129 28.7056 44.2654 29.2188C44.5179 29.732 44.9429 30.14 45.466 30.3712L46.446 30.9504C51.658 33.2672 55.7267 33.2524 59.2756 30.8465C59.3378 30.8052 59.3873 30.7474 59.4185 30.6796C59.4497 30.6117 59.4613 30.5365 59.452 30.4624C59.4428 30.3883 59.413 30.3182 59.3661 30.2601C59.3192 30.202 59.257 30.1582 59.1865 30.1336L46.7579 26.0494C46.6841 26.0193 46.621 25.9679 46.5765 25.9018C46.5321 25.8357 46.5084 25.7578 46.5084 25.6781C46.5084 25.5985 46.5321 25.5206 46.5765 25.4545C46.621 25.3883 46.6841 25.3369 46.7579 25.3068L47.0994 25.1286C47.2147 25.0808 47.3383 25.0562 47.4632 25.0562C47.588 25.0562 47.7116 25.0808 47.827 25.1286L57.7758 28.2623C58.868 28.6121 60.0184 28.7434 61.1614 28.6484C64.3942 28.4225 67.5212 27.4015 70.2646 25.6759C73.0079 23.9504 75.2825 21.5738 76.8865 18.7573C76.9166 18.6999 76.9305 18.6354 76.9267 18.5707C76.9229 18.506 76.9015 18.4435 76.8649 18.39C76.8282 18.3366 76.7777 18.2941 76.7187 18.2673C76.6597 18.2404 76.5945 18.2301 76.5301 18.2375L55.4742 20.9108C55.4289 20.9246 55.38 20.9198 55.3383 20.8975C55.2965 20.8753 55.2653 20.8373 55.2515 20.792C55.2377 20.7467 55.2425 20.6978 55.2648 20.656C55.287 20.6142 55.325 20.583 55.3703 20.5692L56.4839 20.0049C57.1235 19.6785 57.8098 19.4531 58.5182 19.3366C68.4819 17.6583 83.123 15.2078 85.2464 3.19298C85.3949 1.61873 85.1425 -0.1189 84.8307 -8.84361e-05Z" fill="#FF1241"/>
<path opacity="0.25" d="M42.2436 38.5843L40.4914 45.0595L42.4663 48.5051L33.3787 64.2476H27.7955H15.2184L6.13085 48.5051L15.2184 32.7773H20.8165H32.6808L33.9727 28.01H12.4714L11.2389 30.1486L6.23479 38.8219L0.636719 48.5051L12.4714 69.015H36.1407L37.3583 66.8763L42.3624 58.2031L47.9605 48.5051L42.2436 38.5843Z" fill="#FF8098"/>
<path d="M63.1955 44.1831C61.1909 44.1831 59.6466 44.896 59.6466 46.6039C59.6466 50.6732 69.6846 48.594 69.6846 55.0395C69.6846 58.5593 66.5514 60.1336 63.0916 60.1336C60.5609 60.1787 58.1042 59.2785 56.2017 57.6088L57.2262 55.6633C58.8685 57.1122 60.9761 57.9237 63.1658 57.9504C65.2892 57.9504 66.9969 57.1336 67.0266 55.3217C67.1305 50.8662 57.0629 53.1682 57.0926 46.8118C57.0926 43.396 60.0624 41.9257 63.344 41.9257C65.3728 41.9161 67.3619 42.4882 69.0757 43.5742L68.0512 45.6237C66.5943 44.7096 64.9152 44.2114 63.1955 44.1831Z" fill="white"/>
<path d="M90.4882 51.0148C90.5029 52.8214 89.9807 54.5917 88.9879 56.101C87.995 57.6104 86.5763 58.7907 84.9117 59.4923C83.2471 60.1938 81.4116 60.3851 79.6381 60.0416C77.8647 59.6982 76.2332 58.8356 74.9507 57.5634C73.6682 56.2911 72.7925 54.6664 72.4346 52.8956C72.0768 51.1247 72.2529 49.2874 72.9407 47.6168C73.6286 45.9463 74.7971 44.5177 76.298 43.5124C77.7989 42.5071 79.5645 41.9703 81.3709 41.9703C82.5757 41.9183 83.7783 42.1162 84.903 42.5514C86.0277 42.9865 87.0503 43.6496 87.9065 44.499C88.7627 45.3484 89.434 46.3657 89.8783 47.487C90.3226 48.6083 90.5302 49.8094 90.4882 51.0148ZM74.9116 51.0148C74.964 52.2799 75.3868 53.5016 76.1277 54.5283C76.8685 55.555 77.8947 56.3413 79.0786 56.7895C80.2625 57.2377 81.552 57.3281 82.7869 57.0495C84.0218 56.7708 85.1476 56.1354 86.0244 55.2222C86.9012 54.3089 87.4904 53.1581 87.7187 51.9128C87.9471 50.6674 87.8045 49.3824 87.3087 48.2174C86.813 47.0524 85.9858 46.0588 84.9302 45.36C83.8745 44.6613 82.6368 44.2882 81.3709 44.2871C80.4909 44.2642 79.6158 44.4256 78.8019 44.7611C77.988 45.0966 77.2533 45.5987 76.6449 46.2351C76.0366 46.8715 75.5681 47.6281 75.2696 48.4564C74.9711 49.2847 74.8491 50.1663 74.9116 51.0445V51.0148Z" fill="white"/>
<path d="M111.633 48.9653V60.0297H108.96V49.6336C109.026 48.9469 108.94 48.254 108.708 47.6044C108.476 46.9547 108.103 46.3643 107.617 45.875C107.131 45.3858 106.543 45.0098 105.894 44.7738C105.246 44.5379 104.554 44.4477 103.867 44.5098C103.08 44.498 102.298 44.643 101.567 44.9362C100.836 45.2295 100.17 45.6652 99.6094 46.218C99.0484 46.7708 98.6029 47.4297 98.2989 48.1563C97.9948 48.8829 97.8383 49.6628 97.8384 50.4504V60.0742H95.1655V42.0742H97.8384V46.0247C98.4497 44.7211 99.4436 43.6348 100.688 42.9104C101.932 42.1861 103.367 41.8581 104.803 41.9702C109.094 41.9702 111.633 44.599 111.633 48.9653Z" fill="white"/>
<path d="M133.238 42.0743V58.1585C133.238 63.4159 129.659 66.7278 124.195 66.7278C121.495 66.7121 118.879 65.7859 116.771 64.0991L118.003 62.1535C119.679 63.6154 121.823 64.427 124.047 64.4407C124.896 64.5207 125.752 64.4169 126.558 64.1363C127.363 63.8556 128.099 63.4048 128.715 62.8143C129.33 62.2239 129.812 61.5077 130.126 60.7146C130.44 59.9214 130.58 59.0699 130.536 58.2179V55.4852C129.904 56.6772 128.945 57.664 127.772 58.3297C126.599 58.9953 125.26 59.312 123.913 59.2427C119.057 59.2427 115.716 55.6634 115.716 50.5694C115.716 45.4753 119.028 42.0001 123.839 41.9704C125.197 41.8902 126.551 42.2015 127.738 42.8676C128.925 43.5336 129.896 44.5263 130.536 45.7278V42.0743H133.238ZM130.58 50.6436C130.531 49.436 130.127 48.2696 129.42 47.2895C128.713 46.3094 127.733 45.5588 126.603 45.1313C125.473 44.7037 124.242 44.618 123.063 44.8848C121.884 45.1515 120.81 45.759 119.974 46.6316C119.138 47.5043 118.577 48.6036 118.36 49.7927C118.144 50.9818 118.282 52.2083 118.757 53.3196C119.232 54.4309 120.024 55.378 121.033 56.0429C122.042 56.7079 123.224 57.0614 124.433 57.0595C125.266 57.071 126.093 56.9108 126.862 56.589C127.63 56.2671 128.325 55.7904 128.901 55.1886C129.478 54.5868 129.925 53.8727 130.213 53.0908C130.502 52.3089 130.627 51.4759 130.58 50.6436Z" fill="white"/>
<path d="M146.127 34.3514C147.312 34.354 148.484 34.5965 149.572 35.0643L149.468 38.9257C148.737 38.4267 147.886 38.1296 147.003 38.0643C146.607 38.0404 146.21 38.1009 145.839 38.2418C145.468 38.3826 145.131 38.6006 144.85 38.8813C144.57 39.1621 144.352 39.4991 144.211 39.8703C144.07 40.2415 144.01 40.6383 144.033 41.0346V42.5197H148.637V45.7425H144.063V60.0445H139.608V45.7425H137.218V42.5197H139.608V40.3662C139.594 39.5287 139.757 38.6975 140.086 37.9273C140.416 37.1571 140.904 36.4653 141.52 35.8973C142.135 35.3293 142.864 34.8979 143.658 34.6315C144.452 34.365 145.294 34.2696 146.127 34.3514ZM155.913 34.693V60.0296H151.458V34.693H155.913Z" fill="white"/>
<path d="M163.233 66.8615C161.57 66.8897 159.954 66.3087 158.689 65.2278L160.605 61.8417C161.256 62.4217 162.094 62.7484 162.966 62.7625C163.545 62.7693 164.112 62.5957 164.588 62.2657C165.065 61.9358 165.427 61.4657 165.624 60.9209L166.173 59.7179L158.63 41.7625H163.233L168.415 55.0397L173.167 41.7625H177.622L169.44 62.3169C169.046 63.6501 168.226 64.817 167.104 65.6381C165.983 66.4592 164.623 66.8891 163.233 66.8615Z" fill="white"/>
</g>
<defs>
<clipPath id="clip0_222_19">
<rect width="177" height="69" fill="white" transform="translate(0.636719)"/>
</clipPath>
</defs>
</svg>
